<svg width="40" height="58" viewBox="0 0 40 58" fill="none" xmlns="http://www.w3.org/2000/svg">
<g clip-path="url(#clip0_115_36)">
<path d="M4.70909 8.42118C4.96019 7.66607 6.88264 6.73572 7.59993 7.63277L7.33712 9.998L8.38833 9.998C9.96515 9.7352 6.01585 12.3022 5.2347 13.2003C4.70909 13.8047 4.44629 14.4657 4.70909 16.3053C4.82445 17.1128 4.6553 18.9333 6.81125 19.1961C8.9319 19.4546 11.8528 20.3153 12.1271 19.7213C12.3871 19.1582 9.70208 17.6193 13.1185 13.9401L12.3672 12.4663C11.9499 11.6956 11.5188 10.9009 11.542 10.8476C11.6103 10.6905 13.6441 12.626 14.17 12.1004C15.5104 10.7607 18.5844 10.0683 21.0026 12.8888C22.5798 14.7285 21.8969 16.3252 21.5282 17.6193C21.4023 18.0614 20.4772 19.4585 19.9516 19.7217C19.7638 20.1113 18.3241 20.9249 17.6411 21.203C18.124 21.4964 18.6921 21.7905 19.3422 21.8946C21.5135 22.2425 22.8108 23.258 23.3679 21.8242C24.9451 17.7649 23.8935 17.6193 22.5797 15.7797C24.9447 16.0425 23.9644 12.7595 24.9451 13.6773C25.9963 13.9401 27.8359 15.5169 26.7847 17.3565C26.4366 17.9658 25.7265 17.2572 26.3678 22.7638C26.7912 26.3997 22.5797 26.2918 17.849 25.5034C17.5863 30.4967 19.605 29.7082 19.3422 36.0155C19.2199 38.9512 17.8383 42.6327 17.3236 44.688C15.9146 50.3149 16.2722 49.1557 17.3236 52.3093C17.849 53.3605 18.3746 54.6745 17.5862 54.6745C16.7978 54.6745 15.5396 55.2932 13.6309 54.4117C15.7468 51.2581 12.3301 48.34 12.3301 44.688L12.3301 41.0088C6.81125 43.1112 10.7536 50.804 10.7536 53.8861C10.7536 54.9369 7.86272 54.4117 3.65787 54.4117C2.60666 52.8349 5.23366 52.8349 7.33608 52.0465C8.70249 51.5341 4.44602 46.7905 4.44602 42.8484C4.44602 38.9064 8.11841 37.1871 9.70208 35.2271C10.6889 34.0058 7.33712 29.7082 8.38833 23.9266C5.38918 23.4322 3.34304 20.8791 2.8689 20.2469C1.29208 18.1445 1.77036 13.7251 2.8689 12.6257C3.39409 12.1001 3.63188 11.8633 3.92068 11.5748C4.4468 11.0493 4.69625 10.9947 4.44707 9.99797C4.18427 8.94676 4.44693 9.20956 4.70909 8.42118Z" fill="#842029" fill-opacity="0.3"/>
</g>
<defs>
<clipPath id="clip0_115_36">
<rect width="40" height="58" fill="white"/>
</clipPath>
</defs>
</svg>
