<svg width="40" height="58" viewBox="0 0 40 58" fill="none" xmlns="http://www.w3.org/2000/svg">
<path d="M4.85442 27.5142C2.68743 22.7294 5.30406 26.3406 5.48608 25.9795C5.65656 25.6412 7.30168 27.4432 8.4654 28.0559C10.4207 28.5975 10.4783 28.4423 10.4207 28.0559C10.2839 27.1383 10.5419 26.6114 10.4207 23.4948C10.3914 22.742 10.1635 21.1029 12.1199 21.1029C14.135 21.1029 14.3045 20.4887 14.3045 20.4887C14.3045 20.4887 11.5727 19.668 11.8154 16.5123L10.9109 16.459C10.4299 16.4566 9.93645 16.4548 9.93525 16.4015C9.93169 16.2433 11.0631 14.893 11.0185 14.7285C10.689 13.5148 11.5146 10.441 13.6886 10.1164C17.8174 9.49999 19.0289 10.3591 19.7571 11.5729C19.7571 11.5729 20.3869 12.3011 20.1018 16.185C20.0062 17.4878 18.4747 19.0979 18.7862 20.0688C19.1273 21.1322 22.6212 21.0976 22.6212 23.773C22.6212 26.5716 22.9112 26.5952 22.7115 27.1963C21.646 30.4031 25.3296 23.9462 26.1421 24.7588C25.8713 25.2102 28.4893 23.856 28.3088 25.6615C25.2393 27.9185 22.8018 33.6692 21.1768 30.8074C21.016 30.5243 21.1768 31.5767 20.1018 38.6444C19.6938 41.3275 19.4215 40.3585 18.7862 44.8909C18.2905 48.4272 19.6164 49.3689 20.1018 53.7383C20.2496 55.0683 17.0239 55.5439 15.1281 54.1897C14.9365 53.4674 16.2464 48.6766 15.2755 47.4188C14.0801 45.8701 14.3045 42.771 14.3045 38.6444C9.20696 44.9557 13.3336 50.5405 13.3336 53.3874C13.3337 55.6341 10.9752 54.8216 5.80867 54.6011C5.37817 53.7383 9.766 53.2038 9.49426 52.5213C5.37817 42.1838 8.74236 41.668 10.1779 35.9742C10.5325 34.568 10.5436 33.8337 10.634 31.4865C10.6862 30.1323 5.70451 29.3912 4.85442 27.5142Z" fill="#664D03" fill-opacity="0.3"/>
</svg>
