<?xml version="1.0" encoding="utf-8"?>
<!-- Generator: Adobe Illustrator 22.0.1, SVG Export Plug-In . SVG Version: 6.00 Build 0)  -->
<svg version="1.1" id="Layer_1" xmlns="http://www.w3.org/2000/svg" xmlns:xlink="http://www.w3.org/1999/xlink" x="0px" y="0px"
	 viewBox="0 0 184.4 188.3" style="enable-background:new 0 0 184.4 188.3;" xml:space="preserve">
<style type="text/css">
	.st0{fill:#603813;}
	.st1{fill:#F7931E;}
</style>
<path class="st0" d="M165.9,187.3l15.6-21c0,0-43.6-7.2-88.1-14c0.3-2.5,0.8-5.5,1.3-9.1c-2.3-0.3-3.5-0.5-3.5-0.5s-1.1-0.2-3-0.4
	c-0.5,3.6-0.9,6.6-1.3,9c-45.6-6.8-89.9-12.7-86.8-9.2c4.9,5.4,23.6,28.7,31.7,39c1.9-0.4,3.7-0.9,5.2-1.5
	C53,173.3,152.2,186.4,165.9,187.3z"/>
<path class="st0" d="M104.2,29.9c-4.5,31-11.7,81.5-15.5,108.7c0.7,1.5,1.5,2.9,2.4,4.2c1.6-1.5,3-3.3,4.3-5.3
	c3.6-25.5,9.5-68,13.6-98.1c-0.1-1-0.1-1.6-0.1-1.6c0.1,0.1,0.2,0.1,0.3,0.2c0.5-3.7,1-7.1,1.4-10.4c-1.8-0.8-3-1.3-3-1.3
	s2-1.4,3.7-4.1c0.8-5.9,1.4-10.6,1.7-13.7c-0.5-1.6-1.2-3.3-2.2-5.1c0,0,1,0.3,2.5,0.9c-0.1-6-3.8-5.3-5.1-0.9
	c-0.2,0.8-1.1,6.2-2.3,14.4c1-0.2,2-0.3,3-0.4C109,17.3,107,22.1,104.2,29.9z"/>
<path class="st1" d="M109.1,39.3c0.8,10.5,4.3,71.8-13.6,98.1c-1.3,2-2.8,3.7-4.3,5.3c0,0,1.3,0.2,3.5,0.5c15.8,2.2,79.7,11,83,11
	c3.8,0-41-101-68.4-116.3c-0.1-0.1-0.2-0.1-0.3-0.2C109,37.7,109,38.3,109.1,39.3z"/>
<path class="st1" d="M113.1,8.4c1.8,6,0.2,10.7-1.7,13.7c-1.7,2.7-3.7,4.1-3.7,4.1s1.1,0.5,3,1.3c4.7,2,13.9,6.3,21.2,10.8
	c10.2,6.4,28.6-5.1,28.6-5.1s-25.5,1.3-26.7-10.8c-1-9.5-14.6-15.9-20.4-18.2c-1.5-0.6-2.5-0.9-2.5-0.9
	C111.9,5.1,112.6,6.8,113.1,8.4z"/>
<path class="st1" d="M88.7,138.6C76.6,113.4,95,55.4,104.2,29.9c2.8-7.7,4.7-12.5,4.7-12.5c-1,0.1-2,0.3-3,0.4
	C17.1,31.7,8.4,131.9,8.4,131.9c11.7,0.6,66.4,8.4,79.8,10.4c1.9,0.3,3,0.4,3,0.4C90.2,141.5,89.4,140,88.7,138.6z"/>
</svg>
