<?xml version="1.0" encoding="utf-8"?>
<!-- Generator: Adobe Illustrator 22.0.1, SVG Export Plug-In . SVG Version: 6.00 Build 0)  -->
<svg version="1.1" id="Layer_1" xmlns="http://www.w3.org/2000/svg" xmlns:xlink="http://www.w3.org/1999/xlink" x="0px" y="0px"
	 viewBox="0 0 369.6 193.2" style="enable-background:new 0 0 369.6 193.2;" xml:space="preserve">
<style type="text/css">
	.st0{fill:#FFFFFF;}
</style>
<g>
	<path class="st0" d="M7.5,109.5h177.9c0,0,8.7-30.4-10.8-39.1c0,0,15.2-30.4-18.4-38c0,0-25-56.4-77-20.6c0,0-65.1-14.1-59.7,47.7
		C19.4,59.6-14.2,74.7,7.5,109.5z"/>
	<path class="st0" d="M144.5,194.7H282c0,0,6.7-23.5-8.4-30.2c0,0,11.7-23.5-14.2-29.3c0,0-19.3-43.6-59.5-15.9
		c0,0-50.3-10.9-46.1,36.9C153.7,156.1,127.8,167.9,144.5,194.7z"/>
	<path class="st0" d="M268.4,79.4h101.4c0,0,4.9-17.3-6.2-22.2c0,0,8.7-17.3-10.5-21.6c0,0-14.2-32.1-43.9-11.7c0,0-37.1-8-34,27.2
		C275.2,51,256,59.6,268.4,79.4z"/>
</g>
</svg>
