<?xml version="1.0" encoding="utf-8"?>
<!-- Generator: Adobe Illustrator 22.0.1, SVG Export Plug-In . SVG Version: 6.00 Build 0)  -->
<svg version="1.1" id="Layer_1" xmlns="http://www.w3.org/2000/svg" xmlns:xlink="http://www.w3.org/1999/xlink" x="0px" y="0px"
	 viewBox="0 0 230 230" style="enable-background:new 0 0 230 230;" xml:space="preserve">
<style type="text/css">
	.st0{fill:#FFFFFF;}
	.st1{fill:url(#SVGID_1_);}
	.st2{fill:url(#SVGID_2_);}
	.st3{fill:url(#SVGID_3_);}
</style>
<path class="st0" d="M63.9,57.9c-0.2-0.1-0.4-0.2-0.5,0c-0.1,0.1-0.1,0.4,0,0.5s0.4,0.2,0.5,0C64.1,58.2,64.1,58,63.9,57.9z"/>
<path class="st0" d="M77,53.9c-0.1-0.1-0.4-0.2-0.5,0c-0.1,0.1-0.1,0.4,0,0.5c0.2,0.1,0.4,0.2,0.5,0C77.1,54.3,77.1,54.1,77,53.9z"
	/>
<path class="st0" d="M43.9,93.4c0.2,0,0.4-0.2,0.4-0.4c0-0.2-0.2-0.4-0.4-0.4s-0.4,0.2-0.4,0.4C43.5,93.2,43.7,93.4,43.9,93.4z"/>
<path class="st0" d="M77.8,139.2c0.2,0,0.4-0.2,0.4-0.4s-0.2-0.4-0.4-0.4c-0.2,0-0.4,0.2-0.4,0.4C77.5,139.1,77.6,139.2,77.8,139.2z
	"/>
<path class="st0" d="M36.7,142.1c-0.1-0.2-0.3-0.3-0.5-0.2s-0.3,0.3-0.2,0.5s0.3,0.3,0.5,0.2S36.8,142.3,36.7,142.1z"/>
<path class="st0" d="M35.3,137.6c-0.1-0.2-0.3-0.3-0.5-0.2s-0.3,0.3-0.2,0.5s0.3,0.3,0.5,0.2C35.4,138,35.4,137.8,35.3,137.6z"/>
<path class="st0" d="M38.9,135c-0.1-0.2-0.3-0.3-0.5-0.2s-0.3,0.3-0.2,0.5s0.3,0.3,0.5,0.2C38.9,135.5,39,135.2,38.9,135z"/>
<path class="st0" d="M64.2,123.8c0.2,0,0.4-0.2,0.4-0.4c0-0.2-0.2-0.4-0.4-0.4c-0.2,0-0.4,0.2-0.4,0.4
	C63.8,123.6,64,123.8,64.2,123.8z"/>
<path class="st0" d="M68,122.5c0.2,0,0.4-0.2,0.4-0.4c0-0.2-0.2-0.4-0.4-0.4c-0.2,0-0.4,0.2-0.4,0.4C67.6,122.4,67.7,122.5,68,122.5
	z"/>
<path class="st0" d="M70.9,48.8c-0.1-0.2-0.4-0.2-0.5,0c-0.1,0.1-0.1,0.4,0,0.5s0.4,0.2,0.5,0C71.1,49.1,71.1,48.9,70.9,48.8z"/>
<path class="st0" d="M65.5,101.7c0.2,0,0.4-0.2,0.4-0.4c0-0.2-0.2-0.4-0.4-0.4c-0.2,0-0.4,0.2-0.4,0.4S65.3,101.7,65.5,101.7z"/>
<path class="st0" d="M65.2,111.5c0.2,0,0.4-0.2,0.4-0.4c0-0.2-0.2-0.4-0.4-0.4c-0.2,0-0.4,0.2-0.4,0.4
	C64.8,111.4,65,111.5,65.2,111.5z"/>
<ellipse class="st0" cx="67.4" cy="117.8" rx="0.4" ry="0.4"/>
<path class="st0" d="M51.8,115.3c0.2,0,0.4-0.2,0.4-0.4c0-0.2-0.2-0.4-0.4-0.4s-0.4,0.2-0.4,0.4C51.4,115.1,51.5,115.3,51.8,115.3z"
	/>
<path class="st0" d="M74.7,55.6c-0.1-0.1-0.2-0.1-0.3,0c-0.1,0.1-0.1,0.2,0,0.3s0.2,0.1,0.3,0S74.8,55.7,74.7,55.6z"/>
<path class="st0" d="M66.7,101.9c0.1,0,0.2-0.1,0.2-0.2s-0.1-0.2-0.2-0.2s-0.2,0.1-0.2,0.2S66.6,101.9,66.7,101.9z"/>
<path class="st0" d="M35.4,103.3c0.1,0,0.2-0.1,0.2-0.2s-0.1-0.2-0.2-0.2c-0.1,0-0.2,0.1-0.2,0.2C35.2,103.2,35.3,103.3,35.4,103.3z
	"/>
<path class="st0" d="M66.6,52.2c-0.1-0.1-0.2-0.1-0.3,0c-0.1,0.1-0.1,0.2,0,0.3s0.2,0.1,0.3,0C66.7,52.3,66.7,52.2,66.6,52.2z"/>
<path class="st0" d="M69.8,50.3c-0.1-0.1-0.2-0.1-0.3,0c-0.1,0.1-0.1,0.2,0,0.3s0.2,0.1,0.3,0C69.9,50.4,69.9,50.3,69.8,50.3z"/>
<path class="st0" d="M43.7,102.5c0.1,0,0.2-0.1,0.2-0.2s-0.1-0.2-0.2-0.2c-0.1,0-0.2,0.1-0.2,0.2S43.6,102.5,43.7,102.5z"/>
<path class="st0" d="M67.9,103.2c0.1,0,0.2-0.1,0.2-0.2s-0.1-0.2-0.2-0.2s-0.2,0.1-0.2,0.2C67.8,103.1,67.8,103.2,67.9,103.2z"/>
<path class="st0" d="M94.7,135c0.1,0,0.2-0.1,0.2-0.2c0-0.1-0.1-0.2-0.2-0.2s-0.2,0.1-0.2,0.2S94.6,135,94.7,135z"/>
<path class="st0" d="M72.4,48.9c-0.1-0.1-0.2-0.1-0.3,0c-0.1,0.1-0.1,0.2,0,0.3s0.2,0.1,0.3,0C72.4,49.1,72.4,48.9,72.4,48.9z"/>
<path class="st0" d="M82.9,77.1c0.1,0,0.2-0.1,0.2-0.2s-0.1-0.2-0.2-0.2s-0.2,0.1-0.2,0.2C82.7,77,82.8,77.1,82.9,77.1z"/>
<path class="st0" d="M68.4,112.1c0.1,0,0.2-0.1,0.2-0.2s-0.1-0.2-0.2-0.2s-0.2,0.1-0.2,0.2C68.2,112,68.3,112.1,68.4,112.1z"/>
<path class="st0" d="M88.2,108.6c0.1,0,0.2-0.1,0.2-0.2s-0.1-0.2-0.2-0.2s-0.2,0.1-0.2,0.2C88,108.6,88.1,108.6,88.2,108.6z"/>
<path class="st0" d="M66.6,109.6c0.1,0,0.2-0.1,0.2-0.2s-0.1-0.2-0.2-0.2s-0.2,0.1-0.2,0.2S66.5,109.6,66.6,109.6z"/>
<path class="st0" d="M56,105.9c0.1,0,0.2-0.1,0.2-0.2s-0.1-0.2-0.2-0.2c-0.1,0-0.2,0.1-0.2,0.2S55.9,105.9,56,105.9z"/>
<path class="st0" d="M71.6,53.7c-0.1-0.1-0.2-0.1-0.3,0c-0.1,0.1-0.1,0.2,0,0.3s0.2,0.1,0.3,0C71.6,53.9,71.6,53.8,71.6,53.7z"/>
<path class="st0" d="M64.9,110c0.1,0,0.2-0.1,0.2-0.2s-0.1-0.2-0.2-0.2s-0.2,0.1-0.2,0.2C64.7,109.9,64.8,110,64.9,110z"/>
<path class="st0" d="M75.7,94.6c0.1,0,0.2-0.1,0.2-0.2s-0.1-0.2-0.2-0.2s-0.2,0.1-0.2,0.2S75.6,94.6,75.7,94.6z"/>
<path class="st0" d="M46.9,59.4c0.1,0,0.2-0.1,0.2-0.2c0-0.1-0.1-0.2-0.2-0.2c-0.1,0-0.2,0.1-0.2,0.2C46.7,59.4,46.8,59.4,46.9,59.4
	z"/>
<path class="st0" d="M91,125.9c0.1,0,0.2-0.1,0.2-0.2s-0.1-0.2-0.2-0.2s-0.2,0.1-0.2,0.2S90.9,125.9,91,125.9z"/>
<path class="st0" d="M59.4,110.3c0.1,0,0.2-0.1,0.2-0.2s-0.1-0.2-0.2-0.2c-0.1,0-0.2,0.1-0.2,0.2C59.2,110.2,59.3,110.3,59.4,110.3z
	"/>
<path class="st0" d="M82.7,91.9c0.1,0,0.2-0.1,0.2-0.2s-0.1-0.2-0.2-0.2s-0.2,0.1-0.2,0.2C82.6,91.8,82.6,91.9,82.7,91.9z"/>
<path class="st0" d="M17.1,99.5c0.1,0,0.2-0.1,0.2-0.2s-0.1-0.2-0.2-0.2s-0.2,0.1-0.2,0.2C17,99.4,17,99.5,17.1,99.5z"/>
<path class="st0" d="M62.3,117.6c0.1,0,0.2-0.1,0.2-0.2s-0.1-0.2-0.2-0.2c-0.1,0-0.2,0.1-0.2,0.2S62.2,117.6,62.3,117.6z"/>
<path class="st0" d="M89.1,112.9c0.1,0,0.2-0.1,0.2-0.2s-0.1-0.2-0.2-0.2s-0.2,0.1-0.2,0.2S89,112.9,89.1,112.9z"/>
<path class="st0" d="M65.9,120.6c0.1,0,0.2-0.1,0.2-0.2s-0.1-0.2-0.2-0.2s-0.2,0.1-0.2,0.2S65.8,120.6,65.9,120.6z"/>
<path class="st0" d="M59.9,119.2c0.1,0,0.2-0.1,0.2-0.2s-0.1-0.2-0.2-0.2c-0.1,0-0.2,0.1-0.2,0.2S59.8,119.2,59.9,119.2z"/>
<path class="st0" d="M41.8,87.2c0.1,0,0.2-0.1,0.2-0.2s-0.1-0.2-0.2-0.2c-0.1,0-0.2,0.1-0.2,0.2S41.7,87.2,41.8,87.2z"/>
<path class="st0" d="M86.4,136.6c0.1,0,0.2-0.1,0.2-0.2c0-0.1-0.1-0.2-0.2-0.2s-0.2,0.1-0.2,0.2C86.2,136.5,86.3,136.6,86.4,136.6z"
	/>
<path class="st0" d="M63.1,121.2c0.1,0,0.2-0.1,0.2-0.2s-0.1-0.2-0.2-0.2c-0.1,0-0.2,0.1-0.2,0.2S63,121.2,63.1,121.2z"/>
<path class="st0" d="M68.8,83.6c0.1,0,0.2-0.1,0.2-0.2s-0.1-0.2-0.2-0.2s-0.2,0.1-0.2,0.2S68.7,83.6,68.8,83.6z"/>
<path class="st0" d="M68,126.3c0.1,0,0.2-0.1,0.2-0.2s-0.1-0.2-0.2-0.2s-0.2,0.1-0.2,0.2S67.8,126.3,68,126.3z"/>
<path class="st0" d="M55.5,111.6c0.1,0,0.2-0.1,0.2-0.2s-0.1-0.2-0.2-0.2c-0.1,0-0.2,0.1-0.2,0.2C55.3,111.6,55.4,111.6,55.5,111.6z
	"/>
<path class="st0" d="M35.4,115.3c0.1,0,0.2-0.1,0.2-0.2s-0.1-0.2-0.2-0.2c-0.1,0-0.2,0.1-0.2,0.2C35.2,115.2,35.3,115.3,35.4,115.3z
	"/>
<path class="st0" d="M78.4,93c0.1,0,0.2-0.1,0.2-0.2s-0.1-0.2-0.2-0.2s-0.2,0.1-0.2,0.2C78.2,92.9,78.3,93,78.4,93z"/>
<path class="st0" d="M38.4,130.9c0.1,0,0.2-0.1,0.2-0.2c0-0.1-0.1-0.2-0.2-0.2c-0.1,0-0.2,0.1-0.2,0.2
	C38.2,130.8,38.3,130.9,38.4,130.9z"/>
<path class="st0" d="M14.2,147.4c0.1,0,0.2-0.1,0.2-0.2c0-0.1-0.1-0.2-0.2-0.2c-0.1,0-0.2,0.1-0.2,0.2
	C14,147.3,14.1,147.4,14.2,147.4z"/>
<path class="st0" d="M40.5,141.7c0-0.1-0.2-0.1-0.3-0.1s-0.1,0.2-0.1,0.3s0.2,0.1,0.3,0.1C40.5,141.9,40.6,141.8,40.5,141.7z"/>
<path class="st0" d="M41.6,139.6c0-0.1-0.2-0.1-0.3-0.1s-0.1,0.2-0.1,0.3s0.2,0.1,0.3,0.1C41.6,139.9,41.6,139.7,41.6,139.6z"/>
<path class="st0" d="M56.4,150.1c0.1,0,0.2-0.1,0.2-0.2c0-0.1-0.1-0.2-0.2-0.2c-0.1,0-0.2,0.1-0.2,0.2
	C56.2,150.1,56.3,150.1,56.4,150.1z"/>
<path class="st0" d="M35.6,135.5c0-0.1-0.2-0.1-0.3-0.1s-0.1,0.2-0.1,0.3s0.2,0.1,0.3,0.1C35.6,135.7,35.6,135.6,35.6,135.5z"/>
<path class="st0" d="M36.7,135c0-0.1-0.2-0.1-0.3-0.1s-0.1,0.2-0.1,0.3s0.2,0.1,0.3,0.1C36.7,135.2,36.7,135.1,36.7,135z"/>
<path class="st0" d="M67.1,128.1c0.1,0,0.2-0.1,0.2-0.2c0-0.1-0.1-0.2-0.2-0.2s-0.2,0.1-0.2,0.2C66.9,128,67,128.1,67.1,128.1z"/>
<path class="st0" d="M68,133.1c0.1,0,0.2-0.1,0.2-0.2c0-0.1-0.1-0.2-0.2-0.2s-0.2,0.1-0.2,0.2S67.9,133.1,68,133.1z"/>
<path class="st0" d="M68.1,136c0.1,0,0.2-0.1,0.2-0.2s-0.1-0.2-0.2-0.2s-0.2,0.1-0.2,0.2S68,136,68.1,136z"/>
<path class="st0" d="M36.8,131.5c0.1,0,0.2-0.1,0.2-0.2c0-0.1-0.1-0.2-0.2-0.2c-0.1,0-0.2,0.1-0.2,0.2S36.7,131.5,36.8,131.5z"/>
<path class="st0" d="M45.1,216.5c0.2,0,0.3-0.1,0.3-0.3c0-0.1-0.1-0.3-0.3-0.3s-0.3,0.1-0.3,0.3S45,216.5,45.1,216.5z"/>
<path class="st0" d="M23.9,201.2c0.2,0,0.3-0.1,0.3-0.3c0-0.1-0.1-0.3-0.3-0.3c-0.2,0-0.3,0.1-0.3,0.3
	C23.6,201.1,23.7,201.2,23.9,201.2z"/>
<path class="st0" d="M46.2,219.2c0.2,0,0.3-0.1,0.3-0.3c0-0.1-0.1-0.3-0.3-0.3s-0.3,0.1-0.3,0.3C45.9,219.1,46.1,219.2,46.2,219.2z"
	/>
<path class="st0" d="M52.9,189.7c0.1,0,0.1-0.1,0.1-0.1c0-0.1-0.1-0.1-0.1-0.1c-0.1,0-0.1,0.1-0.1,0.1
	C52.8,189.7,52.8,189.7,52.9,189.7z"/>
<path class="st0" d="M51.1,214c0.1,0,0.1-0.1,0.1-0.1l-0.1-0.1l-0.1,0.1C51,213.9,51,214,51.1,214z"/>
<path class="st0" d="M23.4,219.9c0.1,0,0.1-0.1,0.1-0.1c0-0.1-0.1-0.1-0.1-0.1l-0.1,0.1C23.3,219.8,23.4,219.9,23.4,219.9z"/>
<path class="st0" d="M71,181.1c0.2,0,0.3-0.1,0.3-0.3c0-0.1-0.1-0.3-0.3-0.3c-0.2,0-0.3,0.1-0.3,0.3S70.8,181.1,71,181.1z"/>
<path class="st0" d="M56.6,207.7c0.2,0,0.3-0.1,0.3-0.3c0-0.1-0.1-0.3-0.3-0.3s-0.3,0.1-0.3,0.3C56.3,207.6,56.4,207.7,56.6,207.7z"
	/>
<path class="st0" d="M61.5,193.4c0.2,0,0.3-0.1,0.3-0.3c0-0.1-0.1-0.3-0.3-0.3s-0.3,0.1-0.3,0.3C61.3,193.3,61.4,193.4,61.5,193.4z"
	/>
<path class="st0" d="M42,185.8c0.2,0,0.3-0.1,0.3-0.3c0-0.1-0.1-0.3-0.3-0.3s-0.3,0.1-0.3,0.3C41.8,185.7,41.9,185.8,42,185.8z"/>
<path class="st0" d="M61.5,210.7c0.2,0,0.3-0.1,0.3-0.3c0-0.1-0.1-0.3-0.3-0.3s-0.3,0.1-0.3,0.3C61.2,210.6,61.3,210.7,61.5,210.7z"
	/>
<path class="st0" d="M61.1,200.1c0.1,0,0.1-0.1,0.1-0.1c0-0.1-0.1-0.1-0.1-0.1c-0.1,0-0.1,0.1-0.1,0.1C60.9,200,61,200.1,61.1,200.1
	z"/>
<path class="st0" d="M59.8,201.4c0.1,0,0.1-0.1,0.1-0.1c0-0.1-0.1-0.1-0.1-0.1c-0.1,0-0.1,0.1-0.1,0.1
	C59.7,201.3,59.7,201.4,59.8,201.4z"/>
<path class="st0" d="M96.1,189.9c0.1,0,0.1-0.1,0.1-0.1c0-0.1-0.1-0.1-0.1-0.1c-0.1,0-0.1,0.1-0.1,0.1
	C95.9,189.8,96,189.9,96.1,189.9z"/>
<path class="st0" d="M100.8,193.4c0.1,0,0.1-0.1,0.1-0.1c0-0.1-0.1-0.1-0.1-0.1c-0.1,0-0.1,0.1-0.1,0.1
	C100.6,193.3,100.7,193.4,100.8,193.4z"/>
<path class="st0" d="M110.3,205.8c0.1,0,0.1-0.1,0.1-0.1c0-0.1-0.1-0.1-0.1-0.1c-0.1,0-0.1,0.1-0.1,0.1
	C110.1,205.8,110.2,205.8,110.3,205.8z"/>
<path class="st0" d="M57.2,205.4c0.1,0,0.1-0.1,0.1-0.1c0-0.1-0.1-0.1-0.1-0.1c-0.1,0-0.1,0.1-0.1,0.1
	C57.1,205.3,57.1,205.4,57.2,205.4z"/>
<path class="st0" d="M72.2,181.6c0.1,0,0.1-0.1,0.1-0.1c0-0.1-0.1-0.1-0.1-0.1c-0.1,0-0.1,0.1-0.1,0.1S72.1,181.6,72.2,181.6z"/>
<path class="st0" d="M56.4,203.2c0.1,0,0.1-0.1,0.1-0.1c0-0.1-0.1-0.1-0.1-0.1c-0.1,0-0.1,0.1-0.1,0.1
	C56.2,203.2,56.3,203.2,56.4,203.2z"/>
<path class="st0" d="M59.3,209.3c0.1,0,0.1-0.1,0.1-0.1l-0.1-0.1c-0.1,0-0.1,0.1-0.1,0.1S59.2,209.3,59.3,209.3z"/>
<path class="st0" d="M78.1,186.8c0.1,0,0.1-0.1,0.1-0.1l-0.1-0.1l-0.1,0.1L78.1,186.8z"/>
<path class="st0" d="M64.7,193.3c0.1,0,0.1-0.1,0.1-0.1c0-0.1-0.1-0.1-0.1-0.1c-0.1,0-0.1,0.1-0.1,0.1
	C64.5,193.3,64.6,193.3,64.7,193.3z"/>
<path class="st0" d="M57.1,209.8c0.1,0,0.1-0.1,0.1-0.1c0-0.1-0.1-0.1-0.1-0.1c-0.1,0-0.1,0.1-0.1,0.1S57,209.8,57.1,209.8z"/>
<path class="st0" d="M62.7,192.6c0.1,0,0.1-0.1,0.1-0.1c0-0.1-0.1-0.1-0.1-0.1c-0.1,0-0.1,0.1-0.1,0.1
	C62.5,192.5,62.6,192.6,62.7,192.6z"/>
<path class="st0" d="M60,191.9c0.1,0,0.1-0.1,0.1-0.1c0-0.1-0.1-0.1-0.1-0.1c-0.1,0-0.1,0.1-0.1,0.1C59.8,191.8,59.9,191.9,60,191.9
	z"/>
<path class="st0" d="M41.6,206c0.1,0,0.1-0.1,0.1-0.1l-0.1-0.1c-0.1,0-0.1,0.1-0.1,0.1S41.5,206,41.6,206z"/>
<path class="st0" d="M120.9,227.7c0.1,0,0.1-0.1,0.1-0.1c0-0.1-0.1-0.1-0.1-0.1c-0.1,0-0.1,0.1-0.1,0.1
	C120.7,227.7,120.8,227.7,120.9,227.7z"/>
<path class="st0" d="M61.2,68.2c0.2,0,0.4-0.2,0.4-0.4c0-0.2-0.2-0.4-0.4-0.4s-0.4,0.2-0.4,0.4S61,68.2,61.2,68.2z"/>
<path class="st0" d="M60.3,63.8c0.1,0,0.2-0.1,0.2-0.2c0-0.1-0.1-0.2-0.2-0.2c-0.1,0-0.2,0.1-0.2,0.2S60.2,63.8,60.3,63.8z"/>
<path class="st0" d="M58.6,65.6c0.1,0,0.2-0.1,0.2-0.2s-0.1-0.2-0.2-0.2c-0.1,0-0.2,0.1-0.2,0.2C58.5,65.5,58.5,65.6,58.6,65.6z"/>
<path class="st0" d="M54.1,68c0.1,0,0.2-0.1,0.2-0.2s-0.1-0.2-0.2-0.2c-0.1,0-0.2,0.1-0.2,0.2C53.9,68,53.9,68,54.1,68z"/>
<path class="st0" d="M86.9,53.6c0.2,0,0.4-0.2,0.4-0.4s-0.2-0.4-0.4-0.4c-0.2,0-0.4,0.2-0.4,0.4C86.5,53.5,86.7,53.6,86.9,53.6z"/>
<path class="st0" d="M90.1,62.2c0.2,0,0.4-0.2,0.4-0.4s-0.2-0.4-0.4-0.4c-0.2,0-0.4,0.2-0.4,0.4S89.9,62.2,90.1,62.2z"/>
<path class="st0" d="M89.8,68.3c0.2,0,0.4-0.2,0.4-0.4c0-0.2-0.2-0.4-0.4-0.4c-0.2,0-0.4,0.2-0.4,0.4C89.4,68.2,89.6,68.3,89.8,68.3
	z"/>
<path class="st0" d="M87.3,50.8c0.1,0,0.2-0.1,0.2-0.2c0-0.1-0.1-0.2-0.2-0.2s-0.2,0.1-0.2,0.2C87.1,50.7,87.2,50.8,87.3,50.8z"/>
<path class="st0" d="M95.5,47.6c0.1,0,0.2-0.1,0.2-0.2c0-0.1-0.1-0.2-0.2-0.2s-0.2,0.1-0.2,0.2S95.4,47.6,95.5,47.6z"/>
<path class="st0" d="M92.5,67.6c0.1,0,0.2-0.1,0.2-0.2s-0.1-0.2-0.2-0.2s-0.2,0.1-0.2,0.2S92.4,67.6,92.5,67.6z"/>
<path class="st0" d="M88,60.1c0.1,0,0.2-0.1,0.2-0.2c0-0.1-0.1-0.2-0.2-0.2s-0.2,0.1-0.2,0.2S87.9,60.1,88,60.1z"/>
<path class="st0" d="M88,63.7c0.1,0,0.2-0.1,0.2-0.2c0-0.1-0.1-0.2-0.2-0.2s-0.2,0.1-0.2,0.2C87.8,63.6,87.9,63.7,88,63.7z"/>
<path class="st0" d="M90.2,65.7c0.1,0,0.2-0.1,0.2-0.2s-0.1-0.2-0.2-0.2S90,65.4,90,65.5S90.1,65.7,90.2,65.7z"/>
<path class="st0" d="M143.7,159.6c0.3,0,0.6-0.2,0.6-0.5s-0.2-0.6-0.6-0.6c-0.3,0-0.6,0.2-0.6,0.5
	C143.1,159.3,143.4,159.6,143.7,159.6z"/>
<path class="st0" d="M142.6,152.9c0.2,0,0.3-0.1,0.3-0.3s-0.1-0.3-0.3-0.3s-0.3,0.1-0.3,0.3C142.3,152.8,142.4,152.9,142.6,152.9z"
	/>
<path class="st0" d="M140,155.6c0.2,0,0.3-0.1,0.3-0.3s-0.1-0.3-0.3-0.3s-0.3,0.1-0.3,0.3C139.7,155.4,139.8,155.6,140,155.6z"/>
<path class="st0" d="M132.8,159c0.2,0,0.3-0.1,0.3-0.3s-0.1-0.3-0.3-0.3s-0.3,0.1-0.3,0.3S132.6,159,132.8,159z"/>
<path class="st0" d="M148.9,123c0.2,0,0.4-0.2,0.4-0.4c0-0.2-0.2-0.4-0.4-0.4s-0.4,0.2-0.4,0.4S148.7,123,148.9,123z"/>
<path class="st0" d="M183.4,137.2c0.3,0,0.6-0.2,0.6-0.5s-0.3-0.5-0.6-0.5s-0.6,0.2-0.6,0.5C182.8,137,183,137.2,183.4,137.2z"/>
<path class="st0" d="M187.8,159.7c0.3,0,0.6-0.2,0.6-0.5s-0.3-0.5-0.6-0.5s-0.6,0.2-0.6,0.5C187.3,159.5,187.5,159.7,187.8,159.7z"
	/>
<path class="st0" d="M191.2,136c0.2,0,0.3-0.1,0.3-0.3s-0.1-0.3-0.3-0.3s-0.3,0.1-0.3,0.3S191.1,136,191.2,136z"/>
<path class="st0" d="M185.9,138.3c0.2,0,0.3-0.1,0.3-0.3s-0.1-0.3-0.3-0.3s-0.3,0.1-0.3,0.3C185.6,138.1,185.8,138.3,185.9,138.3z"
	/>
<path class="st0" d="M189.5,131.6c0.2,0,0.3-0.1,0.3-0.3s-0.1-0.3-0.3-0.3s-0.3,0.1-0.3,0.3S189.3,131.6,189.5,131.6z"/>
<path class="st0" d="M150.1,120.2c0.1,0,0.2-0.1,0.2-0.2s-0.1-0.2-0.2-0.2c-0.1,0-0.2,0.1-0.2,0.2
	C149.9,120.1,150,120.2,150.1,120.2z"/>
<path class="st0" d="M148.1,121.4c0.1,0,0.2-0.1,0.2-0.2s-0.1-0.2-0.2-0.2c-0.1,0-0.2,0.1-0.2,0.2C148,121.4,148,121.4,148.1,121.4z
	"/>
<path class="st0" d="M150.9,122.8c0.1,0,0.2-0.1,0.2-0.2s-0.1-0.2-0.2-0.2c-0.1,0-0.2,0.1-0.2,0.2
	C150.7,122.7,150.8,122.8,150.9,122.8z"/>
<path class="st0" d="M150.6,124.2c0.1,0,0.2-0.1,0.2-0.2s-0.1-0.2-0.2-0.2c-0.1,0-0.2,0.1-0.2,0.2
	C150.5,124.1,150.5,124.2,150.6,124.2z"/>
<path class="st0" d="M148.3,125.8c0.1,0,0.2-0.1,0.2-0.2s-0.1-0.2-0.2-0.2c-0.1,0-0.2,0.1-0.2,0.2
	C148.1,125.7,148.2,125.8,148.3,125.8z"/>
<path class="st0" d="M188.5,155.6c0.2,0,0.3-0.1,0.3-0.3s-0.1-0.3-0.3-0.3s-0.3,0.1-0.3,0.3S188.3,155.6,188.5,155.6z"/>
<path class="st0" d="M158.5,139.1c0.3,0,0.6-0.2,0.6-0.5s-0.3-0.5-0.6-0.5s-0.6,0.2-0.6,0.5C157.9,138.8,158.1,139.1,158.5,139.1z"
	/>
<path class="st0" d="M147.9,139.1c0.2,0,0.3-0.1,0.3-0.3s-0.1-0.3-0.3-0.3s-0.3,0.1-0.3,0.3C147.6,139,147.7,139.1,147.9,139.1z"/>
<path class="st0" d="M155.4,107c0.2,0,0.4-0.2,0.4-0.4c0-0.2-0.2-0.4-0.4-0.4s-0.4,0.2-0.4,0.4S155.2,107,155.4,107z"/>
<path class="st0" d="M153.8,99.1c0.1,0,0.2-0.1,0.2-0.2s-0.1-0.2-0.2-0.2c-0.1,0-0.2,0.1-0.2,0.2S153.7,99.1,153.8,99.1z"/>
<path class="st0" d="M119.1,36.8c0.3,0,0.6-0.2,0.6-0.5s-0.3-0.5-0.6-0.5c-0.3,0-0.6,0.2-0.6,0.5S118.8,36.8,119.1,36.8z"/>
<path class="st0" d="M86.5,28.9c0.3,0,0.6-0.2,0.6-0.5s-0.3-0.5-0.6-0.5c-0.3,0-0.6,0.2-0.6,0.5C85.9,28.6,86.2,28.9,86.5,28.9z"/>
<path class="st0" d="M85.9,75.5c0.3,0,0.6-0.2,0.6-0.5s-0.3-0.5-0.6-0.5c-0.3,0-0.6,0.2-0.6,0.5C85.4,75.3,85.6,75.5,85.9,75.5z"/>
<path class="st0" d="M123.6,59.3c0.3,0,0.6-0.2,0.6-0.5s-0.3-0.5-0.6-0.5c-0.3,0-0.6,0.2-0.6,0.5S123.2,59.3,123.6,59.3z"/>
<path class="st0" d="M80.9,66.7c0.3,0,0.6-0.2,0.6-0.5s-0.3-0.5-0.6-0.5c-0.3,0-0.6,0.2-0.6,0.5S80.6,66.7,80.9,66.7z"/>
<path class="st0" d="M180.8,61.5c0.3,0,0.6-0.2,0.6-0.5s-0.3-0.5-0.6-0.5s-0.6,0.2-0.6,0.5S180.5,61.5,180.8,61.5z"/>
<path class="st0" d="M157.8,11.1c0.3,0,0.6-0.2,0.6-0.5s-0.3-0.5-0.6-0.5s-0.6,0.2-0.6,0.5C157.3,10.9,157.5,11.1,157.8,11.1z"/>
<path class="st0" d="M125.1,91.9c0.3,0,0.6-0.2,0.6-0.5s-0.3-0.5-0.6-0.5c-0.3,0-0.6,0.2-0.6,0.5C124.5,91.6,124.8,91.9,125.1,91.9z
	"/>
<path class="st0" d="M176.6,67.4c0.3,0,0.6-0.2,0.6-0.5s-0.3-0.5-0.6-0.5s-0.6,0.2-0.6,0.5C176,67.2,176.3,67.4,176.6,67.4z"/>
<path class="st0" d="M139,39.5c0.3,0,0.6-0.2,0.6-0.5s-0.3-0.5-0.6-0.5s-0.6,0.2-0.6,0.5S138.7,39.5,139,39.5z"/>
<path class="st0" d="M119.7,32.6c0.2,0,0.3-0.1,0.3-0.3s-0.1-0.3-0.3-0.3c-0.2,0-0.3,0.1-0.3,0.3S119.6,32.6,119.7,32.6z"/>
<path class="st0" d="M95.5,28.1c0.2,0,0.3-0.1,0.3-0.3c0-0.2-0.1-0.3-0.3-0.3c-0.2,0-0.3,0.1-0.3,0.3S95.4,28.1,95.5,28.1z"/>
<path class="st0" d="M135.2,36.7c0.2,0,0.3-0.1,0.3-0.3s-0.1-0.3-0.3-0.3s-0.3,0.1-0.3,0.3C134.9,36.6,135.1,36.7,135.2,36.7z"/>
<path class="st0" d="M139.9,33.8c0.2,0,0.3-0.1,0.3-0.3s-0.1-0.3-0.3-0.3s-0.3,0.1-0.3,0.3C139.6,33.6,139.7,33.8,139.9,33.8z"/>
<path class="st0" d="M132.1,39.4c0.2,0,0.3-0.1,0.3-0.3s-0.1-0.3-0.3-0.3s-0.3,0.1-0.3,0.3C131.8,39.2,131.9,39.4,132.1,39.4z"/>
<path class="st0" d="M126.9,35.7c0.2,0,0.3-0.1,0.3-0.3s-0.1-0.3-0.3-0.3s-0.3,0.1-0.3,0.3C126.7,35.5,126.8,35.7,126.9,35.7z"/>
<path class="st0" d="M172.7,59.7c0.2,0,0.3-0.1,0.3-0.3s-0.1-0.3-0.3-0.3s-0.3,0.1-0.3,0.3C172.4,59.6,172.6,59.7,172.7,59.7z"/>
<path class="st0" d="M128.6,88.4c0.2,0,0.3-0.1,0.3-0.3c0-0.2-0.1-0.3-0.3-0.3s-0.3,0.1-0.3,0.3S128.4,88.4,128.6,88.4z"/>
<path class="st0" d="M135.6,12.7c0.2,0,0.3-0.1,0.3-0.3s-0.1-0.3-0.3-0.3s-0.3,0.1-0.3,0.3S135.4,12.7,135.6,12.7z"/>
<path class="st0" d="M121.6,37.9c0.2,0,0.3-0.1,0.3-0.3s-0.1-0.3-0.3-0.3c-0.2,0-0.3,0.1-0.3,0.3C121.3,37.8,121.5,37.9,121.6,37.9z
	"/>
<path class="st0" d="M125.2,31.3c0.2,0,0.3-0.1,0.3-0.3s-0.1-0.3-0.3-0.3c-0.2,0-0.3,0.1-0.3,0.3S125,31.3,125.2,31.3z"/>
<path class="st0" d="M79.4,39.5c0.2,0,0.3-0.1,0.3-0.3s-0.1-0.3-0.3-0.3c-0.2,0-0.3,0.1-0.3,0.3S79.2,39.5,79.4,39.5z"/>
<path class="st0" d="M160.2,27.8c0.2,0,0.3-0.1,0.3-0.3c0-0.2-0.1-0.3-0.3-0.3s-0.3,0.1-0.3,0.3C159.9,27.7,160,27.8,160.2,27.8z"/>
<path class="st0" d="M166,60.8c0.2,0,0.3-0.1,0.3-0.3s-0.1-0.3-0.3-0.3s-0.3,0.1-0.3,0.3S165.8,60.8,166,60.8z"/>
<path class="st0" d="M168.9,63.3c0.2,0,0.3-0.1,0.3-0.3s-0.1-0.3-0.3-0.3s-0.3,0.1-0.3,0.3S168.8,63.3,168.9,63.3z"/>
<path class="st0" d="M111.5,65.2c-0.1-0.1-0.3-0.2-0.4-0.1s-0.2,0.3-0.1,0.4s0.3,0.2,0.4,0.1S111.5,65.3,111.5,65.2z"/>
<path class="st0" d="M127.4,51.7c0.2,0,0.3-0.1,0.3-0.3s-0.1-0.3-0.3-0.3c-0.2,0-0.3,0.1-0.3,0.3C127.1,51.5,127.2,51.7,127.4,51.7z
	"/>
<path class="st0" d="M168.9,72.7c0.2,0,0.3-0.1,0.3-0.3c0-0.2-0.1-0.3-0.3-0.3s-0.3,0.1-0.3,0.3C168.6,72.6,168.8,72.7,168.9,72.7z"
	/>
<path class="st0" d="M127.6,58.2c0.2,0,0.3-0.1,0.3-0.3s-0.1-0.3-0.3-0.3c-0.2,0-0.3,0.1-0.3,0.3C127.3,58.1,127.4,58.2,127.6,58.2z
	"/>
<path class="st0" d="M126.3,61c0.2,0,0.3-0.1,0.3-0.3s-0.1-0.3-0.3-0.3c-0.2,0-0.3,0.1-0.3,0.3S126.1,61,126.3,61z"/>
<path class="st0" d="M98.2,46.5c-0.1-0.1-0.3-0.2-0.4-0.1c-0.1,0.1-0.2,0.3-0.1,0.4c0.1,0.1,0.3,0.2,0.4,0.1
	C98.3,46.8,98.3,46.6,98.2,46.5z"/>
<path class="st0" d="M103,43.7c-0.1-0.1-0.3-0.2-0.4-0.1c-0.1,0.1-0.2,0.3-0.1,0.4c0.1,0.1,0.3,0.2,0.4,0.1S103.1,43.9,103,43.7z"/>
<path class="st0" d="M124.2,55.3c0.2,0,0.3-0.1,0.3-0.3s-0.1-0.3-0.3-0.3c-0.2,0-0.3,0.1-0.3,0.3C123.9,55.1,124,55.3,124.2,55.3z"
	/>
<path class="st0" d="M109.8,39.8c-0.1-0.1-0.3-0.2-0.4-0.1c-0.1,0.1-0.2,0.3-0.1,0.4c0.1,0.1,0.3,0.2,0.4,0.1S109.9,39.9,109.8,39.8
	z"/>
<path class="st0" d="M120.6,63.6c0.2,0,0.3-0.1,0.3-0.3s-0.1-0.3-0.3-0.3c-0.2,0-0.3,0.1-0.3,0.3C120.3,63.4,120.4,63.6,120.6,63.6z
	"/>
<path class="st0" d="M163,83.8c0,0.2,0.1,0.3,0.3,0.3s0.3-0.1,0.3-0.3c0-0.2-0.1-0.3-0.3-0.3C163.2,83.5,163,83.6,163,83.8z"/>
<path class="st0" d="M115.8,68.1c0,0.2,0.1,0.3,0.3,0.3c0.2,0,0.3-0.1,0.3-0.3c0-0.2-0.1-0.3-0.3-0.3
	C115.9,67.8,115.8,67.9,115.8,68.1z"/>
<path class="st0" d="M181,95.4c0.2,0,0.3-0.1,0.3-0.3c0-0.2-0.1-0.3-0.3-0.3s-0.3,0.1-0.3,0.3S180.9,95.4,181,95.4z"/>
<path class="st0" d="M171.9,98.4c0.2,0,0.3-0.1,0.3-0.3c0-0.2-0.1-0.3-0.3-0.3s-0.3,0.1-0.3,0.3C171.6,98.3,171.8,98.4,171.9,98.4z"
	/>
<path class="st0" d="M116.4,121.1c0.3,0,0.6-0.2,0.6-0.5s-0.3-0.5-0.6-0.5c-0.3,0-0.6,0.2-0.6,0.5
	C115.8,120.8,116.1,121.1,116.4,121.1z"/>
<path class="st0" d="M113,131.8c0.3,0,0.6-0.2,0.6-0.5s-0.3-0.5-0.6-0.5c-0.3,0-0.6,0.2-0.6,0.5S112.7,131.8,113,131.8z"/>
<path class="st0" d="M120.1,132.8c0.3,0,0.6-0.2,0.6-0.5s-0.3-0.5-0.6-0.5c-0.3,0-0.6,0.2-0.6,0.5
	C119.5,132.5,119.7,132.8,120.1,132.8z"/>
<path class="st0" d="M114.8,121.1c0,0.2,0.1,0.3,0.3,0.3c0.2,0,0.3-0.1,0.3-0.3c0-0.2-0.1-0.3-0.3-0.3
	C115,120.8,114.9,121,114.8,121.1z"/>
<path class="st0" d="M141,99.2c0.2,0,0.3-0.1,0.3-0.3s-0.1-0.3-0.3-0.3s-0.3,0.1-0.3,0.3S140.8,99.2,141,99.2z"/>
<path class="st0" d="M124.8,124.2c0.2,0,0.3-0.1,0.3-0.3c0-0.2-0.1-0.3-0.3-0.3c-0.2,0-0.3,0.1-0.3,0.3S124.6,124.2,124.8,124.2z"/>
<path class="st0" d="M131.1,124.2c0.2,0,0.3-0.1,0.3-0.3c0-0.2-0.1-0.3-0.3-0.3s-0.3,0.1-0.3,0.3S130.9,124.2,131.1,124.2z"/>
<path class="st0" d="M113.4,127.1c0.2,0,0.3-0.1,0.3-0.3s-0.1-0.3-0.3-0.3c-0.2,0-0.3,0.1-0.3,0.3S113.2,127.1,113.4,127.1z"/>
<path class="st0" d="M117.4,127.1c0.2,0,0.3-0.1,0.3-0.3c0-0.2-0.1-0.3-0.3-0.3c-0.2,0-0.3,0.1-0.3,0.3S117.2,127.1,117.4,127.1z"/>
<path class="st0" d="M88.2,115.5c0.2,0,0.3-0.1,0.3-0.3c0-0.2-0.1-0.3-0.3-0.3c-0.2,0-0.3,0.1-0.3,0.3
	C87.9,115.3,88,115.5,88.2,115.5z"/>
<path class="st0" d="M119.4,135.5c0.2,0,0.3-0.1,0.3-0.3s-0.1-0.3-0.3-0.3c-0.2,0-0.3,0.1-0.3,0.3S119.3,135.5,119.4,135.5z"/>
<path class="st0" d="M158.7,140.4c0.2,0,0.3-0.1,0.3-0.3s-0.1-0.3-0.3-0.3s-0.3,0.1-0.3,0.3C158.4,140.3,158.5,140.4,158.7,140.4z"
	/>
<path class="st0" d="M122.8,136.3c0.2,0,0.3-0.1,0.3-0.3s-0.1-0.3-0.3-0.3c-0.2,0-0.3,0.1-0.3,0.3S122.7,136.3,122.8,136.3z"/>
<path class="st0" d="M129.8,127c0.2,0,0.3-0.1,0.3-0.3c0-0.2-0.1-0.3-0.3-0.3s-0.3,0.1-0.3,0.3C129.5,126.8,129.7,127,129.8,127z"/>
<path class="st0" d="M131.1,134.6c0.2,0,0.3-0.1,0.3-0.3s-0.1-0.3-0.3-0.3s-0.3,0.1-0.3,0.3S130.9,134.6,131.1,134.6z"/>
<path class="st0" d="M88.5,115.8c0.2,0,0.3-0.1,0.3-0.3c0-0.2-0.1-0.3-0.3-0.3c-0.2,0-0.3,0.1-0.3,0.3
	C88.2,115.6,88.3,115.8,88.5,115.8z"/>
<circle class="st0" cx="126.2" cy="126.9" r="0.3"/>
<path class="st0" d="M132,187.1c0.3,0,0.6-0.2,0.6-0.5s-0.3-0.5-0.6-0.5s-0.6,0.2-0.6,0.5C131.4,186.8,131.7,187.1,132,187.1z"/>
<path class="st0" d="M130.5,187.1c0,0.2,0.1,0.3,0.3,0.3s0.3-0.1,0.3-0.3s-0.1-0.3-0.3-0.3C130.6,186.9,130.5,187,130.5,187.1z"/>
<path class="st0" d="M137,189c0.2,0,0.3-0.1,0.3-0.3s-0.1-0.3-0.3-0.3s-0.3,0.1-0.3,0.3C136.7,188.8,136.8,189,137,189z"/>
<path class="st0" d="M138.4,202.3c0.2,0,0.3-0.1,0.3-0.3s-0.1-0.3-0.3-0.3s-0.3,0.1-0.3,0.3C138.2,202.2,138.3,202.3,138.4,202.3z"
	/>
<path class="st0" d="M102.9,210.9c0.1,0,0.1-0.1,0.1-0.1c0-0.1-0.1-0.1-0.1-0.1c-0.1,0-0.1,0.1-0.1,0.1
	C102.7,210.8,102.8,210.9,102.9,210.9z"/>
<path class="st0" d="M70.4,199.8c0.2,0,0.3-0.1,0.3-0.3c0-0.1-0.1-0.3-0.3-0.3c-0.2,0-0.3,0.1-0.3,0.3
	C70.1,199.6,70.2,199.8,70.4,199.8z"/>
<path class="st0" d="M77,195.2c0,0.2,0,0.4-0.1,0.4s-0.1-0.1-0.1-0.3s0-0.4,0.1-0.4C77,194.8,77,195,77,195.2z"/>
<path class="st0" d="M90.2,196.5c0.1,0,0.1-0.1,0.1-0.1c0-0.1-0.1-0.1-0.1-0.1c-0.1,0-0.1,0.1-0.1,0.1
	C90,196.4,90.1,196.5,90.2,196.5z"/>
<path class="st0" d="M89.5,197.9c0.1,0,0.1-0.1,0.1-0.1c0-0.1-0.1-0.1-0.1-0.1c-0.1,0-0.1,0.1-0.1,0.1
	C89.4,197.8,89.5,197.9,89.5,197.9z"/>
<path class="st0" d="M90.2,201.6c0.1,0,0.1-0.1,0.1-0.1c0-0.1-0.1-0.1-0.1-0.1c-0.1,0-0.1,0.1-0.1,0.1
	C90,201.6,90.1,201.6,90.2,201.6z"/>
<path class="st0" d="M51.2,145.1c0.2,0,0.4-0.2,0.4-0.4s-0.2-0.4-0.4-0.4s-0.4,0.2-0.4,0.4C50.8,145,51,145.1,51.2,145.1z"/>
<path class="st0" d="M112,180.4c0.2,0,0.3-0.1,0.3-0.3c0-0.1-0.1-0.3-0.3-0.3c-0.2,0-0.3,0.1-0.3,0.3
	C111.7,180.2,111.8,180.4,112,180.4z"/>
<path class="st0" d="M115.4,180.8c0.2,0,0.3-0.1,0.3-0.3c0-0.1-0.1-0.3-0.3-0.3c-0.2,0-0.3,0.1-0.3,0.3S115.2,180.8,115.4,180.8z"/>
<path class="st0" d="M50.2,145.2c0,0.1,0.1,0.2,0.2,0.2c0.1,0,0.2-0.1,0.2-0.2c0-0.1-0.1-0.2-0.2-0.2S50.2,145.1,50.2,145.2z"/>
<path class="st0" d="M102.1,189.9c0.1,0,0.1-0.1,0.1-0.1l-0.1-0.1l-0.1,0.1L102.1,189.9z"/>
<path class="st0" d="M100.6,194.7c0.1,0,0.1-0.1,0.1-0.1c0-0.1-0.1-0.1-0.1-0.1c-0.1,0-0.1,0.1-0.1,0.1
	C100.5,194.7,100.6,194.7,100.6,194.7z"/>
<path class="st0" d="M60.8,147.2c0.1,0,0.2-0.1,0.2-0.2c0-0.1-0.1-0.2-0.2-0.2c-0.1,0-0.2,0.1-0.2,0.2
	C60.6,147.1,60.7,147.2,60.8,147.2z"/>
<path class="st0" d="M49.2,149.1c0.1,0,0.2-0.1,0.2-0.2c0-0.1-0.1-0.2-0.2-0.2c-0.1,0-0.2,0.1-0.2,0.2S49.1,149.1,49.2,149.1z"/>
<path class="st0" d="M51.8,149.1c0.1,0,0.2-0.1,0.2-0.2s-0.1-0.2-0.2-0.2c-0.1,0-0.2,0.1-0.2,0.2S51.7,149.1,51.8,149.1z"/>
<path class="st0" d="M54.8,149.1c0.1,0,0.2-0.1,0.2-0.2c0-0.1-0.1-0.2-0.2-0.2c-0.1,0-0.2,0.1-0.2,0.2
	C54.6,149.1,54.7,149.1,54.8,149.1z"/>
<path class="st0" d="M119.7,184.3c0-0.1-0.1-0.1-0.2,0c-0.1,0-0.1,0.1,0,0.2c0,0.1,0.1,0.1,0.2,0
	C119.7,184.4,119.7,184.3,119.7,184.3z"/>
<path class="st0" d="M118.3,183.1c0-0.1-0.1-0.1-0.2,0c-0.1,0-0.1,0.1,0,0.2c0,0.1,0.1,0.1,0.2,0
	C118.4,183.3,118.4,183.2,118.3,183.1z"/>
<path class="st0" d="M119.1,182.6c0-0.1-0.1-0.1-0.2,0c-0.1,0-0.1,0.1,0,0.2c0,0.1,0.1,0.1,0.2,0
	C119.1,182.8,119.2,182.7,119.1,182.6z"/>
<path class="st0" d="M104.4,194.9c0.1,0,0.1-0.1,0.1-0.1c0-0.1-0.1-0.1-0.1-0.1c-0.1,0-0.1,0.1-0.1,0.1
	C104.3,194.8,104.3,194.9,104.4,194.9z"/>
<path class="st0" d="M116.2,179.7c0-0.1-0.1-0.1-0.2,0c-0.1,0-0.1,0.1,0,0.2c0,0.1,0.1,0.1,0.2,0
	C116.2,179.8,116.3,179.7,116.2,179.7z"/>
<path class="st0" d="M118.4,180.1c0.1,0,0.1-0.1,0.1-0.1l-0.1-0.1c-0.1,0-0.1,0.1-0.1,0.1L118.4,180.1z"/>
<path class="st0" d="M57.6,149.1c0.1,0,0.2-0.1,0.2-0.2c0-0.1-0.1-0.2-0.2-0.2c-0.1,0-0.2,0.1-0.2,0.2
	C57.4,149,57.5,149.1,57.6,149.1z"/>
<path class="st0" d="M10.8,13.1c0.1,0.1,0.3,0,0.4-0.1c0.1-0.1,0-0.3-0.1-0.4c-0.1-0.1-0.3,0-0.4,0.1C10.6,12.8,10.7,13,10.8,13.1z"
	/>
<path class="st0" d="M8.9,20.6c0.1,0.1,0.3,0,0.4-0.1c0.1-0.1,0-0.3-0.1-0.4s-0.3,0-0.4,0.1C8.6,20.4,8.7,20.5,8.9,20.6z"/>
<path class="st0" d="M139.9,207.4c0.1,0.1,0.3,0,0.4-0.1c0.1-0.1,0-0.3-0.2-0.4c-0.1-0.1-0.3,0-0.4,0.1
	C139.7,207.2,139.8,207.3,139.9,207.4z"/>
<path class="st0" d="M149.1,180c0,0.1,0,0.2,0.1,0.2s0.2,0,0.2-0.1s0-0.2-0.1-0.2C149.3,179.9,149.2,179.9,149.1,180z"/>
<path class="st0" d="M150.6,190.9c0.1,0.1,0.3,0,0.4-0.1c0.1-0.1,0-0.3-0.1-0.4c-0.1-0.1-0.3,0-0.4,0.1
	C150.4,190.7,150.5,190.9,150.6,190.9z"/>
<path class="st0" d="M149.5,195.1c0.1,0.1,0.3,0,0.4-0.1c0.1-0.1,0-0.3-0.1-0.4c-0.1-0.1-0.3,0-0.4,0.1
	C149.3,194.9,149.3,195,149.5,195.1z"/>
<path class="st0" d="M153.3,196.8c0.1,0.1,0.3,0,0.4-0.1c0.1-0.1,0-0.3-0.1-0.4c-0.1-0.1-0.3,0-0.4,0.1
	C153.1,196.6,153.2,196.8,153.3,196.8z"/>
<path class="st0" d="M190,199.2c-0.1,0.1,0,0.3,0.1,0.4c0.1,0.1,0.3,0,0.4-0.1c0.1-0.1,0-0.3-0.1-0.4C190.2,199,190.1,199,190,199.2
	z"/>
<path class="st0" d="M196.3,191.7c0.1,0.1,0.3,0,0.4-0.1c0.1-0.1,0-0.3-0.1-0.4c-0.1-0.1-0.3,0-0.4,0.1
	C196,191.5,196.1,191.7,196.3,191.7z"/>
<path class="st0" d="M195.1,185.8c0.1,0,0.2,0,0.2-0.1s0-0.2-0.1-0.2s-0.2,0-0.2,0.1C195,185.7,195,185.8,195.1,185.8z"/>
<path class="st0" d="M191.1,196.7c0.1,0,0.2,0,0.2-0.1s0-0.2-0.1-0.2s-0.2,0-0.2,0.1S191.1,196.7,191.1,196.7z"/>
<path class="st0" d="M179,188.5c0.1,0.1,0.3,0,0.4-0.1c0.1-0.1,0-0.3-0.1-0.4c-0.1-0.1-0.3,0-0.4,0.1
	C178.8,188.3,178.9,188.5,179,188.5z"/>
<path class="st0" d="M189.7,204.1c0,0.1,0,0.2,0.1,0.2s0.2,0,0.2-0.1s0-0.2,0-0.2C189.8,204,189.7,204.1,189.7,204.1z"/>
<path class="st0" d="M200.4,191.4c0.1,0,0.2,0,0.2-0.1s0-0.2-0.1-0.2s-0.2,0-0.2,0.1C200.3,191.2,200.4,191.3,200.4,191.4z"/>
<path class="st0" d="M190,197.7c0.1,0,0.2,0,0.2-0.1s0-0.2-0.1-0.2s-0.2,0-0.2,0.1S189.9,197.7,190,197.7z"/>
<path class="st0" d="M111.1,6c0.3,0,0.6-0.2,0.6-0.5S111.4,5,111.1,5c-0.3,0-0.6,0.2-0.6,0.5S110.8,6,111.1,6z"/>
<path class="st0" d="M174.8,3.1c0.3,0,0.6-0.2,0.6-0.5s-0.3-0.5-0.6-0.5s-0.6,0.2-0.6,0.5C174.2,2.8,174.4,3.1,174.8,3.1z"/>
<path class="st0" d="M180.9,37.4c0.3,0,0.6-0.2,0.6-0.5s-0.3-0.5-0.6-0.5s-0.6,0.2-0.6,0.5C180.3,37.1,180.6,37.4,180.9,37.4z"/>
<path class="st0" d="M184.9,18.4c0.3,0,0.6-0.2,0.6-0.5s-0.3-0.5-0.6-0.5s-0.6,0.2-0.6,0.5C184.3,18.2,184.6,18.4,184.9,18.4z"/>
<path class="st0" d="M189.8,9.9c0.3,0,0.6-0.2,0.6-0.5s-0.3-0.5-0.6-0.5s-0.6,0.2-0.6,0.5C189.2,9.6,189.5,9.9,189.8,9.9z"/>
<path class="st0" d="M158.3,220.9c0.1,0,0.1-0.1,0.1-0.1c0-0.1-0.1-0.1-0.1-0.1c-0.1,0-0.1,0.1-0.1,0.1
	C158.2,220.9,158.2,220.9,158.3,220.9z"/>
<path class="st0" d="M165.6,206.9c0.1,0,0.1-0.1,0.1-0.1c0-0.1-0.1-0.1-0.1-0.1c-0.1,0-0.1,0.1-0.1,0.1
	C165.4,206.8,165.5,206.9,165.6,206.9z"/>
<path class="st0" d="M116.5,209.4c0.1,0,0.1-0.1,0.1-0.1c0-0.1-0.1-0.1-0.1-0.1c-0.1,0-0.1,0.1-0.1,0.1
	C116.3,209.3,116.4,209.4,116.5,209.4z"/>
<path class="st0" d="M186.6,11.2c0.2,0,0.3-0.1,0.3-0.3s-0.1-0.3-0.3-0.3s-0.3,0.1-0.3,0.3C186.3,11,186.5,11.2,186.6,11.2z"/>
<path class="st0" d="M183.2,14.6c0.2,0,0.3-0.1,0.3-0.3s-0.1-0.3-0.3-0.3s-0.3,0.1-0.3,0.3C182.9,14.4,183.1,14.6,183.2,14.6z"/>
<path class="st0" d="M211.8,9.6c0.2,0,0.3-0.1,0.3-0.3S212,9,211.8,9s-0.3,0.1-0.3,0.3S211.6,9.6,211.8,9.6z"/>
<path class="st0" d="M190.6,22.2c0.2,0,0.3-0.1,0.3-0.3c0-0.2-0.1-0.3-0.3-0.3s-0.3,0.1-0.3,0.3C190.4,22.1,190.5,22.2,190.6,22.2z"
	/>
<path class="st0" d="M171.6,5.4c0.2,0,0.3-0.1,0.3-0.3c0-0.2-0.1-0.3-0.3-0.3s-0.3,0.1-0.3,0.3S171.4,5.4,171.6,5.4z"/>
<path class="st0" d="M171.6,13.3c0.2,0,0.3-0.1,0.3-0.3s-0.1-0.3-0.3-0.3s-0.3,0.1-0.3,0.3S171.4,13.3,171.6,13.3z"/>
<path class="st0" d="M171.4,16.7c0.2,0,0.3-0.1,0.3-0.3c0-0.2-0.1-0.3-0.3-0.3s-0.3,0.1-0.3,0.3C171.1,16.6,171.2,16.7,171.4,16.7z"
	/>
<path class="st0" d="M172.6,20.1c0.2,0,0.3-0.1,0.3-0.3c0-0.2-0.1-0.3-0.3-0.3s-0.3,0.1-0.3,0.3S172.5,20.1,172.6,20.1z"/>
<path class="st0" d="M180.3,28.6c0.2,0,0.3-0.1,0.3-0.3s-0.1-0.3-0.3-0.3s-0.3,0.1-0.3,0.3S180.1,28.6,180.3,28.6z"/>
<path class="st0" d="M179,33.5c0.2,0,0.3-0.1,0.3-0.3s-0.1-0.3-0.3-0.3s-0.3,0.1-0.3,0.3S178.8,33.5,179,33.5z"/>
<circle class="st0" cx="182.4" cy="32.2" r="0.3"/>
<path class="st0" d="M182.4,34.4c0.2,0,0.3-0.1,0.3-0.3s-0.1-0.3-0.3-0.3s-0.3,0.1-0.3,0.3C182.1,34.2,182.2,34.4,182.4,34.4z"/>
<path class="st0" d="M189.4,25c0.2,0,0.3-0.1,0.3-0.3c0-0.2-0.1-0.3-0.3-0.3s-0.3,0.1-0.3,0.3C189.1,24.9,189.2,25,189.4,25z"/>
<path class="st0" d="M3.7,106.2c0.3,0,0.6-0.2,0.6-0.5s-0.3-0.5-0.6-0.5s-0.6,0.2-0.6,0.5C3.1,105.9,3.4,106.2,3.7,106.2z"/>
<path class="st0" d="M2.8,82.4c0.3,0,0.6-0.2,0.6-0.5s-0.3-0.5-0.6-0.5s-0.6,0.2-0.6,0.5C2.3,82.1,2.5,82.4,2.8,82.4z"/>
<path class="st0" d="M1.6,86.5c0.2,0,0.3-0.1,0.3-0.3s-0.1-0.3-0.3-0.3S1.3,86,1.3,86.2S1.5,86.5,1.6,86.5z"/>
<path class="st0" d="M33.3,2.3c0.2,0,0.3-0.1,0.3-0.3s-0.1-0.3-0.3-0.3S33,1.8,33,2S33.1,2.3,33.3,2.3z"/>
<path class="st0" d="M30.5,7.2c0.2,0,0.3-0.1,0.3-0.3s-0.1-0.3-0.3-0.3c-0.2,0-0.3,0.1-0.3,0.3S30.4,7.2,30.5,7.2z"/>
<path class="st0" d="M35.2,4.2c0.2,0,0.3-0.1,0.3-0.3s-0.1-0.3-0.3-0.3s-0.3,0.1-0.3,0.3S35,4.2,35.2,4.2z"/>
<path class="st0" d="M161,217.3c0.3,0,0.6-0.2,0.6-0.5s-0.3-0.5-0.6-0.5s-0.6,0.2-0.6,0.5C160.4,217,160.6,217.3,161,217.3z"/>
<path class="st0" d="M161.6,213c0.2,0,0.3-0.1,0.3-0.3s-0.1-0.3-0.3-0.3s-0.3,0.1-0.3,0.3S161.4,213,161.6,213z"/>
<path class="st0" d="M163.5,218.3c0.2,0,0.3-0.1,0.3-0.3s-0.1-0.3-0.3-0.3s-0.3,0.1-0.3,0.3S163.3,218.3,163.5,218.3z"/>
<path class="st0" d="M181,167.5c0.5,0,0.9-0.3,0.9-0.7s-0.4-0.7-0.8-0.7c-0.5,0-0.9,0.3-0.9,0.7C180.1,167.2,180.5,167.5,181,167.5z
	"/>
<path class="st0" d="M179.3,158.9c0.2,0,0.4-0.2,0.4-0.4s-0.2-0.4-0.4-0.4s-0.4,0.2-0.4,0.4C178.9,158.8,179.1,158.9,179.3,158.9z"
	/>
<path class="st0" d="M175.4,162.4c0.2,0,0.4-0.2,0.4-0.4s-0.2-0.4-0.4-0.4s-0.4,0.2-0.4,0.4S175.2,162.3,175.4,162.4z"/>
<path class="st0" d="M164.9,166.7c0.2,0,0.4-0.2,0.4-0.4s-0.2-0.4-0.4-0.4s-0.4,0.2-0.4,0.4C164.4,166.6,164.6,166.7,164.9,166.7z"
	/>
<path class="st0" d="M187.1,141.3c0.2,0,0.4-0.2,0.4-0.4s-0.2-0.4-0.4-0.4s-0.4,0.2-0.4,0.4C186.7,141.1,186.9,141.3,187.1,141.3z"
	/>
<path class="st0" d="M210.2,174.8c0.2,0,0.4-0.2,0.4-0.4s-0.2-0.4-0.4-0.4s-0.4,0.2-0.4,0.4C209.7,174.6,209.9,174.8,210.2,174.8z"
	/>
<path class="st0" d="M212.1,140.8c0.5,0,0.9-0.3,0.8-0.7c0-0.4-0.4-0.7-0.9-0.7s-0.9,0.4-0.8,0.7
	C211.2,140.5,211.6,140.8,212.1,140.8z"/>
<path class="st0" d="M209.8,132.4c0.2,0,0.4-0.2,0.4-0.4s-0.2-0.4-0.4-0.4s-0.4,0.2-0.4,0.4C209.4,132.2,209.6,132.4,209.8,132.4z"
	/>
<path class="st0" d="M206.2,136.1c0.2,0,0.4-0.2,0.4-0.4s-0.2-0.4-0.4-0.4s-0.4,0.2-0.4,0.4C205.7,135.9,205.9,136.1,206.2,136.1z"
	/>
<path class="st0" d="M216.2,114.2c0.2,0,0.4-0.2,0.4-0.4c0-0.2-0.2-0.4-0.4-0.4s-0.4,0.2-0.4,0.4C215.8,114.1,216,114.3,216.2,114.2
	z"/>
<path class="st0" d="M223.2,73.4c0.2,0,0.4-0.2,0.4-0.4c0-0.2-0.2-0.4-0.4-0.4s-0.4,0.2-0.4,0.4C222.7,73.3,222.9,73.5,223.2,73.4z"
	/>
<path class="st0" d="M213.4,162.4c-0.2-0.1-0.5-0.1-0.6,0.1c-0.1,0.2,0,0.4,0.2,0.6c0.2,0.1,0.5,0.1,0.6-0.1
	C213.7,162.7,213.6,162.5,213.4,162.4z"/>
<path class="st0" d="M222.4,181.4c-0.4-0.2-0.9-0.1-1.1,0.2c-0.2,0.4,0,0.8,0.4,1.1c0.4,0.2,0.9,0.1,1.1-0.2
	C222.9,182.1,222.8,181.6,222.4,181.4z"/>
<path class="st0" d="M216.8,114.8c0.3,0,0.6-0.2,0.6-0.5s-0.3-0.5-0.6-0.5s-0.6,0.2-0.6,0.5C216.2,114.5,216.5,114.8,216.8,114.8z"
	/>
<path class="st0" d="M222.2,85.3c0.2,0,0.3-0.1,0.3-0.3c0-0.2-0.1-0.3-0.3-0.3s-0.3,0.1-0.3,0.3C221.9,85.2,222.1,85.3,222.2,85.3z"
	/>
<path class="st0" d="M226.8,103.2c0.2,0,0.3-0.1,0.3-0.3c0-0.2-0.1-0.3-0.3-0.3s-0.3,0.1-0.3,0.3S226.6,103.2,226.8,103.2z"/>
<path class="st0" d="M224.6,134.1c0.2,0,0.3-0.1,0.3-0.3s-0.1-0.3-0.3-0.3s-0.3,0.1-0.3,0.3S224.5,134.1,224.6,134.1z"/>
<path class="st0" d="M219.5,113.4c0.2,0,0.3-0.1,0.3-0.3c0-0.2-0.1-0.3-0.3-0.3s-0.3,0.1-0.3,0.3
	C219.2,113.2,219.3,113.4,219.5,113.4z"/>
<path class="st0" d="M191,138.2c0.2,0,0.3-0.1,0.3-0.3s-0.1-0.3-0.3-0.3s-0.3,0.1-0.3,0.3C190.7,138.1,190.8,138.2,191,138.2z"/>
<path class="st0" d="M208,148.7c0.2,0,0.3-0.1,0.3-0.3s-0.1-0.3-0.3-0.3s-0.3,0.1-0.3,0.3C207.7,148.5,207.8,148.7,208,148.7z"/>
<path class="st0" d="M195.6,168.5c-0.2,0-0.3,0-0.4,0.2c0,0.2,0,0.3,0.2,0.4c0.2,0,0.3,0,0.4-0.2
	C195.8,168.7,195.7,168.6,195.6,168.5z"/>
<path class="st0" d="M221.9,183c0.2,0,0.3-0.1,0.3-0.3s-0.1-0.3-0.3-0.3s-0.3,0.1-0.3,0.3C221.6,182.8,221.8,183,221.9,183z"/>
<path class="st0" d="M79.1,23.8c0.2,0,0.4,0.2,0.4,0.4c0,0.2-0.2,0.4-0.4,0.4c-0.2,0-0.4-0.2-0.4-0.4S78.9,23.8,79.1,23.8z"/>
<path class="st0" d="M83.4,21.5c0.2,0,0.4,0.2,0.4,0.4c0,0.2-0.2,0.4-0.4,0.4c-0.2,0-0.4-0.2-0.4-0.4C83.1,21.7,83.2,21.5,83.4,21.5
	z"/>
<path class="st0" d="M87,24.5c0.2,0,0.4,0.2,0.4,0.4c0,0.2-0.2,0.4-0.4,0.4c-0.2,0-0.4-0.2-0.4-0.4C86.6,24.6,86.8,24.5,87,24.5z"/>
<path class="st0" d="M79.6,26.6c0.1,0,0.2,0.1,0.2,0.2S79.7,27,79.6,27s-0.2-0.1-0.2-0.2S79.4,26.6,79.6,26.6z"/>
<path class="st0" d="M86.8,26.3c0.1,0,0.2,0.1,0.2,0.2s-0.1,0.2-0.2,0.2s-0.2-0.1-0.2-0.2C86.6,26.4,86.7,26.3,86.8,26.3z"/>
<path class="st0" d="M89.7,23.9c0.1,0,0.2,0.1,0.2,0.2s-0.1,0.2-0.2,0.2s-0.2-0.1-0.2-0.2S89.6,23.9,89.7,23.9z"/>
<path class="st0" d="M87.6,22.2c0.1,0,0.2,0.1,0.2,0.2s-0.1,0.2-0.2,0.2s-0.2-0.1-0.2-0.2C87.4,22.3,87.5,22.2,87.6,22.2z"/>
<path class="st0" d="M85.9,23.5c0.1,0,0.2,0.1,0.2,0.2s-0.1,0.2-0.2,0.2s-0.2-0.1-0.2-0.2C85.7,23.6,85.8,23.5,85.9,23.5z"/>
<path class="st0" d="M84.3,24.6c0.1,0,0.2,0.1,0.2,0.2S84.4,25,84.3,25s-0.2-0.1-0.2-0.2C84.1,24.7,84.2,24.6,84.3,24.6z"/>
<path class="st0" d="M80.8,23.2c0.1,0,0.2,0.1,0.2,0.2s-0.1,0.2-0.2,0.2s-0.2-0.1-0.2-0.2C80.6,23.2,80.7,23.2,80.8,23.2z"/>
<path class="st0" d="M83.1,27.5c0.1,0,0.2,0.1,0.2,0.2s-0.1,0.2-0.2,0.2s-0.2-0.1-0.2-0.2S83,27.5,83.1,27.5z"/>
<path class="st0" d="M89.7,19c0.1,0,0.2,0.1,0.2,0.2s-0.1,0.2-0.2,0.2s-0.2-0.1-0.2-0.2S89.6,19,89.7,19z"/>
<path class="st0" d="M87,19.4c0.1,0,0.2,0.1,0.2,0.2s-0.1,0.2-0.2,0.2s-0.2-0.1-0.2-0.2S86.9,19.4,87,19.4z"/>
<path class="st0" d="M84.1,18.8c0.1,0,0.2,0.1,0.2,0.2s-0.1,0.2-0.2,0.2s-0.2-0.1-0.2-0.2C83.9,18.8,84,18.8,84.1,18.8z"/>
<path class="st0" d="M157.3,127.8c0.3,0,0.6,0.2,0.6,0.4c0,0.3-0.2,0.5-0.6,0.5c-0.3,0-0.6-0.2-0.6-0.4
	C156.7,128,157,127.8,157.3,127.8z"/>
<path class="st0" d="M189.5,162.5c0.2,0,0.4,0.2,0.4,0.4s-0.2,0.4-0.4,0.4s-0.4-0.2-0.4-0.4C189.1,162.6,189.2,162.5,189.5,162.5z"
	/>
<path class="st0" d="M161.3,144.9c0.2,0,0.3,0.1,0.3,0.2c0,0.1-0.1,0.2-0.3,0.3c-0.2,0-0.3-0.1-0.3-0.2
	C161,145,161.1,144.9,161.3,144.9z"/>
<path class="st0" d="M88.6,59.7c0.2,0,0.3,0.1,0.3,0.2c0,0.1-0.1,0.2-0.3,0.3c-0.2,0-0.3-0.1-0.3-0.2C88.3,59.9,88.4,59.7,88.6,59.7
	z"/>
<path class="st0" d="M81.7,56.9c0.2,0,0.3,0.1,0.3,0.2c0,0.1-0.1,0.2-0.3,0.3c-0.2,0-0.3-0.1-0.3-0.2C81.4,57,81.5,56.9,81.7,56.9z"
	/>
<path class="st0" d="M96.2,73.5c0.2,0,0.3,0.1,0.3,0.2s-0.1,0.2-0.3,0.3c-0.2,0-0.3-0.1-0.3-0.2C96,73.6,96.1,73.5,96.2,73.5z"/>
<path class="st0" d="M107.3,34.5c0.3,0,0.6,0.2,0.6,0.4c0,0.3-0.2,0.5-0.6,0.5c-0.3,0-0.6-0.2-0.6-0.4
	C106.7,34.7,107,34.5,107.3,34.5z"/>
<path class="st0" d="M106.2,40.1c0.2,0,0.3,0.1,0.3,0.2c0,0.1-0.1,0.3-0.3,0.3c-0.2,0-0.3-0.1-0.3-0.2
	C105.9,40.2,106,40.1,106.2,40.1z"/>
<path class="st0" d="M103.6,37.9c0.2,0,0.3,0.1,0.3,0.2c0,0.1-0.1,0.2-0.3,0.3c-0.2,0-0.3-0.1-0.3-0.2
	C103.4,38,103.5,37.9,103.6,37.9z"/>
<path class="st0" d="M96.7,35c0.2,0,0.3,0.1,0.3,0.2c0,0.1-0.1,0.2-0.3,0.3c-0.2,0-0.3-0.1-0.3-0.2C96.5,35.1,96.6,35,96.7,35z"/>
<path class="st0" d="M111.3,51.6c0.2,0,0.3,0.1,0.3,0.2c0,0.1-0.1,0.3-0.3,0.3c-0.2,0-0.3-0.1-0.3-0.2
	C111,51.7,111.1,51.6,111.3,51.6z"/>
<path class="st0" d="M147.8,41.6c0,0.3-0.2,0.6-0.5,0.6s-0.5-0.3-0.5-0.6s0.2-0.6,0.5-0.6C147.6,41.1,147.8,41.3,147.8,41.6z"/>
<path class="st0" d="M139.8,57.7c0.2,0,0.3,0.1,0.3,0.3c0,0.1-0.1,0.2-0.3,0.2s-0.3-0.1-0.3-0.3C139.5,57.8,139.6,57.7,139.8,57.7z"
	/>
<path class="st0" d="M137.4,55.3c0.2,0,0.3,0.1,0.3,0.3c0,0.1-0.1,0.2-0.3,0.2s-0.3-0.1-0.3-0.3C137.1,55.4,137.2,55.2,137.4,55.3z"
	/>
<path class="st0" d="M130.7,51.9c0.2,0,0.3,0.1,0.3,0.3c0,0.1-0.1,0.2-0.3,0.2s-0.3-0.1-0.3-0.3C130.4,52,130.5,51.9,130.7,51.9z"/>
<path class="st0" d="M150.9,80.7c-0.2,0-0.3,0-0.3-0.2c0-0.1,0.1-0.3,0.2-0.3c0.2,0,0.3,0,0.3,0.2C151.1,80.5,151,80.6,150.9,80.7z"
	/>
<path class="st0" d="M170.7,22c0.2,0,0.3,0.1,0.3,0.3c0,0.1-0.1,0.2-0.3,0.2s-0.3-0.1-0.3-0.3C170.4,22.1,170.6,22,170.7,22z"/>
<path class="st0" d="M130.7,26.4c0.2,0,0.3,0.1,0.3,0.3c0,0.1-0.1,0.2-0.3,0.2s-0.3-0.1-0.3-0.3C130.4,26.5,130.5,26.4,130.7,26.4z"
	/>
<path class="st0" d="M143.6,41.1c0,0-0.1,0.2-0.1,0.4s0,0.4,0.1,0.4c0,0,0.1-0.2,0.1-0.5C143.7,41.3,143.6,41.1,143.6,41.1z"/>
<path class="st0" d="M137.2,79.2c0.5,0,0.9,0.3,0.8,0.7c0,0.4-0.4,0.7-0.9,0.7s-0.9-0.4-0.8-0.7C136.3,79.4,136.7,79.1,137.2,79.2z"
	/>
<path class="st0" d="M134.9,87.6c0.2,0,0.4,0.2,0.4,0.4c0,0.2-0.2,0.4-0.4,0.4s-0.4-0.2-0.4-0.4C134.5,87.7,134.7,87.6,134.9,87.6z"
	/>
<path class="st0" d="M131.3,83.9c0.2,0,0.4,0.2,0.4,0.4c0,0.2-0.2,0.4-0.4,0.4s-0.4-0.2-0.4-0.4C130.8,84,131,83.9,131.3,83.9z"/>
<path class="st0" d="M102,73.5c0.2,0,0.3,0.1,0.3,0.3c0,0.1-0.1,0.2-0.3,0.2c-0.2,0-0.3-0.1-0.3-0.3C101.7,73.6,101.8,73.5,102,73.5
	z"/>
<path class="st0" d="M141.4,105.7c0.2,0,0.4,0.2,0.4,0.4c0,0.2-0.2,0.4-0.4,0.4s-0.4-0.2-0.4-0.4
	C140.9,105.9,141.1,105.7,141.4,105.7z"/>
<path class="st0" d="M154.2,141.8c0.5,0,0.9,0.3,0.8,0.7c0,0.4-0.4,0.7-0.9,0.7s-0.9-0.4-0.8-0.7
	C153.3,142.1,153.7,141.8,154.2,141.8z"/>
<path class="st0" d="M151.9,150.2c0.2,0,0.4,0.2,0.4,0.4s-0.2,0.4-0.4,0.4s-0.4-0.2-0.4-0.4S151.7,150.2,151.9,150.2z"/>
<path class="st0" d="M148.3,146.5c0.2,0,0.4,0.2,0.4,0.4s-0.2,0.4-0.4,0.4s-0.4-0.2-0.4-0.4C147.8,146.7,148,146.5,148.3,146.5z"/>
<path class="st0" d="M138.1,141.4c0.2,0,0.4,0.2,0.4,0.4s-0.2,0.4-0.4,0.4s-0.4-0.2-0.4-0.4C137.6,141.5,137.8,141.4,138.1,141.4z"
	/>
<path class="st0" d="M158.4,168.4c0.2,0,0.4,0.2,0.4,0.4s-0.2,0.4-0.4,0.4s-0.4-0.2-0.4-0.4C157.9,168.5,158.1,168.4,158.4,168.4z"
	/>
<path class="st0" d="M173.4,116.2c-0.1,0.1-0.3,0-0.4-0.1c-0.1-0.1,0-0.3,0.1-0.4s0.3,0,0.4,0.1
	C173.5,115.9,173.5,116.1,173.4,116.2z"/>
<path class="st0" d="M180.8,115.5c-0.1,0.1-0.3,0-0.4-0.1c-0.1-0.1,0-0.3,0.1-0.4s0.3,0,0.4,0.1C181,115.3,180.9,115.4,180.8,115.5z
	"/>
<path class="st0" d="M173.3,81.1c-0.3,0.2-0.6,0.1-0.7-0.1c-0.1-0.2,0-0.5,0.3-0.7s0.6-0.1,0.7,0.1C173.7,80.7,173.6,81,173.3,81.1z
	"/>
<path class="st0" d="M171.7,75.7c-0.1,0.1-0.3,0-0.4-0.1c-0.1-0.1,0-0.3,0.1-0.4s0.3,0,0.4,0.1C171.9,75.4,171.8,75.6,171.7,75.7z"
	/>
<path class="st0" d="M182.7,110.3c-0.1,0.1-0.3,0-0.4-0.1c-0.1-0.1,0-0.3,0.1-0.4s0.3,0,0.4,0.1
	C182.8,110.1,182.8,110.3,182.7,110.3z"/>
<path class="st0" d="M123.5,68c-0.1,0.1-0.3,0-0.4-0.1s0-0.3,0.1-0.4s0.3,0,0.4,0.1C123.7,67.8,123.6,67.9,123.5,68z"/>
<path class="st0" d="M126.8,68.9c-0.1,0.1-0.3,0-0.4-0.1s0-0.3,0.1-0.4s0.3,0,0.4,0.1C127,68.7,126.9,68.8,126.8,68.9z"/>
<path class="st0" d="M134.3,68.3c-0.1,0.1-0.3,0-0.4-0.1c-0.1-0.1,0-0.3,0.1-0.4s0.3,0,0.4,0.1C134.5,68.1,134.5,68.3,134.3,68.3z"
	/>
<path class="st0" d="M113.4,59.7c-0.1,0.1-0.3,0-0.4-0.1s0-0.3,0.1-0.4c0.1-0.1,0.3,0,0.4,0.1C113.6,59.5,113.5,59.7,113.4,59.7z"/>
<path class="st0" d="M161,55.1c-0.3,0.2-0.6,0.1-0.7-0.1c-0.1-0.2,0-0.5,0.3-0.7s0.6-0.1,0.7,0.1C161.4,54.6,161.3,54.9,161,55.1z"
	/>
<path class="st0" d="M151.4,59.6c-0.1-0.1-0.1-0.3,0.1-0.4c0.1-0.1,0.3,0,0.4,0.1c0.1,0.1,0.1,0.3-0.1,0.4
	C151.6,59.7,151.4,59.7,151.4,59.6z"/>
<path class="st0" d="M163.7,85.2c-0.1,0.1-0.3,0-0.4-0.1c-0.1-0.1,0-0.3,0.1-0.4s0.3,0,0.4,0.1C163.9,84.9,163.8,85.1,163.7,85.2z"
	/>
<path class="st0" d="M170.1,49.8c-0.1,0.1-0.3,0-0.4-0.1c-0.1-0.1,0-0.3,0.1-0.4c0.1-0.1,0.3,0,0.4,0.1
	C170.3,49.5,170.2,49.7,170.1,49.8z"/>
<path class="st0" d="M149.2,41.1c-0.1,0.1-0.3,0-0.4-0.1c-0.1-0.1,0-0.3,0.1-0.4c0.1-0.1,0.3,0,0.4,0.1
	C149.4,40.9,149.3,41.1,149.2,41.1z"/>
<path class="st0" d="M119.3,47.3c-0.3,0.2-0.6,0.1-0.7-0.1c-0.1-0.2,0-0.5,0.3-0.7s0.6-0.1,0.7,0.1
	C119.7,46.8,119.5,47.1,119.3,47.3z"/>
<path class="st0" d="M117.5,41.6c-0.1,0.1-0.3,0-0.4-0.1s0-0.3,0.1-0.4c0.1-0.1,0.3,0,0.4,0.1C117.7,41.4,117.7,41.5,117.5,41.6z"/>
<path class="st0" d="M120.9,42.5c-0.1,0.1-0.3,0-0.4-0.1s0-0.3,0.1-0.4c0.1-0.1,0.3,0,0.4,0.1C121.1,42.3,121,42.4,120.9,42.5z"/>
<path class="st0" d="M128.4,41.9c-0.1,0.1-0.3,0-0.4-0.1s0-0.3,0.1-0.4c0.1-0.1,0.3,0,0.4,0.1C128.6,41.7,128.5,41.9,128.4,41.9z"/>
<path class="st0" d="M107.5,33.3c-0.1,0.1-0.3,0-0.4-0.1s0-0.3,0.1-0.4c0.1-0.1,0.3,0,0.4,0.1C107.7,33.1,107.6,33.3,107.5,33.3z"/>
<path class="st0" d="M183.7,112.3c0.3,0,0.6,0.2,0.6,0.5s-0.3,0.5-0.6,0.5s-0.6-0.2-0.6-0.5C183.1,112.5,183.4,112.3,183.7,112.3z"
	/>
<path class="st0" d="M179.1,116.3c0.3,0,0.6,0.2,0.6,0.5s-0.3,0.5-0.6,0.5s-0.6-0.2-0.6-0.5C178.6,116.6,178.8,116.3,179.1,116.3z"
	/>
<path class="st0" d="M141.9,105.2c0.3,0,0.6,0.2,0.6,0.5s-0.3,0.5-0.6,0.5s-0.6-0.2-0.6-0.5C141.4,105.4,141.6,105.2,141.9,105.2z"
	/>
<path class="st0" d="M177,89.6c0.3,0,0.6,0.2,0.6,0.5s-0.3,0.5-0.6,0.5s-0.6-0.2-0.6-0.5C176.4,89.8,176.6,89.6,177,89.6z"/>
<path class="st0" d="M148.4,70.5c-0.2,0.1-0.4,0-0.5-0.2s0.1-0.4,0.3-0.5s0.4,0,0.5,0.2S148.6,70.4,148.4,70.5z"/>
<path class="st0" d="M149,74.8c-0.2,0.1-0.4,0-0.5-0.2s0.1-0.4,0.3-0.5s0.4,0,0.5,0.2C149.3,74.6,149.2,74.8,149,74.8z"/>
<path class="st0" d="M185.9,95.6c0.2,0,0.4,0.2,0.4,0.4c0,0.2-0.2,0.4-0.4,0.4s-0.4-0.2-0.4-0.4C185.5,95.8,185.7,95.6,185.9,95.6z"
	/>
<path class="st0" d="M169.9,171.4c0.3,0,0.6,0.2,0.6,0.5s-0.3,0.5-0.6,0.5s-0.6-0.2-0.6-0.5C169.3,171.6,169.6,171.4,169.9,171.4z"
	/>
<path class="st0" d="M191.2,134.8c0.3,0,0.6,0.2,0.6,0.5s-0.3,0.5-0.6,0.5s-0.6-0.2-0.6-0.5C190.6,135.1,190.9,134.8,191.2,134.8z"
	/>
<path class="st0" d="M174.9,133.7c0.2,0,0.3,0.1,0.3,0.3s-0.1,0.3-0.3,0.3s-0.3-0.1-0.3-0.3C174.6,133.8,174.7,133.7,174.9,133.7z"
	/>
<path class="st0" d="M176,171.6c0.2,0,0.3,0.1,0.3,0.3s-0.1,0.3-0.3,0.3s-0.3-0.1-0.3-0.3C175.7,171.7,175.9,171.6,176,171.6z"/>
<path class="st0" d="M165.4,140.3c0.2,0,0.3,0.1,0.3,0.3s-0.1,0.3-0.3,0.3s-0.3-0.1-0.3-0.3C165.1,140.4,165.2,140.3,165.4,140.3z"
	/>
<path class="st0" d="M160.8,171.9c0.2,0,0.3,0.1,0.3,0.3s-0.1,0.3-0.3,0.3s-0.3-0.1-0.3-0.3S160.6,171.9,160.8,171.9z"/>
<path class="st0" d="M172.3,93.8c0.1,0,0.2,0.1,0.2,0.2s-0.1,0.2-0.2,0.2c-0.1,0-0.2-0.1-0.2-0.2C172.1,93.8,172.2,93.8,172.3,93.8z
	"/>
<path class="st0" d="M147.3,134.7c0.2,0,0.3,0.1,0.3,0.3s-0.1,0.3-0.3,0.3s-0.3-0.1-0.3-0.3S147.2,134.7,147.3,134.7z"/>
<path class="st0" d="M186.3,122.6c0.2,0,0.3,0.1,0.3,0.3c0,0.2-0.1,0.3-0.3,0.3s-0.3-0.1-0.3-0.3S186.2,122.6,186.3,122.6z"/>
<circle class="st0" cx="167" cy="76.7" r="0.2"/>
<path class="st0" d="M181.9,121.6c0.2,0,0.3,0.1,0.3,0.3c0,0.2-0.1,0.3-0.3,0.3s-0.3-0.1-0.3-0.3
	C181.6,121.8,181.7,121.6,181.9,121.6z"/>
<path class="st0" d="M183.7,100.1c0.1,0,0.2,0.1,0.2,0.2s-0.1,0.2-0.2,0.2c-0.1,0-0.2-0.1-0.2-0.2S183.6,100.1,183.7,100.1z"/>
<path class="st0" d="M191,108.2c0.2,0,0.3,0.1,0.3,0.3c0,0.2-0.1,0.3-0.3,0.3s-0.3-0.1-0.3-0.3C190.7,108.4,190.8,108.2,191,108.2z"
	/>
<path class="st0" d="M183.8,101.4c0.2,0,0.3,0.1,0.3,0.3s-0.1,0.3-0.3,0.3s-0.3-0.1-0.3-0.3S183.6,101.4,183.8,101.4z"/>
<path class="st0" d="M185.3,98.4c0.2,0,0.3,0.1,0.3,0.3c0,0.2-0.1,0.3-0.3,0.3s-0.3-0.1-0.3-0.3C185,98.6,185.1,98.4,185.3,98.4z"/>
<path class="st0" d="M159.8,90c0.1,0,0.2,0.1,0.2,0.2s-0.1,0.2-0.2,0.2c-0.1,0-0.2-0.1-0.2-0.2S159.7,90,159.8,90z"/>
<path class="st0" d="M175.9,119.5c0.2,0,0.3,0.1,0.3,0.3c0,0.2-0.1,0.3-0.3,0.3s-0.3-0.1-0.3-0.3
	C175.7,119.6,175.8,119.5,175.9,119.5z"/>
<path class="st0" d="M175.9,114c0.2,0,0.3,0.1,0.3,0.3c0,0.2-0.1,0.3-0.3,0.3s-0.3-0.1-0.3-0.3C175.7,114.1,175.8,114,175.9,114z"/>
<path class="st0" d="M179.3,111c0.2,0,0.3,0.1,0.3,0.3c0,0.2-0.1,0.3-0.3,0.3s-0.3-0.1-0.3-0.3S179.2,111,179.3,111z"/>
<path class="st0" d="M177.3,94.2c0.2,0,0.3,0.1,0.3,0.3c0,0.2-0.1,0.3-0.3,0.3s-0.3-0.1-0.3-0.3C177,94.4,177.1,94.2,177.3,94.2z"/>
<path class="st0" d="M98.8,75.5c0.1,0,0.2,0.1,0.2,0.2s-0.1,0.2-0.2,0.2s-0.2-0.1-0.2-0.2C98.6,75.6,98.7,75.5,98.8,75.5z"/>
<circle class="st0" cx="181.3" cy="94.6" r="0.3"/>
<path class="st0" d="M185.9,94.2c0.2,0,0.3,0.1,0.3,0.3c0,0.2-0.1,0.3-0.3,0.3s-0.3-0.1-0.3-0.3C185.6,94.3,185.8,94.2,185.9,94.2z"
	/>
<path class="st0" d="M147.6,69.3c-0.1,0-0.2,0-0.2-0.1s0-0.2,0.1-0.2s0.2,0,0.2,0.1C147.8,69.1,147.7,69.2,147.6,69.3z"/>
<path class="st0" d="M149.4,72.1c-0.1,0-0.2,0-0.2-0.1s0-0.2,0.1-0.2s0.2,0,0.2,0.1C149.5,71.9,149.5,72,149.4,72.1z"/>
<path class="st0" d="M190.6,78.3c-0.2,0-0.3,0-0.4-0.2c0-0.2,0-0.3,0.2-0.4c0.2,0,0.3,0,0.4,0.2C190.8,78.1,190.7,78.3,190.6,78.3z"
	/>
<path class="st0" d="M101.8,55.7c-0.1,0-0.2,0-0.2-0.1s0-0.2,0.1-0.2s0.2,0,0.2,0.1S101.9,55.7,101.8,55.7z"/>
<path class="st0" d="M190.1,94.2c0.2,0,0.3,0.1,0.3,0.3c0,0.2-0.1,0.3-0.3,0.3s-0.3-0.1-0.3-0.3C189.9,94.3,190,94.2,190.1,94.2z"/>
<path class="st0" d="M124.1,51.3c0.2,0,0.4,0.2,0.4,0.4s-0.2,0.4-0.4,0.4c-0.2,0-0.4-0.2-0.4-0.4C123.7,51.4,123.9,51.3,124.1,51.3z
	"/>
<path class="st0" d="M137.1,47.2c0.2,0,0.4,0.2,0.4,0.4s-0.2,0.4-0.4,0.4s-0.4-0.2-0.4-0.4C136.7,47.4,136.9,47.2,137.1,47.2z"/>
<path class="st0" d="M133.5,56.5c0.2,0,0.4,0.2,0.4,0.4s-0.2,0.4-0.4,0.4s-0.4-0.2-0.4-0.4C133.1,56.6,133.3,56.5,133.5,56.5z"/>
<path class="st0" d="M180.1,68c0.2,0,0.4,0.2,0.4,0.4c0,0.2-0.2,0.4-0.4,0.4s-0.4-0.2-0.4-0.4C179.7,68.2,179.9,68,180.1,68z"/>
<ellipse class="st0" cx="158.8" cy="43.4" rx="0.4" ry="0.4"/>
<path class="st0" d="M148.9,21.4c0.2,0,0.4,0.2,0.4,0.4c0,0.2-0.2,0.4-0.4,0.4s-0.4-0.2-0.4-0.4S148.7,21.4,148.9,21.4z"/>
<path class="st0" d="M162.2,31c0.2,0,0.4,0.2,0.4,0.4s-0.2,0.4-0.4,0.4s-0.4-0.2-0.4-0.4S162,31,162.2,31z"/>
<path class="st0" d="M163.1,26.7c0.2,0,0.4,0.2,0.4,0.4c0,0.2-0.2,0.4-0.4,0.4s-0.4-0.2-0.4-0.4C162.7,26.9,162.9,26.7,163.1,26.7z"
	/>
<path class="st0" d="M144.1,61.2c0.2,0,0.4,0.2,0.4,0.4s-0.2,0.4-0.4,0.4s-0.4-0.2-0.4-0.4C143.7,61.4,143.9,61.2,144.1,61.2z"/>
<path class="st0" d="M166.9,61.2c0.2,0,0.4,0.2,0.4,0.4s-0.2,0.4-0.4,0.4s-0.4-0.2-0.4-0.4C166.6,61.4,166.7,61.2,166.9,61.2z"/>
<path class="st0" d="M166.7,51.4c0.2,0,0.4,0.2,0.4,0.4s-0.2,0.4-0.4,0.4s-0.4-0.2-0.4-0.4C166.3,51.5,166.4,51.4,166.7,51.4z"/>
<path class="st0" d="M182.6,66.8c0.2,0,0.4,0.2,0.4,0.4c0,0.2-0.2,0.4-0.4,0.4s-0.4-0.2-0.4-0.4C182.2,67,182.3,66.8,182.6,66.8z"/>
<circle class="st0" cx="168.2" cy="61.2" r="0.2"/>
<path class="st0" d="M169.4,59.7c0.1,0,0.2,0.1,0.2,0.2c0,0.1-0.1,0.2-0.2,0.2c-0.1,0-0.2-0.1-0.2-0.2S169.3,59.7,169.4,59.7z"/>
<path class="st0" d="M189.1,84c-0.2,0.1-0.3,0-0.4-0.2c0-0.2,0-0.3,0.2-0.4c0.2,0,0.3,0,0.4,0.2C189.3,83.8,189.2,84,189.1,84z"/>
<path class="st0" d="M184.3,49.2c0.1,0,0.2,0.1,0.2,0.2c0,0.1-0.1,0.2-0.2,0.2c-0.1,0-0.2-0.1-0.2-0.2
	C184.1,49.2,184.2,49.2,184.3,49.2z"/>
<circle class="st0" cx="168.1" cy="53.4" r="0.2"/>
<path class="st0" d="M163.7,53.3c0.1,0,0.2,0.1,0.2,0.2c0,0.1-0.1,0.2-0.2,0.2c-0.1,0-0.2-0.1-0.2-0.2
	C163.6,53.3,163.6,53.3,163.7,53.3z"/>
<path class="st0" d="M182,55.9c0.1,0,0.2,0.1,0.2,0.2c0,0.1-0.1,0.2-0.2,0.2c-0.1,0-0.2-0.1-0.2-0.2S181.9,55.9,182,55.9z"/>
<path class="st0" d="M119,46.3c0.1,0,0.2,0.1,0.2,0.2c0,0.1-0.1,0.2-0.2,0.2s-0.2-0.1-0.2-0.2C118.8,46.3,118.9,46.3,119,46.3z"/>
<path class="st0" d="M149.7,81.7c0.1,0,0.2,0.1,0.2,0.2s-0.1,0.2-0.2,0.2c-0.1,0-0.2-0.1-0.2-0.2C149.5,81.8,149.6,81.7,149.7,81.7z
	"/>
<path class="st0" d="M145.1,55.6c0.1,0,0.2,0.1,0.2,0.2c0,0.1-0.1,0.2-0.2,0.2c-0.1,0-0.2-0.1-0.2-0.2
	C144.9,55.6,145,55.6,145.1,55.6z"/>
<path class="st0" d="M138.8,40.7c0.1,0,0.2,0.1,0.2,0.2c0,0.1-0.1,0.2-0.2,0.2c-0.1,0-0.2-0.1-0.2-0.2S138.7,40.7,138.8,40.7z"/>
<path class="st0" d="M177.7,48.3c0.1,0,0.2,0.1,0.2,0.2c0,0.1-0.1,0.2-0.2,0.2c-0.1,0-0.2-0.1-0.2-0.2
	C177.5,48.4,177.6,48.3,177.7,48.3z"/>
<path class="st0" d="M181.8,55.7c0.1,0,0.2,0.1,0.2,0.2c0,0.1-0.1,0.2-0.2,0.2c-0.1,0-0.2-0.1-0.2-0.2S181.7,55.7,181.8,55.7z"/>
<path class="st0" d="M120.4,41.9c0.1,0,0.2,0.1,0.2,0.2c0,0.1-0.1,0.2-0.2,0.2s-0.2-0.1-0.2-0.2C120.2,41.9,120.3,41.9,120.4,41.9z"
	/>
<path class="st0" d="M148.3,37c0-0.1,0.1-0.2,0.2-0.2c0.1,0,0.2,0.1,0.2,0.2c0,0.1-0.1,0.2-0.2,0.2C148.5,37.2,148.4,37.1,148.3,37z
	"/>
<path class="st0" d="M149.4,57.3c0,0.1-0.1,0.2-0.2,0.2c-0.1,0-0.2-0.1-0.2-0.2c0-0.1,0.1-0.2,0.2-0.2
	C149.4,57.2,149.4,57.2,149.4,57.3z"/>
<path class="st0" d="M153,57.2c0,0.1-0.1,0.2-0.2,0.2c-0.1,0-0.2-0.1-0.2-0.2c0-0.1,0.1-0.2,0.2-0.2C153,57,153,57.1,153,57.2z"/>
<path class="st0" d="M140,43.9c0,0,0,0.2,0,0.3c0,0.2,0,0.3,0,0.3s0-0.2,0-0.3C140,44,140,43.9,140,43.9z"/>
<path class="st0" d="M157,42.5c0.1,0,0.2,0.1,0.2,0.2c0,0.1-0.1,0.2-0.2,0.2c-0.1,0-0.2-0.1-0.2-0.2S156.8,42.5,157,42.5z"/>
<path class="st0" d="M156.8,40.2c0.1,0,0.2,0.1,0.2,0.2c0,0.1-0.1,0.2-0.2,0.2c-0.1,0-0.2-0.1-0.2-0.2S156.7,40.2,156.8,40.2z"/>
<path class="st0" d="M157.6,38c0.1,0,0.2,0.1,0.2,0.2c0,0.1-0.1,0.2-0.2,0.2c-0.1,0-0.2-0.1-0.2-0.2C157.5,38.1,157.5,38,157.6,38z"
	/>
<path class="st0" d="M157.8,34.7c0.1,0,0.2,0.1,0.2,0.2c0,0.1-0.1,0.2-0.2,0.2s-0.2-0.1-0.2-0.2S157.7,34.7,157.8,34.7z"/>
<path class="st0" d="M156.4,28c0.1,0,0.2,0.1,0.2,0.2s-0.1,0.2-0.2,0.2c-0.1,0-0.2-0.1-0.2-0.2S156.3,28,156.4,28z"/>
<path class="st0" d="M157.8,26.2c0.1,0,0.2,0.1,0.2,0.2s-0.1,0.2-0.2,0.2c-0.1,0-0.2-0.1-0.2-0.2C157.6,26.3,157.7,26.2,157.8,26.2z
	"/>
<path class="st0" d="M134.5,21.8c0.1,0,0.2,0.1,0.2,0.2s-0.1,0.2-0.2,0.2c-0.1,0-0.2-0.1-0.2-0.2S134.4,21.8,134.5,21.8z"/>
<path class="st0" d="M161.8,29.2c0.1,0,0.2,0.1,0.2,0.2s-0.1,0.2-0.2,0.2c-0.1,0-0.2-0.1-0.2-0.2C161.6,29.3,161.7,29.2,161.8,29.2z
	"/>
<path class="st0" d="M110.7,19.1c0.2,0,0.4,0.2,0.4,0.4c0,0.2-0.2,0.4-0.4,0.4c-0.2,0-0.4-0.2-0.4-0.4
	C110.3,19.3,110.5,19.1,110.7,19.1z"/>
<path class="st0" d="M111.6,14.8c0.2,0,0.4,0.2,0.4,0.4s-0.2,0.4-0.4,0.4c-0.2,0-0.4-0.2-0.4-0.4S111.4,14.8,111.6,14.8z"/>
<path class="st0" d="M120.5,25c0.1,0,0.2,0.1,0.2,0.2s-0.1,0.2-0.2,0.2s-0.2-0.1-0.2-0.2S120.4,25,120.5,25z"/>
<path class="st0" d="M99.7,29.2c0.1,0,0.2,0.1,0.2,0.2s-0.1,0.2-0.2,0.2s-0.2-0.1-0.2-0.2C99.5,29.3,99.6,29.2,99.7,29.2z"/>
<path class="st0" d="M111.2,20.5c0.1,0,0.2,0.1,0.2,0.2s-0.1,0.2-0.2,0.2s-0.2-0.1-0.2-0.2S111,20.5,111.2,20.5z"/>
<path class="st0" d="M112.5,18c0.1,0,0.2,0.1,0.2,0.2s-0.1,0.2-0.2,0.2s-0.2-0.1-0.2-0.2S112.4,18,112.5,18z"/>
<path class="st0" d="M112.5,16.8c0.1,0,0.2,0.1,0.2,0.2s-0.1,0.2-0.2,0.2s-0.2-0.1-0.2-0.2S112.4,16.8,112.5,16.8z"/>
<path class="st0" d="M98.9,27.4c0.1,0,0.2,0.1,0.2,0.2s-0.1,0.2-0.2,0.2s-0.2-0.1-0.2-0.2C98.7,27.5,98.8,27.4,98.9,27.4z"/>
<path class="st0" d="M117.9,17.9c0.1,0,0.2,0.1,0.2,0.2s-0.1,0.2-0.2,0.2s-0.2-0.1-0.2-0.2C117.8,18,117.8,17.9,117.9,17.9z"/>
<path class="st0" d="M118.1,15c0.1,0,0.2,0.1,0.2,0.2c0,0.1-0.1,0.2-0.2,0.2s-0.2-0.1-0.2-0.2C117.9,15,118,15,118.1,15z"/>
<path class="st0" d="M114.8,20.1c0.1,0,0.2,0.1,0.2,0.2s-0.1,0.2-0.2,0.2s-0.2-0.1-0.2-0.2C114.6,20.2,114.7,20.1,114.8,20.1z"/>
<path class="st0" d="M139.9,17c0.2,0,0.4,0.2,0.4,0.4c0,0.2-0.2,0.4-0.4,0.4s-0.4-0.2-0.4-0.4C139.6,17.2,139.7,17,139.9,17z"/>
<path class="st0" d="M140.8,12.7c0.2,0,0.4,0.2,0.4,0.4s-0.2,0.4-0.4,0.4s-0.4-0.2-0.4-0.4C140.4,12.9,140.6,12.7,140.8,12.7z"/>
<path class="st0" d="M128.9,27.1c0.1,0,0.2,0.1,0.2,0.2s-0.1,0.2-0.2,0.2c-0.1,0-0.2-0.1-0.2-0.2S128.8,27.1,128.9,27.1z"/>
<circle class="st0" cx="140.4" cy="18.6" r="0.2"/>
<path class="st0" d="M141.7,15.9c0.1,0,0.2,0.1,0.2,0.2s-0.1,0.2-0.2,0.2c-0.1,0-0.2-0.1-0.2-0.2C141.6,16,141.6,15.9,141.7,15.9z"
	/>
<path class="st0" d="M141.7,14.7c0.1,0,0.2,0.1,0.2,0.2c0,0.1-0.1,0.2-0.2,0.2c-0.1,0-0.2-0.1-0.2-0.2
	C141.6,14.8,141.6,14.7,141.7,14.7z"/>
<path class="st0" d="M128.1,25.3c0.1,0,0.2,0.1,0.2,0.2s-0.1,0.2-0.2,0.2c-0.1,0-0.2-0.1-0.2-0.2S128,25.3,128.1,25.3z"/>
<path class="st0" d="M147.2,15.8c0.1,0,0.2,0.1,0.2,0.2c0,0.1-0.1,0.2-0.2,0.2c-0.1,0-0.2-0.1-0.2-0.2S147.1,15.8,147.2,15.8z"/>
<path class="st0" d="M147.3,12.9c0.1,0,0.2,0.1,0.2,0.2c0,0.1-0.1,0.2-0.2,0.2c-0.1,0-0.2-0.1-0.2-0.2
	C147.1,12.9,147.2,12.9,147.3,12.9z"/>
<path class="st0" d="M144,18c0.1,0,0.2,0.1,0.2,0.2s-0.1,0.2-0.2,0.2c-0.1,0-0.2-0.1-0.2-0.2S143.9,18,144,18z"/>
<path class="st0" d="M185.1,19.4c0.2,0,0.4,0.2,0.4,0.4c0,0.2-0.2,0.4-0.4,0.4s-0.4-0.2-0.4-0.4C184.8,19.5,184.9,19.4,185.1,19.4z"
	/>
<path class="st0" d="M186,15.1c0.2,0,0.4,0.2,0.4,0.4s-0.2,0.4-0.4,0.4s-0.4-0.2-0.4-0.4C185.6,15.2,185.8,15.1,186,15.1z"/>
<path class="st0" d="M194.9,25.3c0.1,0,0.2,0.1,0.2,0.2s-0.1,0.2-0.2,0.2c-0.1,0-0.2-0.1-0.2-0.2S194.8,25.3,194.9,25.3z"/>
<path class="st0" d="M185.6,20.8c0.1,0,0.2,0.1,0.2,0.2s-0.1,0.2-0.2,0.2c-0.1,0-0.2-0.1-0.2-0.2C185.4,20.9,185.5,20.8,185.6,20.8z
	"/>
<path class="st0" d="M186.9,18.3c0.1,0,0.2,0.1,0.2,0.2s-0.1,0.2-0.2,0.2c-0.1,0-0.2-0.1-0.2-0.2C186.8,18.4,186.8,18.3,186.9,18.3z
	"/>
<path class="st0" d="M186.9,17c0.1,0,0.2,0.1,0.2,0.2s-0.1,0.2-0.2,0.2c-0.1,0-0.2-0.1-0.2-0.2C186.8,17.1,186.8,17,186.9,17z"/>
<path class="st0" d="M192.4,18.1c0.1,0,0.2,0.1,0.2,0.2s-0.1,0.2-0.2,0.2c-0.1,0-0.2-0.1-0.2-0.2S192.3,18.1,192.4,18.1z"/>
<path class="st0" d="M192.5,15.2c0.1,0,0.2,0.1,0.2,0.2c0,0.1-0.1,0.2-0.2,0.2c-0.1,0-0.2-0.1-0.2-0.2S192.4,15.2,192.5,15.2z"/>
<path class="st0" d="M189.2,20.3c0.1,0,0.2,0.1,0.2,0.2s-0.1,0.2-0.2,0.2c-0.1,0-0.2-0.1-0.2-0.2S189.1,20.3,189.2,20.3z"/>
<path class="st0" d="M194.7,38.6c0,0.2-0.2,0.4-0.4,0.4s-0.4-0.2-0.4-0.4s0.2-0.4,0.4-0.4C194.5,38.2,194.7,38.3,194.7,38.6z"/>
<path class="st0" d="M184.5,47.5c0,0.1-0.1,0.2-0.2,0.2c-0.1,0-0.2-0.1-0.2-0.2c0-0.1,0.1-0.2,0.2-0.2S184.5,47.4,184.5,47.5z"/>
<path class="st0" d="M194.5,45.1c0,0.1-0.1,0.2-0.2,0.2c-0.1,0-0.2-0.1-0.2-0.2c0-0.1,0.1-0.2,0.2-0.2
	C194.5,44.9,194.5,45,194.5,45.1z"/>
<path class="st0" d="M196.2,57c0,0.2-0.2,0.4-0.4,0.4s-0.4-0.2-0.4-0.4s0.2-0.4,0.4-0.4S196.2,56.8,196.2,57z"/>
<path class="st0" d="M196,63.5c0,0.1-0.1,0.2-0.2,0.2c-0.1,0-0.2-0.1-0.2-0.2c0-0.1,0.1-0.2,0.2-0.2S196,63.4,196,63.5z"/>
<path class="st0" d="M190.4,80.8c0,0.2-0.2,0.4-0.4,0.4s-0.4-0.2-0.4-0.4c0-0.2,0.2-0.4,0.4-0.4S190.4,80.6,190.4,80.8z"/>
<path class="st0" d="M194.7,81.7c0,0.2-0.2,0.4-0.4,0.4s-0.4-0.2-0.4-0.4c0-0.2,0.2-0.4,0.4-0.4C194.5,81.3,194.7,81.4,194.7,81.7z"
	/>
<path class="st0" d="M184.5,90.6c0,0.1-0.1,0.2-0.2,0.2c-0.1,0-0.2-0.1-0.2-0.2s0.1-0.2,0.2-0.2S184.5,90.5,184.5,90.6z"/>
<path class="st0" d="M180.3,69.7c0,0.1-0.1,0.2-0.2,0.2c-0.1,0-0.2-0.1-0.2-0.2s0.1-0.2,0.2-0.2S180.3,69.6,180.3,69.7z"/>
<path class="st0" d="M189,81.2c0,0.1-0.1,0.2-0.2,0.2c-0.1,0-0.2-0.1-0.2-0.2s0.1-0.2,0.2-0.2S189,81.1,189,81.2z"/>
<path class="st0" d="M191.5,82.6c0,0.1-0.1,0.2-0.2,0.2c-0.1,0-0.2-0.1-0.2-0.2s0.1-0.2,0.2-0.2S191.5,82.5,191.5,82.6z"/>
<path class="st0" d="M192.7,82.6c0,0.1-0.1,0.2-0.2,0.2c-0.1,0-0.2-0.1-0.2-0.2s0.1-0.2,0.2-0.2C192.6,82.4,192.7,82.5,192.7,82.6z"
	/>
<path class="st0" d="M182.1,68.9c0,0.1-0.1,0.2-0.2,0.2c-0.1,0-0.2-0.1-0.2-0.2s0.1-0.2,0.2-0.2C182,68.7,182.1,68.8,182.1,68.9z"/>
<path class="st0" d="M191.6,88c0,0.1-0.1,0.2-0.2,0.2c-0.1,0-0.2-0.1-0.2-0.2s0.1-0.2,0.2-0.2S191.6,87.9,191.6,88z"/>
<path class="st0" d="M194.5,88.2c0,0.1-0.1,0.2-0.2,0.2c-0.1,0-0.2-0.1-0.2-0.2s0.1-0.2,0.2-0.2S194.5,88.1,194.5,88.2z"/>
<path class="st0" d="M189.4,84.8c0,0.1-0.1,0.2-0.2,0.2c-0.1,0-0.2-0.1-0.2-0.2s0.1-0.2,0.2-0.2C189.3,84.6,189.4,84.7,189.4,84.8z"
	/>
<path class="st0" d="M189.5,124.6c0,0.2-0.2,0.4-0.4,0.4s-0.4-0.2-0.4-0.4c0-0.2,0.2-0.4,0.4-0.4S189.5,124.4,189.5,124.6z"/>
<path class="st0" d="M193.7,125.5c0,0.2-0.2,0.4-0.4,0.4s-0.4-0.2-0.4-0.4c0-0.2,0.2-0.4,0.4-0.4
	C193.6,125.1,193.7,125.3,193.7,125.5z"/>
<path class="st0" d="M179.4,113.5c0,0.1-0.1,0.2-0.2,0.2c-0.1,0-0.2-0.1-0.2-0.2s0.1-0.2,0.2-0.2
	C179.3,113.4,179.4,113.4,179.4,113.5z"/>
<path class="st0" d="M188,125c0,0.1-0.1,0.2-0.2,0.2c-0.1,0-0.2-0.1-0.2-0.2s0.1-0.2,0.2-0.2C188,124.8,188,124.9,188,125z"/>
<path class="st0" d="M190.5,126.4c0,0.1-0.1,0.2-0.2,0.2c-0.1,0-0.2-0.1-0.2-0.2s0.1-0.2,0.2-0.2S190.5,126.3,190.5,126.4z"/>
<path class="st0" d="M191.8,126.4c0,0.1-0.1,0.2-0.2,0.2c-0.1,0-0.2-0.1-0.2-0.2s0.1-0.2,0.2-0.2
	C191.7,126.2,191.8,126.3,191.8,126.4z"/>
<path class="st0" d="M181.2,112.7c0,0.1-0.1,0.2-0.2,0.2c-0.1,0-0.2-0.1-0.2-0.2s0.1-0.2,0.2-0.2
	C181.1,112.5,181.2,112.6,181.2,112.7z"/>
<path class="st0" d="M190.7,131.9c0,0.1-0.1,0.2-0.2,0.2c-0.1,0-0.2-0.1-0.2-0.2c0-0.1,0.1-0.2,0.2-0.2
	C190.6,131.7,190.7,131.8,190.7,131.9z"/>
<path class="st0" d="M188.5,128.7c0,0.1-0.1,0.2-0.2,0.2c-0.1,0-0.2-0.1-0.2-0.2c0-0.1,0.1-0.2,0.2-0.2S188.5,128.6,188.5,128.7z"/>
<path class="st0" d="M167.4,141.1c0,0.1-0.1,0.2-0.2,0.2c-0.1,0-0.2-0.1-0.2-0.2c0-0.1,0.1-0.2,0.2-0.2
	C167.3,140.9,167.4,141,167.4,141.1z"/>
<path class="st0" d="M174.5,138.6c0,0.1-0.1,0.2-0.2,0.2c-0.1,0-0.2-0.1-0.2-0.2c0-0.1,0.1-0.2,0.2-0.2
	C174.4,138.4,174.5,138.5,174.5,138.6z"/>
<path class="st0" d="M177.4,138.7c0,0.1-0.1,0.2-0.2,0.2c-0.1,0-0.2-0.1-0.2-0.2c0-0.1,0.1-0.2,0.2-0.2
	C177.3,138.5,177.4,138.6,177.4,138.7z"/>
<path class="st0" d="M172.3,135.4c0,0.1-0.1,0.2-0.2,0.2c-0.1,0-0.2-0.1-0.2-0.2c0-0.1,0.1-0.2,0.2-0.2S172.3,135.3,172.3,135.4z"/>
<path class="st0" d="M178.2,146.3c0,0.1-0.1,0.2-0.2,0.2c-0.1,0-0.2-0.1-0.2-0.2c0-0.1,0.1-0.2,0.2-0.2
	C178.1,146.2,178.2,146.2,178.2,146.3z"/>
<path class="st0" d="M180,145.5c0,0.1-0.1,0.2-0.2,0.2c-0.1,0-0.2-0.1-0.2-0.2c0-0.1,0.1-0.2,0.2-0.2S180,145.4,180,145.5z"/>
<path class="st0" d="M102.2,213.5c-0.2,0-0.3-0.1-0.3-0.3s0.1-0.3,0.3-0.3c0.2,0,0.3,0.1,0.3,0.3S102.4,213.5,102.2,213.5z"/>
<path class="st0" d="M106,216.1c-0.2,0-0.3-0.1-0.3-0.3s0.1-0.3,0.3-0.3c0.2,0,0.3,0.1,0.3,0.3S106.2,216.1,106,216.1z"/>
<path class="st0" d="M107.8,211.7c-0.2,0-0.3-0.1-0.3-0.3s0.1-0.3,0.3-0.3c0.2,0,0.3,0.1,0.3,0.3
	C108.1,211.6,107.9,211.7,107.8,211.7z"/>
<path class="st0" d="M93.9,167.5c-0.5,0-0.9-0.3-0.9-0.7s0.4-0.7,0.8-0.7c0.5,0,0.9,0.3,0.9,0.7C94.7,167.2,94.4,167.5,93.9,167.5z"
	/>
<path class="st0" d="M95.5,158.9c-0.2,0-0.4-0.2-0.4-0.4s0.2-0.4,0.4-0.4c0.2,0,0.4,0.2,0.4,0.4C96,158.8,95.8,158.9,95.5,158.9z"/>
<path class="st0" d="M99.4,162.4c-0.2,0-0.4-0.2-0.4-0.4s0.2-0.4,0.4-0.4c0.2,0,0.4,0.2,0.4,0.4C99.9,162.2,99.7,162.3,99.4,162.4z"
	/>
<path class="st0" d="M110,166.7c-0.2,0-0.4-0.2-0.4-0.4s0.2-0.4,0.4-0.4c0.2,0,0.4,0.2,0.4,0.4C110.4,166.6,110.2,166.7,110,166.7z"
	/>
<path class="st0" d="M87.7,141.3c-0.2,0-0.4-0.2-0.4-0.4s0.2-0.4,0.4-0.4c0.2,0,0.4,0.2,0.4,0.4C88.2,141.1,88,141.3,87.7,141.3z"/>
<path class="st0" d="M87,200.2c-0.2,0-0.4-0.2-0.4-0.4s0.2-0.4,0.4-0.4c0.2,0,0.4,0.2,0.4,0.4S87.2,200.2,87,200.2z"/>
<path class="st0" d="M31.7,90.1c-0.2,0-0.4-0.2-0.4-0.4c0-0.2,0.2-0.4,0.4-0.4c0.2,0,0.4,0.2,0.4,0.4C32.1,89.9,31.9,90.1,31.7,90.1
	z"/>
<path class="st0" d="M35.3,93.8c-0.2,0-0.4-0.2-0.4-0.4c0-0.2,0.2-0.4,0.4-0.4s0.4,0.2,0.4,0.4C35.8,93.6,35.6,93.8,35.3,93.8z"/>
<path class="st0" d="M45.6,98.9c-0.2,0-0.4-0.2-0.4-0.4c0-0.2,0.2-0.4,0.4-0.4s0.4,0.2,0.4,0.4C46,98.8,45.8,98.9,45.6,98.9z"/>
<path class="st0" d="M29.4,137.4c-0.5,0-0.9-0.3-0.8-0.7c0-0.4,0.4-0.7,0.9-0.7s0.9,0.4,0.8,0.7C30.3,137.2,29.9,137.5,29.4,137.4z"
	/>
<path class="st0" d="M35.3,132.7c-0.2,0-0.4-0.2-0.4-0.4s0.2-0.4,0.4-0.4s0.4,0.2,0.4,0.4C35.8,132.6,35.6,132.7,35.3,132.7z"/>
<path class="st0" d="M45.5,137.9c-0.2,0-0.4-0.2-0.4-0.4s0.2-0.4,0.4-0.4s0.4,0.2,0.4,0.4C46,137.7,45.8,137.9,45.5,137.9z"/>
<path class="st0" d="M78.9,141.2c-0.2,0-0.4-0.2-0.4-0.4s0.2-0.4,0.5-0.4c0.2,0,0.4,0.2,0.4,0.4C79.4,141.1,79.2,141.3,78.9,141.2z"
	/>
<path class="st0" d="M58.3,53.4c-0.5,0-0.9-0.3-0.8-0.7c0-0.4,0.4-0.7,0.9-0.7s0.9,0.4,0.8,0.7C59.1,53.1,58.7,53.4,58.3,53.4z"/>
<path class="st0" d="M55.9,116.2c0.4-0.2,0.9-0.1,1.1,0.2c0.2,0.4,0,0.8-0.4,1.1c-0.4,0.2-0.9,0.1-1.1-0.2
	C55.3,116.9,55.5,116.5,55.9,116.2z"/>
<path class="st0" d="M51.5,72.9c0.2-0.1,0.5-0.1,0.6,0.1s0,0.4-0.2,0.6c-0.2,0.1-0.5,0.1-0.6-0.1S51.3,73,51.5,72.9z"/>
<path class="st0" d="M40,73.8c0.2-0.1,0.5-0.1,0.6,0.1s0,0.4-0.2,0.6c-0.2,0.1-0.5,0.1-0.6-0.1C39.7,74.1,39.8,73.9,40,73.8z"/>
<path class="st0" d="M19.2,166c0.2-0.1,0.5-0.1,0.6,0.1c0.1,0.2,0,0.4-0.2,0.6c-0.2,0.1-0.5,0.1-0.6-0.1S19,166.1,19.2,166z"/>
<path class="st0" d="M49.1,114.1c0.2-0.1,0.5-0.1,0.6,0.1s0,0.4-0.2,0.6c-0.2,0.1-0.5,0.1-0.6-0.1S48.9,114.3,49.1,114.1z"/>
<path class="st0" d="M17.4,92.3c-0.3,0-0.6-0.2-0.6-0.5s0.3-0.5,0.6-0.5c0.3,0,0.6,0.2,0.6,0.5C18,92.1,17.8,92.3,17.4,92.3z"/>
<path class="st0" d="M19.3,9.7c-0.3,0-0.6-0.2-0.6-0.5s0.3-0.5,0.6-0.5c0.3,0,0.6,0.2,0.6,0.5C19.8,9.5,19.6,9.7,19.3,9.7z"/>
<path class="st0" d="M54.6,74.4c-0.2,0-0.3-0.1-0.3-0.3c0-0.2,0.1-0.3,0.3-0.3s0.3,0.1,0.3,0.3C54.9,74.2,54.8,74.4,54.6,74.4z"/>
<path class="st0" d="M52.1,31.8c-0.2,0-0.3-0.1-0.3-0.3c0-0.2,0.1-0.3,0.3-0.3s0.3,0.1,0.3,0.3C52.4,31.6,52.3,31.8,52.1,31.8z"/>
<path class="st0" d="M83.9,138.2c-0.2,0-0.3-0.1-0.3-0.3s0.1-0.3,0.3-0.3c0.2,0,0.3,0.1,0.3,0.3C84.2,138.1,84,138.2,83.9,138.2z"/>
<path class="st0" d="M18.9,118.7c0.2-0.1,0.3,0,0.4,0.2c0,0.2,0,0.3-0.2,0.4s-0.3,0-0.4-0.2C18.7,118.9,18.8,118.8,18.9,118.7z"/>
<path class="st0" d="M79.3,168.5c0.2,0,0.3,0,0.4,0.2c0,0.2,0,0.3-0.2,0.4c-0.2,0-0.3,0-0.4-0.2C79.1,168.7,79.1,168.6,79.3,168.5z"
	/>
<path class="st0" d="M57.6,150.5c-0.3,0-0.6-0.2-0.6-0.5s0.3-0.5,0.6-0.5s0.6,0.2,0.6,0.5C58.2,150.3,57.9,150.5,57.6,150.5z"/>
<path class="st0" d="M35.8,106.1c-0.3,0-0.6-0.2-0.6-0.5s0.3-0.5,0.6-0.5s0.6,0.2,0.6,0.5C36.4,105.9,36.1,106.1,35.8,106.1z"/>
<path class="st0" d="M18,92.9c-0.3,0-0.6-0.2-0.6-0.5s0.3-0.5,0.6-0.5c0.3,0,0.6,0.2,0.6,0.5C18.6,92.6,18.4,92.9,18,92.9z"/>
<path class="st0" d="M41.2,91.9c-0.3,0-0.6-0.2-0.6-0.5s0.3-0.5,0.6-0.5s0.6,0.2,0.6,0.5C41.8,91.7,41.5,91.9,41.2,91.9z"/>
<path class="st0" d="M41.2,135.7c-0.3,0-0.6-0.2-0.6-0.5s0.3-0.5,0.6-0.5s0.6,0.2,0.6,0.5C41.8,135.4,41.5,135.7,41.2,135.7z"/>
<path class="st0" d="M25,84.6c-0.3,0-0.6-0.2-0.6-0.5s0.3-0.5,0.6-0.5c0.3,0,0.6,0.2,0.6,0.5S25.3,84.6,25,84.6z"/>
<path class="st0" d="M8.4,136.4c-0.2,0-0.3-0.1-0.3-0.3s0.1-0.3,0.3-0.3s0.3,0.1,0.3,0.3C8.7,136.3,8.6,136.4,8.4,136.4z"/>
<path class="st0" d="M6.5,141.7c-0.2,0-0.3-0.1-0.3-0.3s0.1-0.3,0.3-0.3c0.2,0,0.3,0.1,0.3,0.3C6.8,141.6,6.7,141.7,6.5,141.7z"/>
<path class="st0" d="M23.5,93.3c-0.2,0-0.3-0.1-0.3-0.3c0-0.2,0.1-0.3,0.3-0.3c0.2,0,0.3,0.1,0.3,0.3C23.7,93.2,23.6,93.3,23.5,93.3
	z"/>
<path class="st0" d="M33.2,116c-0.2,0-0.3-0.1-0.3-0.3c0-0.2,0.1-0.3,0.3-0.3s0.3,0.1,0.3,0.3S33.4,116,33.2,116z"/>
<path class="st0" d="M18.5,121.6c0,0.2-0.1,0.3-0.3,0.3c-0.2,0-0.3-0.1-0.3-0.3c0-0.2,0.1-0.3,0.3-0.3
	C18.4,121.4,18.5,121.5,18.5,121.6z"/>
<path class="st0" d="M31.3,111.2c0,0,0.1-0.2,0.1-0.5s0-0.5-0.1-0.5c0,0-0.1,0.2-0.1,0.5C31.3,110.9,31.3,111.2,31.3,111.2z"/>
<path class="st0" d="M6.3,170.8c-0.2,0-0.3-0.1-0.3-0.3s0.1-0.3,0.3-0.3c0.2,0,0.3,0.1,0.3,0.3C6.6,170.6,6.5,170.8,6.3,170.8z"/>
<path class="st0" d="M6,175.8c-0.2,0-0.3-0.1-0.3-0.3s0.1-0.3,0.3-0.3c0.2,0,0.3,0.1,0.3,0.3S6.2,175.8,6,175.8z"/>
<path class="st0" d="M39.8,145c-0.2,0-0.3-0.1-0.3-0.3s0.1-0.3,0.3-0.3s0.3,0.1,0.3,0.3S39.9,145,39.8,145z"/>
<path class="st0" d="M31.4,152.3c-0.3,0-0.6-0.2-0.6-0.5s0.3-0.5,0.6-0.5c0.3,0,0.6,0.2,0.6,0.5C32,152,31.7,152.3,31.4,152.3z"/>
<path class="st0" d="M30.1,158.9c-0.3,0-0.6-0.2-0.6-0.5s0.3-0.5,0.6-0.5c0.3,0,0.6,0.2,0.6,0.5C30.7,158.6,30.4,158.9,30.1,158.9z"
	/>
<path class="st0" d="M18.4,193.9c-0.2,0-0.3-0.1-0.3-0.3s0.1-0.3,0.3-0.3c0.2,0,0.3,0.1,0.3,0.3C18.7,193.7,18.6,193.9,18.4,193.9z"
	/>
<path class="st0" d="M48.2,136.8c-0.2,0-0.3-0.1-0.3-0.3s0.1-0.3,0.3-0.3s0.3,0.1,0.3,0.3S48.4,136.8,48.2,136.8z"/>
<path class="st0" d="M30.7,150.1c-0.2,0-0.3-0.1-0.3-0.3s0.1-0.3,0.3-0.3c0.2,0,0.3,0.1,0.3,0.3S30.9,150.1,30.7,150.1z"/>
<path class="st0" d="M28.6,154c-0.2,0-0.3-0.1-0.3-0.3s0.1-0.3,0.3-0.3c0.2,0,0.3,0.1,0.3,0.3C28.9,153.8,28.8,154,28.6,154z"/>
<path class="st0" d="M28.6,155.9c-0.2,0-0.3-0.1-0.3-0.3s0.1-0.3,0.3-0.3c0.2,0,0.3,0.1,0.3,0.3C28.9,155.7,28.8,155.9,28.6,155.9z"
	/>
<path class="st0" d="M49.5,139.6c-0.2,0-0.3-0.1-0.3-0.3s0.1-0.3,0.3-0.3s0.3,0.1,0.3,0.3S49.7,139.6,49.5,139.6z"/>
<path class="st0" d="M20.4,154.2c-0.2,0-0.3-0.1-0.3-0.3s0.1-0.3,0.3-0.3c0.2,0,0.3,0.1,0.3,0.3C20.6,154,20.5,154.2,20.4,154.2z"/>
<path class="st0" d="M25.2,150.8c-0.2,0-0.3-0.1-0.3-0.3s0.1-0.3,0.3-0.3c0.2,0,0.3,0.1,0.3,0.3C25.5,150.6,25.4,150.8,25.2,150.8z"
	/>
<path class="st0" d="M48.4,23.8c-0.2,0-0.4,0.2-0.4,0.4c0,0.2,0.2,0.4,0.4,0.4s0.4-0.2,0.4-0.4C48.7,24,48.6,23.8,48.4,23.8z"/>
<path class="st0" d="M44.1,21.5c-0.2,0-0.4,0.2-0.4,0.4c0,0.2,0.2,0.4,0.4,0.4s0.4-0.2,0.4-0.4C44.4,21.7,44.3,21.5,44.1,21.5z"/>
<path class="st0" d="M47.9,26.6c-0.1,0-0.2,0.1-0.2,0.2s0.1,0.2,0.2,0.2c0.1,0,0.2-0.1,0.2-0.2C48.1,26.7,48.1,26.6,47.9,26.6z"/>
<path class="st0" d="M43.2,24.6c-0.1,0-0.2,0.1-0.2,0.2s0.1,0.2,0.2,0.2c0.1,0,0.2-0.1,0.2-0.2S43.3,24.6,43.2,24.6z"/>
<path class="st0" d="M46.7,23.2c-0.1,0-0.2,0.1-0.2,0.2s0.1,0.2,0.2,0.2c0.1,0,0.2-0.1,0.2-0.2C46.9,23.2,46.8,23.2,46.7,23.2z"/>
<path class="st0" d="M44.4,27.5c-0.1,0-0.2,0.1-0.2,0.2s0.1,0.2,0.2,0.2c0.1,0,0.2-0.1,0.2-0.2C44.6,27.6,44.5,27.5,44.4,27.5z"/>
<path class="st0" d="M38.9,59.7c-0.2,0-0.3,0.1-0.3,0.2c0,0.1,0.1,0.2,0.3,0.3c0.2,0,0.3-0.1,0.3-0.2C39.2,59.9,39.1,59.7,38.9,59.7
	z"/>
<path class="st0" d="M45.8,56.9c-0.2,0-0.3,0.1-0.3,0.2c0,0.1,0.1,0.2,0.3,0.3c0.2,0,0.3-0.1,0.3-0.2C46.1,57,46,56.9,45.8,56.9z"/>
<path class="st0" d="M25.5,73.5c-0.2,0-0.3,0.1-0.3,0.3c0,0.1,0.1,0.2,0.3,0.2c0.2,0,0.3-0.1,0.3-0.3C25.8,73.6,25.7,73.5,25.5,73.5
	z"/>
<path class="st0" d="M12.2,91.2c-0.2,0-0.3,0.1-0.3,0.3c0,0.1,0.1,0.2,0.3,0.2s0.3-0.1,0.3-0.3C12.5,91.3,12.4,91.2,12.2,91.2z"/>
<path class="st0" d="M14.4,114.5c-0.2,0-0.3,0.1-0.3,0.3c0,0.1,0.1,0.2,0.3,0.2s0.3-0.1,0.3-0.3C14.7,114.6,14.5,114.5,14.4,114.5z"
	/>
<path class="st0" d="M11.8,90.8c-0.2,0-0.4,0.2-0.4,0.4c0,0.2,0.2,0.4,0.4,0.4s0.4-0.2,0.4-0.4S12.1,90.8,11.8,90.8z"/>
<path class="st0" d="M10.1,91.8c-0.1,0-0.2,0.1-0.2,0.2s0.1,0.2,0.2,0.2c0.1,0,0.2-0.1,0.2-0.2S10.2,91.8,10.1,91.8z"/>
<path class="st0" d="M28.7,75.5c-0.1,0-0.2,0.1-0.2,0.2s0.1,0.2,0.2,0.2s0.2-0.1,0.2-0.2C28.9,75.6,28.8,75.5,28.7,75.5z"/>
<path class="st0" d="M3.4,51.3c-0.2,0-0.4,0.2-0.4,0.4C3,51.8,3.2,52,3.4,52s0.4-0.2,0.4-0.4C3.8,51.4,3.6,51.3,3.4,51.3z"/>
<path class="st0" d="M15.9,14.8c-0.2,0-0.4,0.2-0.4,0.4s0.2,0.4,0.4,0.4c0.2,0,0.4-0.2,0.4-0.4S16.1,14.8,15.9,14.8z"/>
<path class="st0" d="M29.6,184.3c0,0.2,0.1,0.3,0.3,0.3c0.1,0,0.3-0.1,0.3-0.3s-0.1-0.3-0.3-0.3C29.8,184,29.6,184.1,29.6,184.3z"/>
<path class="st0" d="M26.4,184.9c0,0.2,0.1,0.3,0.3,0.3c0.1,0,0.3-0.1,0.3-0.3s-0.1-0.3-0.3-0.3C26.6,184.7,26.4,184.8,26.4,184.9z"
	/>
<path class="st0" d="M30.7,184.6c0,0.1,0.1,0.1,0.1,0.1c0.1,0,0.1-0.1,0.1-0.1c0-0.1-0.1-0.1-0.1-0.1
	C30.8,184.5,30.7,184.5,30.7,184.6z"/>
<path class="st0" d="M28.8,185.7c0,0.1,0.1,0.1,0.1,0.1c0.1,0,0.1-0.1,0.1-0.1c0-0.1-0.1-0.1-0.1-0.1
	C28.9,185.5,28.8,185.6,28.8,185.7z"/>
<path class="st0" d="M27.9,185.7c0,0.1,0.1,0.1,0.1,0.1c0.1,0,0.1-0.1,0.1-0.1c0-0.1-0.1-0.1-0.1-0.1
	C28,185.5,27.9,185.6,27.9,185.7z"/>
<path class="st0" d="M121.8,79.3c0.3,0,0.6-0.2,0.6-0.5s-0.3-0.5-0.6-0.5c-0.3,0-0.6,0.2-0.6,0.5C121.2,79,121.5,79.3,121.8,79.3z"
	/>
<path class="st0" d="M198,77.7c0.2,0,0.3-0.1,0.3-0.3c0-0.2-0.1-0.3-0.3-0.3s-0.3,0.1-0.3,0.3S197.8,77.7,198,77.7z"/>
<path class="st0" d="M198.9,87.5c0,0.2,0.1,0.3,0.3,0.3s0.3-0.1,0.3-0.3c0-0.2-0.1-0.3-0.3-0.3S198.9,87.3,198.9,87.5z"/>
<path class="st0" d="M214.8,40.8c-0.1-0.1-0.1-0.3,0-0.4c0.1-0.1,0.3-0.1,0.4,0c0.1,0.1,0.1,0.3,0,0.4
	C215.1,40.9,214.9,40.9,214.8,40.8z"/>
<path class="st0" d="M209.2,42.7c-0.1-0.1-0.1-0.3,0-0.4c0.1-0.1,0.3-0.1,0.4,0c0.1,0.1,0.1,0.3,0,0.4
	C209.5,42.8,209.4,42.8,209.2,42.7z"/>
<path class="st0" d="M212.6,42c-0.2,0.1-0.4,0.1-0.5-0.1c-0.1-0.2-0.1-0.4,0.1-0.5c0.2-0.1,0.4-0.1,0.5,0.1
	C212.9,41.6,212.8,41.9,212.6,42z"/>
<path class="st0" d="M214.3,46c-0.2,0.1-0.4,0.1-0.5-0.1c-0.1-0.2-0.1-0.4,0.1-0.5c0.2-0.1,0.4-0.1,0.5,0.1
	C214.5,45.7,214.5,45.9,214.3,46z"/>
<path class="st0" d="M201.2,42.5c-0.1,0.1-0.2,0-0.3-0.1s0-0.2,0.1-0.3s0.2,0,0.3,0.1C201.3,42.3,201.3,42.5,201.2,42.5z"/>
<path class="st0" d="M211.5,41.1c-0.1,0.1-0.2,0-0.3-0.1s0-0.2,0.1-0.3s0.2,0,0.3,0.1C211.6,40.9,211.6,41,211.5,41.1z"/>
<path class="st0" d="M211.7,43.9c-0.1,0.1-0.2,0-0.3-0.1s0-0.2,0.1-0.3s0.2,0,0.3,0.1C211.9,43.7,211.8,43.8,211.7,43.9z"/>
<path class="st0" d="M212.4,44.9c-0.1,0.1-0.2,0-0.3-0.1s0-0.2,0.1-0.3s0.2,0,0.3,0.1C212.5,44.8,212.5,44.9,212.4,44.9z"/>
<path class="st0" d="M202,27.7c0,0.1-0.1,0.2-0.2,0.2c-0.1,0-0.2-0.1-0.2-0.2s0.1-0.2,0.2-0.2S202,27.6,202,27.7z"/>
<path class="st0" d="M207.3,47c-0.1,0.1-0.2,0-0.3-0.1s0-0.2,0.1-0.3s0.2,0,0.3,0.1C207.4,46.9,207.4,47,207.3,47z"/>
<path class="st0" d="M208.8,49.5c-0.1,0.1-0.2,0-0.3-0.1s0-0.2,0.1-0.3s0.2,0,0.3,0.1C208.9,49.3,208.9,49.5,208.8,49.5z"/>
<path class="st0" d="M208.7,43.4c-0.1,0.1-0.2,0-0.3-0.1s0-0.2,0.1-0.3s0.2,0,0.3,0.1C208.8,43.2,208.8,43.4,208.7,43.4z"/>
<path class="st0" d="M186.5,139.7c0.2,0,0.3-0.1,0.3-0.3s-0.1-0.3-0.3-0.3s-0.3,0.1-0.3,0.3C186.3,139.6,186.4,139.7,186.5,139.7z"
	/>
<path class="st0" d="M202.2,96c0.3,0,0.6-0.2,0.6-0.5s-0.3-0.5-0.6-0.5s-0.6,0.2-0.6,0.5C201.6,95.8,201.8,96,202.2,96z"/>
<path class="st0" d="M200.6,96.1c0,0.2,0.1,0.3,0.3,0.3s0.3-0.1,0.3-0.3c0-0.2-0.1-0.3-0.3-0.3C200.8,95.8,200.6,95.9,200.6,96.1z"
	/>
<path class="st0" d="M207.1,97.9c0.2,0,0.3-0.1,0.3-0.3c0-0.2-0.1-0.3-0.3-0.3s-0.3,0.1-0.3,0.3C206.8,97.7,206.9,97.9,207.1,97.9z"
	/>
<path class="st0" d="M216.9,99.1c0.2,0,0.3-0.1,0.3-0.3c0-0.2-0.1-0.3-0.3-0.3s-0.3,0.1-0.3,0.3C216.6,99,216.7,99.1,216.9,99.1z"/>
<path class="st0" d="M205.2,110.4c0.2,0,0.3-0.1,0.3-0.3c0-0.2-0.1-0.3-0.3-0.3s-0.3,0.1-0.3,0.3S205,110.4,205.2,110.4z"/>
<path class="st0" d="M208.6,109.4c0.2,0,0.3-0.1,0.3-0.3c0-0.2-0.1-0.3-0.3-0.3s-0.3,0.1-0.3,0.3
	C208.3,109.2,208.4,109.4,208.6,109.4z"/>
<path class="st0" d="M208.6,111.3c0.2,0,0.3-0.1,0.3-0.3c0-0.2-0.1-0.3-0.3-0.3s-0.3,0.1-0.3,0.3
	C208.3,111.1,208.4,111.3,208.6,111.3z"/>
<path class="st0" d="M215.6,101.9c0.2,0,0.3-0.1,0.3-0.3c0-0.2-0.1-0.3-0.3-0.3s-0.3,0.1-0.3,0.3S215.4,101.9,215.6,101.9z"/>
<path class="st0" d="M216.9,109.6c0.2,0,0.3-0.1,0.3-0.3c0-0.2-0.1-0.3-0.3-0.3s-0.3,0.1-0.3,0.3
	C216.6,109.5,216.7,109.6,216.9,109.6z"/>
<path class="st0" d="M152.2,124.8c0.3,0,0.6-0.2,0.6-0.5s-0.3-0.5-0.6-0.5s-0.6,0.2-0.6,0.5C151.7,124.5,151.9,124.8,152.2,124.8z"
	/>
<path class="st0" d="M150.7,124.8c0,0.2,0.1,0.3,0.3,0.3s0.3-0.1,0.3-0.3c0-0.2-0.1-0.3-0.3-0.3
	C150.8,124.6,150.7,124.7,150.7,124.8z"/>
<path class="st0" d="M160.6,127.9c0.2,0,0.3-0.1,0.3-0.3c0-0.2-0.1-0.3-0.3-0.3s-0.3,0.1-0.3,0.3S160.4,127.9,160.6,127.9z"/>
<path class="st0" d="M124,119.2c0.2,0,0.3-0.1,0.3-0.3c0-0.2-0.1-0.3-0.3-0.3c-0.2,0-0.3,0.1-0.3,0.3S123.8,119.2,124,119.2z"/>
<path class="st0" d="M155.3,139.2c0.2,0,0.3-0.1,0.3-0.3s-0.1-0.3-0.3-0.3s-0.3,0.1-0.3,0.3S155.1,139.2,155.3,139.2z"/>
<path class="st0" d="M158.7,140c0.2,0,0.3-0.1,0.3-0.3s-0.1-0.3-0.3-0.3s-0.3,0.1-0.3,0.3S158.5,140,158.7,140z"/>
<circle class="st0" cx="165.7" cy="130.4" r="0.3"/>
<path class="st0" d="M166.9,138.4c0.2,0,0.3-0.1,0.3-0.3s-0.1-0.3-0.3-0.3s-0.3,0.1-0.3,0.3C166.7,138.2,166.8,138.4,166.9,138.4z"
	/>
<path class="st0" d="M124.3,119.5c0.2,0,0.3-0.1,0.3-0.3s-0.1-0.3-0.3-0.3c-0.2,0-0.3,0.1-0.3,0.3S124.1,119.5,124.3,119.5z"/>
<path class="st0" d="M162,130.9c0.2,0,0.3-0.1,0.3-0.3s-0.1-0.3-0.3-0.3s-0.3,0.1-0.3,0.3C161.8,130.8,161.9,130.9,162,130.9z"/>
<path class="st0" d="M167.9,190.8c0.3,0,0.6-0.2,0.6-0.5s-0.3-0.5-0.6-0.5s-0.6,0.2-0.6,0.5C167.3,190.5,167.5,190.8,167.9,190.8z"
	/>
<path class="st0" d="M166.3,190.9c0,0.2,0.1,0.3,0.3,0.3s0.3-0.1,0.3-0.3s-0.1-0.3-0.3-0.3C166.5,190.6,166.3,190.7,166.3,190.9z"/>
<path class="st0" d="M172.8,192.7c0.2,0,0.3-0.1,0.3-0.3s-0.1-0.3-0.3-0.3s-0.3,0.1-0.3,0.3C172.5,192.5,172.6,192.7,172.8,192.7z"
	/>
<path class="st0" d="M173.4,196.9c0.2,0,0.3-0.1,0.3-0.3s-0.1-0.3-0.3-0.3s-0.3,0.1-0.3,0.3S173.3,196.9,173.4,196.9z"/>
<path class="st0" d="M37.5,59.3c0.3,0,0.6-0.2,0.6-0.5s-0.3-0.5-0.6-0.5s-0.6,0.2-0.6,0.5C37,59,37.2,59.3,37.5,59.3z"/>
<path class="st0" d="M36.7,35.4c0.3,0,0.6-0.2,0.6-0.5s-0.3-0.5-0.6-0.5s-0.6,0.2-0.6,0.5C36.1,35.2,36.4,35.4,36.7,35.4z"/>
<path class="st0" d="M29.9,23.5c0.2,0,0.3-0.1,0.3-0.3c0-0.2-0.1-0.3-0.3-0.3c-0.2,0-0.3,0.1-0.3,0.3C29.6,23.3,29.7,23.5,29.9,23.5
	z"/>
<path class="st0" d="M18.5,48.1c0.2,0,0.3-0.1,0.3-0.3s-0.1-0.3-0.3-0.3c-0.2,0-0.3,0.1-0.3,0.3S18.3,48.1,18.5,48.1z"/>
<path class="st0" d="M23.3,81.2c0.1-0.1,0-0.3-0.1-0.4s-0.3,0-0.4,0.1s0,0.3,0.1,0.4C23,81.4,23.2,81.4,23.3,81.2z"/>
<path class="st0" d="M28.4,68c0.2,0,0.3-0.1,0.3-0.3c0-0.2-0.1-0.3-0.3-0.3c-0.2,0-0.3,0.1-0.3,0.3C28.2,67.8,28.3,68,28.4,68z"/>
<path class="st0" d="M216.8,171.2c0.5,0,0.9-0.3,0.9-0.7s-0.4-0.7-0.8-0.7c-0.5,0-0.9,0.3-0.9,0.7S216.3,171.2,216.8,171.2z"/>
<path class="st0" d="M215.2,162.7c0.2,0,0.4-0.2,0.4-0.4s-0.2-0.4-0.4-0.4s-0.4,0.2-0.4,0.4C214.7,162.5,214.9,162.7,215.2,162.7z"
	/>
<path class="st0" d="M211.3,166.1c0.2,0,0.4-0.2,0.4-0.4s-0.2-0.4-0.4-0.4s-0.4,0.2-0.4,0.4C210.8,165.9,211,166.1,211.3,166.1z"/>
<path class="st0" d="M200.7,170.5c0.2,0,0.4-0.2,0.4-0.4s-0.2-0.4-0.4-0.4s-0.4,0.2-0.4,0.4S200.5,170.4,200.7,170.5z"/>
<path class="st0" d="M149.7,221c-0.3,0-0.6-0.2-0.6-0.5s0.3-0.5,0.6-0.5s0.6,0.2,0.6,0.5C150.3,220.7,150.1,221,149.7,221z"/>
<path class="st0" d="M149.1,216.7c-0.2,0-0.3-0.1-0.3-0.3s0.1-0.3,0.3-0.3s0.3,0.1,0.3,0.3C149.4,216.6,149.3,216.7,149.1,216.7z"/>
<path class="st0" d="M147.2,222c-0.2,0-0.3-0.1-0.3-0.3s0.1-0.3,0.3-0.3s0.3,0.1,0.3,0.3S147.4,222,147.2,222z"/>
<path class="st0" d="M142.1,228.8c-0.2,0-0.3-0.1-0.3-0.3s0.1-0.3,0.3-0.3s0.3,0.1,0.3,0.3C142.4,228.6,142.3,228.8,142.1,228.8z"/>
<path class="st0" d="M129.7,171.2c-0.5,0-0.9-0.3-0.9-0.7s0.4-0.7,0.8-0.7c0.5,0,0.9,0.3,0.9,0.7
	C130.6,170.9,130.2,171.2,129.7,171.2z"/>
<path class="st0" d="M131.4,162.7c-0.2,0-0.4-0.2-0.4-0.4s0.2-0.4,0.4-0.4s0.4,0.2,0.4,0.4C131.8,162.5,131.6,162.7,131.4,162.7z"/>
<path class="st0" d="M135.3,166.1c-0.2,0-0.4-0.2-0.4-0.4s0.2-0.4,0.4-0.4s0.4,0.2,0.4,0.4C135.7,165.9,135.5,166.1,135.3,166.1z"/>
<path class="st0" d="M145.8,170.5c-0.2,0-0.4-0.2-0.4-0.4s0.2-0.4,0.4-0.4s0.4,0.2,0.4,0.4C146.3,170.3,146.1,170.4,145.8,170.5z"/>
<path class="st0" d="M123.6,145c-0.2,0-0.4-0.2-0.4-0.4s0.2-0.4,0.4-0.4c0.2,0,0.4,0.2,0.4,0.4C124,144.9,123.8,145,123.6,145z"/>
<path class="st0" d="M106.7,204.7c-0.5,0-0.9-0.3-0.9-0.7s0.4-0.7,0.8-0.7c0.5,0,0.9,0.3,0.9,0.7
	C107.5,204.3,107.2,204.6,106.7,204.7z"/>
<path class="st0" d="M108.3,196.1c-0.2,0-0.4-0.2-0.4-0.4s0.2-0.4,0.4-0.4c0.2,0,0.4,0.2,0.4,0.4
	C108.8,195.9,108.6,196.1,108.3,196.1z"/>
<path class="st0" d="M112.2,199.5c-0.2,0-0.4-0.2-0.4-0.4s0.2-0.4,0.4-0.4c0.2,0,0.4,0.2,0.4,0.4
	C112.7,199.3,112.5,199.5,112.2,199.5z"/>
<path class="st0" d="M122.8,203.9c-0.2,0-0.4-0.2-0.4-0.4s0.2-0.4,0.4-0.4c0.2,0,0.4,0.2,0.4,0.4C123.2,203.7,123,203.9,122.8,203.9
	z"/>
<path class="st0" d="M100.5,178.5c-0.2,0-0.4-0.2-0.4-0.4s0.2-0.4,0.4-0.4c0.2,0,0.4,0.2,0.4,0.4C101,178.3,100.8,178.5,100.5,178.5
	z"/>
<path class="st0" d="M57.1,169c0-0.5,0.3-0.9,0.7-0.9s0.7,0.4,0.7,0.9s-0.3,0.9-0.7,0.9C57.4,169.9,57.1,169.5,57.1,169z"/>
<path class="st0" d="M50.5,58.6c0.2-0.1,0.5,0,0.5,0.2c0.1,0.2-0.1,0.4-0.3,0.5s-0.5,0-0.5-0.2C50.1,58.9,50.3,58.7,50.5,58.6z"/>
<path class="st0" d="M20.1,148.4c-0.2,0-0.4-0.2-0.4-0.4s0.2-0.4,0.5-0.4c0.2,0,0.4,0.2,0.4,0.4C20.6,148.3,20.4,148.4,20.1,148.4z"
	/>
<path class="st0" d="M98.6,144.5c-0.5,0-0.9-0.3-0.8-0.7c0-0.4,0.4-0.7,0.9-0.7s0.9,0.4,0.8,0.7C99.5,144.2,99.1,144.5,98.6,144.5z"
	/>
<path class="st0" d="M100.9,136.1c-0.2,0-0.4-0.2-0.4-0.4s0.2-0.4,0.4-0.4c0.2,0,0.4,0.2,0.4,0.4C101.3,136,101.1,136.1,100.9,136.1
	z"/>
<path class="st0" d="M104.5,139.8c-0.2,0-0.4-0.2-0.4-0.4s0.2-0.4,0.4-0.4c0.2,0,0.4,0.2,0.4,0.4C105,139.7,104.8,139.8,104.5,139.8
	z"/>
<path class="st0" d="M114.8,145c-0.2,0-0.4-0.2-0.4-0.4s0.2-0.4,0.5-0.4c0.2,0,0.4,0.2,0.4,0.4C115.2,144.8,115,145,114.8,145z"/>
<path class="st0" d="M94.5,118c-0.2,0-0.4-0.2-0.4-0.4c0-0.2,0.2-0.4,0.4-0.4c0.2,0,0.4,0.2,0.4,0.4S94.7,118,94.5,118z"/>
<path class="st0" d="M81.6,81.9c-0.5,0-0.9-0.3-0.8-0.7c0-0.4,0.4-0.7,0.9-0.7s0.9,0.4,0.8,0.7C82.5,81.6,82.1,81.9,81.6,81.9z"/>
<path class="st0" d="M87.5,77.2c-0.2,0-0.4-0.2-0.4-0.4c0-0.2,0.2-0.4,0.4-0.4c0.2,0,0.4,0.2,0.4,0.4C88,77,87.8,77.2,87.5,77.2z"/>
<path class="st0" d="M97.7,82.3c-0.2,0-0.4-0.2-0.4-0.4c0-0.2,0.2-0.4,0.5-0.4c0.2,0,0.4,0.2,0.4,0.4C98.2,82.2,98,82.3,97.7,82.3z"
	/>
<path class="st0" d="M33.7,78.3c0.2-0.1,0.5-0.1,0.6,0.1s0,0.4-0.2,0.5s-0.5,0.1-0.6-0.1C33.4,78.7,33.5,78.4,33.7,78.3z"/>
<path class="st0" d="M79.3,144.7c0.4-0.2,0.9-0.1,1.1,0.2c0.2,0.4,0,0.8-0.4,1.1c-0.4,0.2-0.9,0.1-1.1-0.2
	C78.7,145.4,78.9,145,79.3,144.7z"/>
<path class="st0" d="M81.9,153.4c0.2-0.1,0.5-0.1,0.6,0.1c0.1,0.2,0,0.4-0.2,0.6c-0.2,0.1-0.5,0.1-0.6-0.1
	C81.6,153.8,81.7,153.5,81.9,153.4z"/>
<path class="st0" d="M97.3,166.1c0.2-0.1,0.5-0.1,0.6,0.1c0.1,0.2,0,0.4-0.2,0.6c-0.2,0.1-0.5,0.1-0.6-0.1
	C97,166.4,97.1,166.2,97.3,166.1z"/>
<path class="st0" d="M35,97.7c0.4-0.2,0.9-0.1,1.1,0.2c0.2,0.4,0,0.8-0.4,1.1c-0.4,0.2-0.9,0.1-1.1-0.2S34.6,98,35,97.7z"/>
<path class="st0" d="M49.8,90.9c0.1,0.2,0.1,0.5-0.1,0.6c-0.2,0.1-0.4,0-0.6-0.2c-0.1-0.2-0.1-0.5,0.1-0.6
	C49.4,90.6,49.6,90.7,49.8,90.9z"/>
<path class="st0" d="M55,169.7c0.2-0.1,0.5-0.1,0.6,0.1c0.1,0.2,0,0.4-0.2,0.6c-0.2,0.1-0.5,0.1-0.6-0.1
	C54.8,170.1,54.8,169.8,55,169.7z"/>
<path class="st0" d="M88.3,185.1c0.4-0.2,0.9-0.1,1.1,0.2c0.2,0.4,0,0.8-0.4,1.1c-0.4,0.2-0.9,0.1-1.1-0.2
	C87.8,185.8,87.9,185.4,88.3,185.1z"/>
<path class="st0" d="M91,193.8c0.2-0.1,0.5-0.1,0.6,0.1c0.1,0.2,0,0.4-0.2,0.6c-0.2,0.1-0.5,0.1-0.6-0.1
	C90.7,194.2,90.8,193.9,91,193.8z"/>
<path class="st0" d="M85.9,192.4c0.2-0.1,0.5-0.1,0.6,0.1c0.1,0.2,0,0.4-0.2,0.6c-0.2,0.1-0.5,0.1-0.6-0.1
	C85.6,192.8,85.7,192.6,85.9,192.4z"/>
<path class="st0" d="M106.4,206.5c0.2-0.1,0.5-0.1,0.6,0.1c0.1,0.2,0,0.4-0.2,0.6c-0.2,0.1-0.5,0.1-0.6-0.1
	C106.1,206.8,106.2,206.6,106.4,206.5z"/>
<path class="st0" d="M93.9,118.5c-0.3,0-0.6-0.2-0.6-0.5s0.3-0.5,0.6-0.5c0.3,0,0.6,0.2,0.6,0.5S94.2,118.5,93.9,118.5z"/>
<path class="st0" d="M55.4,118.2c0.3-0.1,0.6,0.1,0.7,0.3c0.1,0.3-0.1,0.6-0.4,0.7c-0.3,0.1-0.6,0-0.7-0.3
	C54.9,118.6,55.1,118.3,55.4,118.2z"/>
<path class="st0" d="M51.3,45.4c-0.3,0-0.6-0.2-0.6-0.5s0.3-0.5,0.6-0.5s0.6,0.2,0.6,0.5C51.9,45.1,51.6,45.4,51.3,45.4z"/>
<path class="st0" d="M57.1,64.1c-0.3,0-0.6-0.2-0.6-0.5s0.3-0.5,0.6-0.5s0.6,0.2,0.6,0.5C57.7,63.9,57.4,64.1,57.1,64.1z"/>
<path class="st0" d="M52.1,38.7c-0.3,0-0.6-0.2-0.6-0.5s0.3-0.5,0.6-0.5s0.6,0.2,0.6,0.5C52.7,38.5,52.4,38.7,52.1,38.7z"/>
<path class="st0" d="M52.2,21.6c-0.3,0-0.6-0.2-0.6-0.5s0.3-0.5,0.6-0.5s0.6,0.2,0.6,0.5C52.7,21.3,52.5,21.6,52.2,21.6z"/>
<path class="st0" d="M55.2,64.5c-0.2,0-0.3-0.1-0.3-0.3c0-0.2,0.1-0.3,0.3-0.3s0.3,0.1,0.3,0.3C55.5,64.4,55.3,64.5,55.2,64.5z"/>
<path class="st0" d="M58.4,57.5c-0.2,0-0.3-0.1-0.3-0.3s0.1-0.3,0.3-0.3s0.3,0.1,0.3,0.3C58.7,57.3,58.5,57.5,58.4,57.5z"/>
<path class="st0" d="M51.3,15.8c-0.2,0-0.3-0.1-0.3-0.3s0.1-0.3,0.3-0.3s0.3,0.1,0.3,0.3C51.6,15.6,51.5,15.8,51.3,15.8z"/>
<path class="st0" d="M88.5,89c-0.2,0-0.3-0.1-0.3-0.3c0-0.2,0.1-0.3,0.3-0.3c0.2,0,0.3,0.1,0.3,0.3S88.6,89,88.5,89z"/>
<path class="st0" d="M40.8,3.9c-0.2,0-0.3-0.1-0.3-0.3s0.1-0.3,0.3-0.3s0.3,0.1,0.3,0.3C41.1,3.7,40.9,3.9,40.8,3.9z"/>
<path class="st0" d="M83.9,107c-0.2,0-0.3-0.1-0.3-0.3c0-0.2,0.1-0.3,0.3-0.3c0.2,0,0.3,0.1,0.3,0.3C84.2,106.8,84.1,107,83.9,107z"
	/>
<path class="st0" d="M57.3,90.7c-0.2,0-0.3-0.1-0.3-0.3c0-0.2,0.1-0.3,0.3-0.3s0.3,0.1,0.3,0.3C57.6,90.5,57.5,90.7,57.3,90.7z"/>
<path class="st0" d="M56.5,93c-0.2,0-0.3-0.1-0.3-0.3c0-0.2,0.1-0.3,0.3-0.3s0.3,0.1,0.3,0.3S56.6,93,56.5,93z"/>
<path class="st0" d="M86.1,137.8c-0.2,0-0.3-0.1-0.3-0.3s0.1-0.3,0.3-0.3c0.2,0,0.3,0.1,0.3,0.3S86.2,137.8,86.1,137.8z"/>
<path class="st0" d="M91.2,117.1c-0.2,0-0.3-0.1-0.3-0.3c0-0.2,0.1-0.3,0.3-0.3c0.2,0,0.3,0.1,0.3,0.3
	C91.5,116.9,91.4,117.1,91.2,117.1z"/>
<path class="st0" d="M119.7,141.9c-0.2,0-0.3-0.1-0.3-0.3s0.1-0.3,0.3-0.3c0.2,0,0.3,0.1,0.3,0.3C120,141.8,119.9,141.9,119.7,141.9
	z"/>
<path class="st0" d="M58.3,122.4c0.2,0,0.3,0,0.4,0.2c0.1,0.2,0,0.3-0.2,0.4s-0.3,0-0.4-0.2C58.1,122.6,58.2,122.4,58.3,122.4z"/>
<path class="st0" d="M57.7,120.6c0.2,0,0.3,0,0.4,0.2c0,0.2,0,0.3-0.2,0.4c-0.2,0-0.3,0-0.4-0.2C57.5,120.8,57.6,120.6,57.7,120.6z"
	/>
<path class="st0" d="M102.7,152.4c-0.2,0-0.3-0.1-0.3-0.3s0.1-0.3,0.3-0.3c0.2,0,0.3,0.1,0.3,0.3C103,152.3,102.9,152.4,102.7,152.4
	z"/>
<path class="st0" d="M5.4,104.8c-0.2,0-0.3-0.1-0.3-0.3c0-0.2,0.1-0.3,0.3-0.3c0.2,0,0.3,0.1,0.3,0.3C5.7,104.7,5.6,104.8,5.4,104.8
	z"/>
<path class="st0" d="M115.1,172.2c0.2,0,0.3,0,0.4,0.2c0,0.2,0,0.3-0.2,0.4c-0.2,0-0.3,0-0.4-0.2C114.9,172.4,115,172.3,115.1,172.2
	z"/>
<path class="st0" d="M58.2,104.7c-0.2,0-0.3-0.1-0.3-0.3c0-0.2,0.1-0.3,0.3-0.3s0.3,0.1,0.3,0.3S58.3,104.7,58.2,104.7z"/>
<path class="st0" d="M80.9,179c-0.3,0-0.6-0.2-0.6-0.5s0.3-0.5,0.6-0.5c0.3,0,0.6,0.2,0.6,0.5S81.2,179,80.9,179z"/>
<path class="st0" d="M51.9,45.9c-0.3,0-0.6-0.2-0.6-0.5s0.3-0.5,0.6-0.5s0.6,0.2,0.6,0.5S52.2,45.9,51.9,45.9z"/>
<path class="st0" d="M38.5,116.2c-0.3,0-0.6-0.2-0.6-0.5s0.3-0.5,0.6-0.5s0.6,0.2,0.6,0.5C39,116,38.8,116.2,38.5,116.2z"/>
<path class="st0" d="M55.5,199.9c-0.3,0-0.6-0.2-0.6-0.5s0.3-0.5,0.6-0.5s0.6,0.2,0.6,0.5S55.8,199.9,55.5,199.9z"/>
<path class="st0" d="M33.2,134.5c-0.3,0-0.6-0.2-0.6-0.5s0.3-0.5,0.6-0.5s0.6,0.2,0.6,0.5C33.7,134.3,33.5,134.5,33.2,134.5z"/>
<path class="st0" d="M31.8,141.1c-0.3,0-0.6-0.2-0.6-0.5s0.3-0.5,0.6-0.5c0.3,0,0.6,0.2,0.6,0.5C32.4,140.9,32.2,141.1,31.8,141.1z"
	/>
<path class="st0" d="M25.9,88.3c-0.3,0-0.6-0.2-0.6-0.5s0.3-0.5,0.6-0.5c0.3,0,0.6,0.2,0.6,0.5C26.5,88.1,26.2,88.3,25.9,88.3z"/>
<path class="st0" d="M26.4,103.5c-0.3,0-0.6-0.2-0.6-0.5s0.3-0.5,0.6-0.5c0.3,0,0.6,0.2,0.6,0.5C27,103.2,26.7,103.5,26.4,103.5z"/>
<path class="st0" d="M42.3,89.5c-0.2,0-0.3-0.1-0.3-0.3s0.1-0.3,0.3-0.3s0.3,0.1,0.3,0.3S42.4,89.5,42.3,89.5z"/>
<path class="st0" d="M24,88.7c-0.2,0-0.3-0.1-0.3-0.3c0-0.2,0.1-0.3,0.3-0.3c0.2,0,0.3,0.1,0.3,0.3S24.2,88.7,24,88.7z"/>
<path class="st0" d="M12.3,70.8c-0.2,0-0.3-0.1-0.3-0.3c0-0.2,0.1-0.3,0.3-0.3s0.3,0.1,0.3,0.3C12.6,70.7,12.5,70.8,12.3,70.8z"/>
<path class="st0" d="M22.1,90.7c-0.2,0-0.3-0.1-0.3-0.3c0-0.2,0.1-0.3,0.3-0.3c0.2,0,0.3,0.1,0.3,0.3C22.4,90.5,22.3,90.7,22.1,90.7
	z"/>
<path class="st0" d="M35.1,92.6c-0.2,0-0.3-0.1-0.3-0.3s0.1-0.3,0.3-0.3s0.3,0.1,0.3,0.3S35.2,92.6,35.1,92.6z"/>
<path class="st0" d="M1.4,157.5c-0.2,0-0.3-0.1-0.3-0.3s0.1-0.3,0.3-0.3s0.3,0.1,0.3,0.3C1.7,157.3,1.5,157.5,1.4,157.5z"/>
<path class="st0" d="M24.2,100.5c-0.2,0-0.3-0.1-0.3-0.3c0-0.2,0.1-0.3,0.3-0.3c0.2,0,0.3,0.1,0.3,0.3S24.4,100.5,24.2,100.5z"/>
<path class="st0" d="M40.4,94.8c-0.2,0-0.3-0.1-0.3-0.3c0-0.2,0.1-0.3,0.3-0.3s0.3,0.1,0.3,0.3C40.7,94.6,40.5,94.8,40.4,94.8z"/>
<path class="st0" d="M36.8,88.2c-0.2,0-0.3-0.1-0.3-0.3c0-0.2,0.1-0.3,0.3-0.3s0.3,0.1,0.3,0.3C37.1,88,37,88.2,36.8,88.2z"/>
<path class="st0" d="M30.8,100.5c-0.2,0-0.3-0.1-0.3-0.3c0-0.2,0.1-0.3,0.3-0.3c0.2,0,0.3,0.1,0.3,0.3
	C31.1,100.4,31,100.5,30.8,100.5z"/>
<path class="st0" d="M4.9,147.1c-0.2,0-0.3-0.1-0.3-0.3s0.1-0.3,0.3-0.3c0.2,0,0.3,0.1,0.3,0.3C5.2,147,5,147.1,4.9,147.1z"/>
<path class="st0" d="M88.8,186.7c-0.2,0-0.3-0.1-0.3-0.3s0.1-0.3,0.3-0.3c0.2,0,0.3,0.1,0.3,0.3C89.1,186.6,88.9,186.7,88.8,186.7z"
	/>
<path class="st0" d="M25.3,107.9c-0.2,0-0.3-0.1-0.3-0.3c0-0.2,0.1-0.3,0.3-0.3c0.2,0,0.3,0.1,0.3,0.3
	C25.6,107.8,25.5,107.9,25.3,107.9z"/>
<path class="st0" d="M54.2,107.7c-0.2,0-0.3-0.1-0.3-0.3c0-0.2,0.1-0.3,0.3-0.3s0.3,0.1,0.3,0.3C54.5,107.5,54.4,107.7,54.2,107.7z"
	/>
<path class="st0" d="M30.4,110.7c-0.2,0-0.3-0.1-0.3-0.3c0-0.2,0.1-0.3,0.3-0.3c0.2,0,0.3,0.1,0.3,0.3
	C30.7,110.5,30.6,110.7,30.4,110.7z"/>
<path class="st0" d="M30.8,112.8c-0.2,0-0.3-0.1-0.3-0.3c0-0.2,0.1-0.3,0.3-0.3c0.2,0,0.3,0.1,0.3,0.3
	C31.1,112.6,31,112.8,30.8,112.8z"/>
<path class="st0" d="M5.2,147.4c-0.2,0-0.3-0.1-0.3-0.3s0.1-0.3,0.3-0.3c0.2,0,0.3,0.1,0.3,0.3C5.4,147.3,5.3,147.4,5.2,147.4z"/>
<path class="st0" d="M35.7,117.9c-0.2,0-0.3-0.1-0.3-0.3c0-0.2,0.1-0.3,0.3-0.3s0.3,0.1,0.3,0.3S35.9,117.9,35.7,117.9z"/>
<path class="st0" d="M86.6,193.4c-0.2,0-0.3-0.1-0.3-0.3s0.1-0.3,0.3-0.3c0.2,0,0.3,0.1,0.3,0.3C86.9,193.3,86.7,193.4,86.6,193.4z"
	/>
<path class="st0" d="M56.3,176c0,0.2-0.1,0.3-0.3,0.3s-0.3-0.1-0.3-0.3s0.1-0.3,0.3-0.3S56.3,175.8,56.3,176z"/>
<path class="st0" d="M54.7,144.9c0-0.2,0.1-0.3,0.3-0.3s0.3,0.1,0.3,0.3s-0.1,0.3-0.3,0.3S54.7,145.1,54.7,144.9z"/>
<path class="st0" d="M47.2,94.5c0-0.2,0.1-0.3,0.3-0.3s0.3,0.1,0.3,0.3c0,0.2-0.1,0.3-0.3,0.3S47.2,94.7,47.2,94.5z"/>
<path class="st0" d="M41.2,117c-0.2,0-0.3-0.1-0.3-0.3c0-0.2,0.1-0.3,0.3-0.3s0.3,0.1,0.3,0.3S41.4,117,41.2,117z"/>
<path class="st0" d="M39.9,128.9c-0.2,0-0.3-0.1-0.3-0.3s0.1-0.3,0.3-0.3s0.3,0.1,0.3,0.3S40,128.9,39.9,128.9z"/>
<path class="st0" d="M42.1,139.2c-0.2,0-0.3-0.1-0.3-0.3s0.1-0.3,0.3-0.3s0.3,0.1,0.3,0.3C42.4,139,42.2,139.2,42.1,139.2z"/>
<path class="st0" d="M39.9,141.9c-0.2,0-0.3-0.1-0.3-0.3s0.1-0.3,0.3-0.3s0.3,0.1,0.3,0.3C40.2,141.8,40.1,141.9,39.9,141.9z"/>
<path class="st0" d="M35.8,128.9c-0.2,0-0.3-0.1-0.3-0.3s0.1-0.3,0.3-0.3s0.3,0.1,0.3,0.3C36.1,128.7,36,128.9,35.8,128.9z"/>
<path class="st0" d="M32.5,132.4c-0.2,0-0.3-0.1-0.3-0.3s0.1-0.3,0.3-0.3s0.3,0.1,0.3,0.3C32.8,132.2,32.7,132.4,32.5,132.4z"/>
<path class="st0" d="M33.8,137.3c-0.2,0-0.3-0.1-0.3-0.3s0.1-0.3,0.3-0.3s0.3,0.1,0.3,0.3C34.1,137.1,34,137.3,33.8,137.3z"/>
<path class="st0" d="M30.4,136.2c-0.2,0-0.3-0.1-0.3-0.3s0.1-0.3,0.3-0.3c0.2,0,0.3,0.1,0.3,0.3C30.7,136.1,30.6,136.2,30.4,136.2z"
	/>
<path class="st0" d="M30.4,138.1c-0.2,0-0.3-0.1-0.3-0.3s0.1-0.3,0.3-0.3c0.2,0,0.3,0.1,0.3,0.3C30.7,138,30.6,138.1,30.4,138.1z"/>
<path class="st0" d="M21.9,140.9c-0.2,0-0.3-0.1-0.3-0.3s0.1-0.3,0.3-0.3c0.2,0,0.3,0.1,0.3,0.3C22.2,140.8,22.1,140.9,21.9,140.9z"
	/>
<path class="st0" d="M98.6,229.9c-0.2,0-0.3-0.1-0.3-0.3s0.1-0.3,0.3-0.3c0.2,0,0.3,0.1,0.3,0.3C98.9,229.7,98.8,229.9,98.6,229.9z"
	/>
<path class="st0" d="M95.2,226.7c-0.2,0-0.3-0.1-0.3-0.3s0.1-0.3,0.3-0.3c0.2,0,0.3,0.1,0.3,0.3C95.5,226.6,95.4,226.7,95.2,226.7z"
	/>
<path class="st0" d="M54.3,197.6c-0.2,0-0.3-0.1-0.3-0.3s0.1-0.3,0.3-0.3s0.3,0.1,0.3,0.3S54.4,197.6,54.3,197.6z"/>
<path class="st0" d="M58.2,208.5c-0.2,0-0.3-0.1-0.3-0.3s0.1-0.3,0.3-0.3s0.3,0.1,0.3,0.3S58.3,208.5,58.2,208.5z"/>
<path class="st0" d="M58,213c-0.2,0-0.3-0.1-0.3-0.3s0.1-0.3,0.3-0.3s0.3,0.1,0.3,0.3S58.2,213,58,213z"/>
<path class="st0" d="M16.9,187.6c-0.2,0-0.3-0.1-0.3-0.3s0.1-0.3,0.3-0.3c0.2,0,0.3,0.1,0.3,0.3C17.2,187.5,17.1,187.6,16.9,187.6z"
	/>
<path class="st0" d="M18.2,190.4c-0.2,0-0.3-0.1-0.3-0.3s0.1-0.3,0.3-0.3c0.2,0,0.3,0.1,0.3,0.3C18.5,190.2,18.3,190.4,18.2,190.4z"
	/>
<path class="st0" d="M1.1,160c0-0.2,0.1-0.3,0.3-0.3s0.3,0.1,0.3,0.3s-0.1,0.3-0.3,0.3S1.1,160.2,1.1,160z"/>
<path class="st0" d="M54.3,36.9c3.1-5.3,2.7-6-3.5-6c6.1,0,6.5-0.7,3.5-6c3.1,5.3,3.8,5.3,6.9,0c-3.1,5.3-2.7,6,3.5,6
	c-6.1,0-6.5,0.7-3.5,6C58.1,31.5,57.4,31.5,54.3,36.9z"/>
<radialGradient id="SVGID_1_" cx="164.2724" cy="194.7895" r="11.7958" gradientTransform="matrix(0.9966 0 0 -1 1.4254 232)" gradientUnits="userSpaceOnUse">
	<stop  offset="0" style="stop-color:#FFFFFF"/>
	<stop  offset="1" style="stop-color:#FFFFFF;stop-opacity:0"/>
</radialGradient>
<path class="st1" d="M173.4,37.4c1.1-0.1,2.2-0.2,3.5-0.2c-1.2,0-2.3-0.1-3.3-0.2C173.5,37.2,173.4,37.3,173.4,37.4z"/>
<radialGradient id="SVGID_2_" cx="141.1789" cy="87.2254" r="5.2465" gradientTransform="matrix(0.9966 0 0 -1 1.4254 232)" gradientUnits="userSpaceOnUse">
	<stop  offset="0" style="stop-color:#FFFFFF"/>
	<stop  offset="1" style="stop-color:#FFFFFF;stop-opacity:0"/>
</radialGradient>
<path class="st2" d="M147.4,144.8c-4.1,0-5.2,1.2-5.2,5.2c0-4.1-1.1-5.2-5.2-5.2c4.1,0,5.2-1.2,5.2-5.2
	C142.1,143.6,143.3,144.8,147.4,144.8z"/>
<radialGradient id="SVGID_3_" cx="46.4869" cy="66.6792" r="5.2423" gradientTransform="matrix(0.9966 0 0 -1 1.4254 232)" gradientUnits="userSpaceOnUse">
	<stop  offset="0" style="stop-color:#FFFFFF"/>
	<stop  offset="1" style="stop-color:#FFFFFF;stop-opacity:0"/>
</radialGradient>
<path class="st3" d="M53,165.3c-4.1,0-5.2,1.2-5.2,5.2c0-4.1-1.1-5.2-5.2-5.2c4.1,0,5.2-1.2,5.2-5.2C47.8,164.2,48.9,165.3,53,165.3
	z"/>
</svg>
