<?xml version="1.0" encoding="utf-8"?>
<!-- Generator: Adobe Illustrator 22.0.1, SVG Export Plug-In . SVG Version: 6.00 Build 0)  -->
<svg version="1.1" id="Layer_1" xmlns="http://www.w3.org/2000/svg" xmlns:xlink="http://www.w3.org/1999/xlink" x="0px" y="0px"
	 viewBox="0 0 356.3 355.7" style="enable-background:new 0 0 356.3 355.7;" xml:space="preserve">
<style type="text/css">
	.st0{fill:#FAD008;}
	.st1{fill:#FAA819;}
</style>
<g>
	<polygon class="st0" points="294.6,315.3 251.6,293.2 253.6,341.6 218.1,308.7 206.9,355.8 181.6,314.6 158.2,356.9 144.9,310.4 
		111,344.9 110.8,296.5 68.8,320.5 81.6,273.9 34.7,285.7 59.6,244.2 11.3,242.9 46.5,209.7 0.3,195.4 43.1,173 2.5,146.8 
		49.8,136.7 17.7,100.5 66,103.5 44.9,60 90.6,76 82,28.4 121.7,56.1 126.2,8 156.9,45.3 174.4,0.2 193.8,44.5 222.8,5.7 
		229.6,53.6 267.9,24.1 261.6,72.1 306.4,54 287.4,98.4 335.4,93.1 305.1,130.8 352.8,138.7 313.4,166.8 357.3,187.2 311.8,203.6 
		348.5,235.1 300.2,238.7 327,278.9 279.6,269.3 	"/>
	<ellipse class="st0" cx="178.5" cy="179.1" rx="130.4" ry="130.4"/>
	
		<ellipse transform="matrix(0.7071 -0.7071 0.7071 0.7071 -74.3649 178.6645)" class="st1" cx="178.5" cy="179.1" rx="103.2" ry="103.2"/>
</g>
</svg>
