<?xml version="1.0" encoding="utf-8"?>
<!-- Generator: Adobe Illustrator 22.0.1, SVG Export Plug-In . SVG Version: 6.00 Build 0)  -->
<svg version="1.1" id="Layer_1" xmlns="http://www.w3.org/2000/svg" xmlns:xlink="http://www.w3.org/1999/xlink" x="0px" y="0px"
	 viewBox="0 0 445.3 179.8" style="enable-background:new 0 0 445.3 179.8;" xml:space="preserve">
<style type="text/css">
	.st0{fill:#405763;}
	.st1{fill:#52717F;}
	.st2{fill:#26434F;}
</style>
<g>
	<g>
		<path class="st0" d="M445.8,2.5c-25.1-10.9-34.2,16.4-45.7,9.3c-43-26.4-90.9-2-133.4,11.2c-14,4.4-29.4,7-44.1,5.9
			c-4.2-0.3-8.4-0.7-12.7-1c-22-1.5-27.7-2-48.6-4.5c-21.3-2.1-42.6-4.5-63.9-7.3C66.9,12.2,0.8-4.6,0,27.8c0,1.9,0,3.7,0,5.4
			c28,5,73.2,14.9,107.3,31.7c15.5,7.6,21.3,38.2,25.8,63.5c5.4,3.7,4.1,8.7,6.7,16.9c2.5,8.3,5,17.3,10.5,23.5
			c7.7,8,25.5,12.8,35.8,9.6c-0.1,0-8.4-7.1-9.5-8c-8.5-7.1-7.5-39.8-4.5-40c0.1,0,0.3,0,0.4,0c0.8-4.1,3.1-11.9,8.5-15.6
			c20.3-13.8,85.2-4.2,122.4-16.8c6.9-4,13.6-8.5,19.9-13.4c3.8-2.9,7.5-5.9,11-9.1c15.8-14,32.9-42.2,56-43.6
			c9.1-0.5,4,28.1,30.8,40.2c4.5,2.6,4-41.5,3.1-42.2C425.7,28.1,443.4,4.1,445.8,2.5z"/>
	</g>
	<g>
		<path class="st1" d="M172.4,130.4c40.5-3.7,72.2-8,106.6-20.8c5.7-2.1,11.3-4.6,16.8-7.4c2.6-1.3,5.1-2.7,7.6-4.1
			c-37.2,12.6-102.1,3-122.4,16.8C175.5,118.5,173.3,126.3,172.4,130.4z"/>
	</g>
	<g>
		<path class="st1" d="M107.3,65C73.2,48.2,28.1,38.2,0,33.2C1.3,81,36.9,94.7,53,102.1c26.5,12.2,48.9,16.1,74.4,23.8
			c1.7,0.6,3.2,1.2,4.3,1.8c0.5,0.2,0.9,0.5,1.2,0.8C128.6,103.2,122.8,72.6,107.3,65z"/>
	</g>
	<path class="st2" d="M110,49.6c-4,0-4,7,0,7C115,56.6,115,49.6,110,49.6z"/>
</g>
</svg>
