<svg xmlns="http://www.w3.org/2000/svg" xmlns:xlink="http://www.w3.org/1999/xlink" viewBox="0 0 592.398 478.491">
  <defs>
    <style>
      .cls-1 {
        fill: url(#linear-gradient);
      }

      .cls-2 {
        fill: url(#linear-gradient-2);
      }
    </style>
    <linearGradient id="linear-gradient" x1="0.5" x2="0.5" y2="1" gradientUnits="objectBoundingBox">
      <stop offset="0" stop-color="#beefcc"/>
      <stop offset="1" stop-color="#00b236"/>
    </linearGradient>
    <linearGradient id="linear-gradient-2" x1="0.5" x2="0.5" y2="1" gradientUnits="objectBoundingBox">
      <stop offset="0" stop-color="#62f48d"/>
      <stop offset="1" stop-color="#18af45"/>
    </linearGradient>
  </defs>
  <g id="Group_22" data-name="Group 22" transform="translate(7.701 118.416)">
    <g id="tree-silhouette" transform="translate(128.748 -118.416)">
      <path id="Path_5" data-name="Path 5" class="cls-1" d="M442.96,141.654A70.222,70.222,0,0,0,380.073,71.82,70.007,70.007,0,0,0,278.19,36.049,70.147,70.147,0,0,0,147.626,59.041a71.372,71.372,0,0,0-8.685-.59,70.222,70.222,0,0,0-70.222,70.222c0,1.9.139,3.761.287,5.622a70.112,70.112,0,0,0-6.584,113.964c-.07,1.264-.194,2.519-.194,3.8a70.162,70.162,0,0,0,102.433,62.36c13.376,9.608,32.529,21.627,41.8,19.23,0,0,3.45,53.442,2.706,67.013-1.419,25.821-9.166,54.566-14.616,77.829h84.428s-12.446-51.86-12.989-69.175,5.413-49.2,5.413-49.2l29.288-30.3a70.367,70.367,0,0,0,109.412-50.868,70.125,70.125,0,0,0,28.193-112.3A69.982,69.982,0,0,0,442.96,141.654ZM180.883,302.825A70.536,70.536,0,0,0,194.84,284.2l13.787,28.884C208.62,313.085,201.121,316.4,180.883,302.825Zm51.55,17.835c-7.134,1.295-19.285-20.673-27.908-38.531a68.4,68.4,0,0,0,40.524,7.088C242.832,303.508,238.924,319.474,232.433,320.66Zm30.311,14.059c-16.5,4.582-6.623-29.6-1.893-49.387a68.918,68.918,0,0,0,9.879-4.544,69.835,69.835,0,0,0,17.447,37.724C280.137,325.654,270.878,332.462,262.745,334.719Z"/>
    </g>
    <path id="Path_6" data-name="Path 6" class="cls-2" d="M-22.056,10.576H27.658A3.645,3.645,0,0,1,31.3,14.221l32.942,79.67H-2.279L-25.7,14.221A3.645,3.645,0,0,1-22.056,10.576Z" transform="translate(18 266.108)"/>
  </g>
</svg>
