<svg id="Layer_1" data-name="Layer 1" xmlns="http://www.w3.org/2000/svg" viewBox="0 0 100 100"><defs><style>.cls-1{fill:#ccc;}.cls-2{fill:#b3b3b3;}</style></defs><title>Artboard 1</title><path class="cls-1" d="M73.6,91h-45a4,4,0,0,1-4-4V19a4,4,0,0,1,4-4h45a4,4,0,0,1,4,4V87A4,4,0,0,1,73.6,91Z"/><path class="cls-2" d="M70.1,40h-38a4,4,0,0,1-4-4V26a4,4,0,0,1,4-4h38a4,4,0,0,1,4,4V36A4,4,0,0,1,70.1,40Z"/><path class="cls-2" d="M70.1,54h-38a4,4,0,0,1-4-4h0a4,4,0,0,1,4-4h38a4,4,0,0,1,4,4h0A4,4,0,0,1,70.1,54Z"/><path class="cls-2" d="M70,68H32a4,4,0,0,1-4-4h0a4,4,0,0,1,4-4H70a4,4,0,0,1,4,4h0A4,4,0,0,1,70,68Z"/></svg>