<svg version="1.1" id="Layer_1" xmlns="http://www.w3.org/2000/svg" xmlns:xlink="http://www.w3.org/1999/xlink" x="0px" y="0px"
	 width="100%" viewBox="0 0 704 704" enable-background="new 0 0 704 704" xml:space="preserve">
<path fill="#2F5D50" opacity="1.000000" stroke="none" 
	d="
M705.000000,209.539368 
	C694.458130,221.794464 683.937561,233.608109 673.370239,245.379761 
	C644.772095,277.237244 616.185181,309.104980 587.534424,340.915192 
	C561.558472,369.755676 535.448914,398.476013 509.498871,427.339813 
	C478.539429,461.775421 447.727661,496.343842 416.772247,530.783142 
	C399.955841,549.492126 382.976837,568.055054 366.064728,586.678040 
	C361.810425,591.362732 357.551636,596.043762 353.259460,600.693726 
	C344.536743,610.143616 327.165588,613.436523 314.724701,600.788269 
	C266.001129,551.252319 216.625137,502.357971 167.492142,453.224670 
	C165.607300,451.339752 163.692429,449.488586 162.382004,447.112061 
	C159.398422,441.701263 159.987473,437.237671 164.597244,433.215912 
	C169.995163,428.506561 175.563065,423.992310 181.045441,419.379456 
	C184.395981,416.560333 188.233780,415.195557 192.604034,415.632080 
	C203.693893,416.739807 214.782303,418.883209 225.862366,418.827759 
	C242.346664,418.745270 254.502228,426.382141 266.082306,436.888397 
	C276.059235,445.940155 286.581909,454.514099 297.602875,462.245026 
	C304.213440,466.882233 310.764587,470.093079 305.436340,479.647583 
	C304.786896,480.812103 304.829254,482.978821 306.571808,484.151459 
	C308.449524,484.085266 308.334229,482.484344 308.798370,481.318756 
	C311.277740,475.092346 315.142639,472.475250 321.863159,472.691498 
	C324.799377,472.786011 327.602234,472.966370 329.008331,469.611420 
	C330.462891,466.140839 328.017090,464.233521 325.931702,462.436615 
	C304.347748,443.838501 282.557617,425.485779 260.287659,407.708923 
	C258.252228,406.084106 255.962051,405.416229 253.437637,405.010742 
	C230.462311,401.320068 207.607254,396.591919 184.091309,398.148987 
	C180.619308,398.378845 177.725494,399.076324 174.878891,401.136932 
	C150.584045,418.723816 125.980896,435.862091 100.259796,451.329529 
	C91.817520,456.406281 83.139366,461.021729 73.491867,463.422363 
	C66.546028,465.150726 59.750736,466.837891 52.699364,462.887848 
	C49.100788,460.872009 44.885433,463.105194 41.031548,464.020874 
	C34.556583,465.559326 28.112001,467.225250 21.642967,468.789307 
	C20.519375,469.060974 19.341908,469.167023 18.183132,469.224335 
	C15.639233,469.350128 12.944224,469.399689 11.615170,466.729492 
	C10.139383,463.764557 12.064364,461.407013 14.036754,459.727264 
	C20.374733,454.329651 26.701973,448.864136 33.468239,444.034027 
	C68.046997,419.350128 102.778351,394.880096 137.397339,370.252319 
	C139.994583,368.404602 142.552933,367.675018 145.716614,367.730682 
	C184.932968,368.420227 220.595459,357.379395 252.755112,334.976685 
	C254.787781,333.560760 256.631714,331.873840 258.267456,329.620117 
	C255.681396,330.718628 253.056122,331.733734 250.515289,332.928436 
	C222.550156,346.077759 193.176498,354.384003 162.534592,358.041840 
	C152.802155,359.203583 142.947800,359.855377 133.133469,358.362854 
	C130.695343,357.992065 127.748779,358.019623 126.949852,355.111786 
	C126.174362,352.289276 128.836990,351.033569 130.670868,349.775909 
	C146.638855,338.824768 161.714020,326.793457 175.931213,313.628998 
	C191.111877,299.572418 204.974091,284.261627 219.251785,269.335052 
	C234.682129,253.203400 250.490250,237.433212 266.123901,221.495865 
	C279.414032,207.947556 288.576111,191.842834 295.506012,174.313416 
	C301.484039,159.191727 309.915131,145.644821 323.092712,135.774887 
	C348.427124,116.799614 375.976685,116.160088 404.510681,127.137184 
	C415.573608,131.393112 425.057770,138.171448 432.168488,147.833420 
	C434.389404,150.851181 437.070740,151.725433 440.692352,151.861008 
	C451.667633,152.271820 462.628571,153.069580 473.594116,153.732681 
	C474.912903,153.812424 476.309265,153.822983 476.976959,155.504471 
	C476.673523,158.228561 474.176849,158.938416 472.263580,160.055222 
	C462.768799,165.597443 453.277893,171.152969 443.647308,176.452469 
	C439.839386,178.547897 438.509125,181.295715 438.201660,185.626648 
	C437.384979,197.132309 440.454010,207.720932 444.608337,218.158524 
	C450.942200,234.072006 455.105652,250.313019 454.489868,267.711639 
	C453.293884,301.504333 442.401764,331.526367 421.025330,357.746155 
	C404.282471,378.282501 382.819153,391.606323 357.718781,399.465271 
	C354.958252,400.329559 351.853302,400.612518 349.646759,402.898376 
	C350.374512,405.446503 352.466125,406.382355 354.200745,407.516907 
	C361.728821,412.441010 369.385315,417.169403 376.893768,422.122559 
	C379.842194,424.067566 382.234222,424.153870 384.870880,421.568146 
	C388.606384,417.904846 393.662964,417.177795 399.416443,416.093933 
	C394.811707,411.645172 398.302521,409.005615 400.944977,406.227814 
	C435.050507,370.375458 469.126831,334.495178 503.298767,298.706146 
	C544.029724,256.047699 584.844543,213.469360 625.627441,170.860504 
	C628.852661,167.490829 632.060242,164.101639 635.367249,160.813232 
	C642.321777,153.897766 649.986755,152.940048 657.802063,158.784943 
	C671.675659,169.160782 685.313965,179.855988 698.890137,190.620148 
	C701.164978,192.423874 702.630005,195.249054 704.734619,197.801132 
	C705.000000,201.692902 705.000000,205.385818 705.000000,209.539368 
M339.702179,385.266327 
	C351.784576,383.306366 363.676300,380.268280 374.112122,373.868713 
	C409.449280,352.198792 428.683044,321.229828 425.590027,278.902435 
	C423.613312,251.851486 409.690796,232.072083 385.003571,220.409683 
	C367.953796,212.355240 349.714630,211.207733 331.276825,212.613998 
	C327.017853,212.938843 322.338623,212.396698 317.479675,215.289047 
	C321.403992,216.940750 324.566711,218.261597 327.721405,219.601303 
	C354.702972,231.059570 363.992004,254.698639 351.951538,281.370453 
	C345.822021,294.948486 336.602814,306.296265 325.889313,316.436768 
	C301.058319,339.939728 271.774750,355.451935 238.904388,364.461639 
	C236.359055,365.159302 233.498154,365.428497 230.971817,367.797668 
	C232.286484,368.202362 233.034042,368.491882 233.807831,368.661835 
	C248.426971,371.873535 263.065277,374.999725 277.666901,378.288818 
	C297.810486,382.826294 317.922638,387.520294 339.702179,385.266327 
M339.157410,454.423798 
	C341.457642,456.501007 344.168701,457.464539 347.235229,457.945770 
	C353.859863,458.985382 359.635742,461.629700 363.467499,467.530518 
	C364.030823,468.397980 364.627289,469.701691 366.412659,468.775452 
	C366.364197,464.129089 363.543365,461.183716 359.815155,459.168762 
	C355.404663,456.785095 354.850861,453.288574 356.103973,449.044586 
	C357.394196,444.675049 359.453766,440.760742 362.900452,437.619324 
	C364.179779,436.453308 366.002655,435.591675 366.236053,433.391235 
	C365.826752,432.917114 365.476257,432.310791 364.957520,431.939697 
	C352.788055,423.233734 340.383881,414.885132 327.381989,407.456879 
	C326.215118,406.790222 324.988770,406.524933 323.570221,406.635437 
	C313.139069,407.448273 302.702118,408.115265 292.222687,407.773743 
	C290.533295,407.718658 288.559967,407.415405 286.872955,409.432739 
	C304.174103,424.314270 321.396057,439.127655 339.157410,454.423798 
M383.343079,173.048538 
	C387.694611,178.409836 391.758911,179.767609 397.122833,177.651978 
	C401.892487,175.770752 404.913544,171.299210 404.665741,166.487564 
	C404.404266,161.410202 400.625488,157.112534 395.111694,155.797195 
	C390.806274,154.770157 387.183289,156.320633 384.470520,159.536240 
	C381.228546,163.379196 380.318909,167.744965 383.343079,173.048538 
M349.853424,470.687256 
	C347.604614,469.977966 345.310974,468.554016 342.819519,471.162598 
	C345.573456,473.195312 348.058350,475.064728 350.581024,476.881744 
	C353.230988,478.790436 353.385132,482.875885 356.777649,484.295837 
	C358.881805,478.385437 357.469879,475.491577 349.853424,470.687256 
M406.022095,417.441162 
	C408.171448,421.083252 411.539764,423.429199 415.193115,427.049957 
	C414.438049,420.654266 410.596191,418.934387 406.022095,417.441162 
M404.475098,436.545288 
	C404.633423,436.567200 404.814087,436.645782 404.943665,436.594727 
	C405.066437,436.546356 405.241425,436.326477 405.213257,436.242523 
	C403.796844,432.024933 400.408600,430.614685 396.728973,429.607056 
	C399.266449,431.763184 401.802887,433.843811 404.475098,436.545288 
z"/>
<path fill="#2F5D50" opacity="1.000000" stroke="none" 
	d="
M197.419250,174.577179 
	C203.542389,180.736679 209.446335,186.616043 215.247650,192.594986 
	C216.621857,194.011246 217.756287,195.696915 218.800476,197.382858 
	C219.424652,198.390625 219.496063,199.645508 218.458282,200.586502 
	C217.622787,201.344086 216.579269,201.303604 215.646225,200.893036 
	C214.128525,200.225235 212.579178,199.553543 211.210419,198.634445 
	C190.036255,184.416336 169.260818,169.661163 150.123108,152.734589 
	C146.502991,149.532745 142.938004,146.240768 140.682220,141.848892 
	C139.566147,139.675980 138.983810,137.334091 140.682312,135.270386 
	C142.408188,133.173401 144.887817,133.411758 147.163986,134.135956 
	C151.662521,135.567230 155.590408,138.071732 159.268204,141.001877 
	C172.441452,151.497253 184.894806,162.809464 197.419250,174.577179 
z"/>
<path fill="#2F5D50" opacity="1.000000" stroke="none" 
	d="
M144.140457,237.199524 
	C128.086685,234.750809 112.351425,233.113586 96.977196,229.353302 
	C94.570808,228.764740 92.218582,227.846405 89.949089,226.838013 
	C87.827972,225.895538 86.542229,224.196167 86.697876,221.702301 
	C86.859177,219.117905 88.643921,218.003708 90.779671,217.213760 
	C95.844337,215.340469 101.060898,216.140015 106.107086,216.866959 
	C130.201462,220.337952 153.807449,226.029922 177.079910,233.133224 
	C177.556717,233.278763 178.028519,233.457321 178.478546,233.671204 
	C180.382462,234.575989 183.153397,235.081604 182.711365,237.807571 
	C182.261765,240.580292 179.505768,240.406433 177.391464,240.237289 
	C168.600540,239.534073 159.821304,238.684143 151.038544,237.879837 
	C148.887451,237.682846 146.739182,237.454895 144.140457,237.199524 
z"/>
<path fill="#2F5D50" opacity="1.000000" stroke="none" 
	d="
M241.181946,114.933395 
	C247.845978,131.307098 253.690872,147.547089 257.360260,164.495178 
	C257.570953,165.468262 257.738953,166.461334 257.801697,167.453033 
	C257.888336,168.823242 257.713501,170.281219 256.350220,170.907990 
	C254.875977,171.585754 253.777481,170.522415 253.002075,169.420044 
	C251.761108,167.655792 250.555984,165.845657 249.544693,163.943787 
	C240.643524,147.203995 232.147522,130.268372 225.031662,112.673790 
	C223.654877,109.269569 222.528351,105.787270 222.128616,102.129654 
	C221.844894,99.533684 222.208694,96.992874 224.907059,95.756210 
	C227.575348,94.533333 229.807297,95.802711 231.607178,97.702324 
	C236.169769,102.517746 238.558563,108.581879 241.181946,114.933395 
z"/>
<path fill="#2F5D50" opacity="1.000000" stroke="none" 
	d="
M159.697388,279.773987 
	C161.651855,279.891602 163.375854,280.036377 163.550583,281.932983 
	C163.759094,284.196472 161.779419,285.024323 160.137344,285.705780 
	C149.052383,290.306274 137.538422,293.566803 125.872787,296.280029 
	C121.030579,297.406219 116.162323,298.636230 111.098778,298.245178 
	C109.054565,298.087280 106.757774,297.877625 106.192253,295.607025 
	C105.522499,292.917877 107.871765,291.784912 109.834808,290.980652 
	C121.287018,286.288605 133.334808,283.820770 145.472549,281.758331 
	C150.054169,280.979767 154.674316,280.427887 159.697388,279.773987 
z"/>
</svg>