<svg id="Layer_1" data-name="Layer 1" xmlns="http://www.w3.org/2000/svg" viewBox="0 0 1920 1349"><defs><style>.cls-1{fill:#5ef782;}.cls-2{fill:#aecff8;}</style></defs><circle class="cls-1" cx="221" cy="332" r="66"/><circle class="cls-2" cx="1659.5" cy="222.5" r="49.5"/><circle class="cls-1" cx="1001.54" cy="104.19" r="30"/><circle class="cls-1" cx="433.85" cy="931.86" r="15"/><circle class="cls-1" cx="1203" cy="362" r="15"/><circle class="cls-1" cx="39.5" cy="30.5" r="7.5"/><circle class="cls-1" cx="1406" cy="317" r="15"/><circle class="cls-1" cx="242" cy="696" r="15"/><circle class="cls-1" cx="1625" cy="927" r="15"/><circle class="cls-1" cx="781" cy="452" r="15"/><circle class="cls-1" cx="271.65" cy="1004.89" r="30"/><circle class="cls-1" cx="1203" cy="588" r="80"/><circle class="cls-1" cx="943.5" cy="713.5" r="32.5"/><circle class="cls-1" cx="1488.14" cy="55.5" r="32.5"/><circle class="cls-2" cx="1244.84" cy="225.9" r="31.5"/><circle class="cls-2" cx="361.5" cy="729.5" r="10.5"/><circle class="cls-2" cx="1042.09" cy="396.31" r="10.5"/><circle class="cls-2" cx="636.6" cy="980.55" r="10.5"/><circle class="cls-2" cx="1188.5" cy="834.5" r="10.5"/><circle class="cls-2" cx="636.5" cy="577.5" r="10.5"/><circle class="cls-2" cx="1486" cy="365" r="18"/><circle class="cls-2" cx="372.5" cy="161.5" r="10.5"/><circle class="cls-2" cx="1690.89" cy="445" r="17"/><circle class="cls-2" cx="1756.5" cy="46.5" r="8.5"/><circle class="cls-2" cx="1366.49" cy="128.53" r="8.5"/><circle class="cls-1" cx="1545.5" cy="444.5" r="8.5"/><circle class="cls-2" cx="1488.5" cy="966.5" r="19.5"/><rect class="cls-1" x="602.89" y="676.9" width="126.51" height="126.51" transform="translate(-195.22 240.53) rotate(-17.9)"/><rect class="cls-2" x="475" y="393" width="69" height="69"/><rect class="cls-1" x="1803.76" y="125.37" width="51.47" height="51.47" transform="translate(429 1337.91) rotate(-45)"/><rect class="cls-1" x="744.75" y="165.75" width="57" height="57" transform="translate(324.79 -464.94) rotate(41.67)"/><rect class="cls-1" x="1306.56" y="1009.86" width="38.76" height="38.76" transform="translate(-351.74 975.86) rotate(-36)"/><rect class="cls-1" x="1419.09" y="782.68" width="57" height="57" transform="translate(2605.79 -377.14) rotate(105)"/><rect class="cls-2" x="1431.04" y="551.77" width="114" height="114" transform="translate(-115.07 486.74) rotate(-17.9)"/><rect class="cls-2" x="111.47" y="523.23" width="87.71" height="87.71" transform="translate(275.42 -8.49) rotate(27.1)"/><rect class="cls-2" x="135.92" y="97.24" width="63.26" height="63.26" transform="translate(77.11 -62.18) rotate(27.1)"/><rect class="cls-2" x="923.54" y="911.89" width="39.7" height="39.7" transform="translate(528.09 -327.49) rotate(27.1)"/><polygon class="cls-1" points="1807.75 730.74 1769.54 588.11 1665.12 692.53 1807.75 730.74"/><polygon class="cls-2" points="917.06 305.98 784.5 341.5 881.54 438.54 917.06 305.98"/><polygon class="cls-2" points="1799.17 939.23 1782.11 875.57 1735.51 922.17 1799.17 939.23"/><polygon class="cls-2" points="92.11 779.38 109.17 843.05 155.78 796.44 92.11 779.38"/><polygon class="cls-1" points="501.11 64.38 518.17 128.05 564.78 81.44 501.11 64.38"/><polygon class="cls-2" points="585.99 213.55 623.4 203.52 596.02 176.14 585.99 213.55"/></svg>