<?xml version="1.0" encoding="utf-8"?>
<!-- Generator: Adobe Illustrator 22.1.0, SVG Export Plug-In . SVG Version: 6.00 Build 0)  -->
<svg version="1.1" id="Layer_1" xmlns="http://www.w3.org/2000/svg" xmlns:xlink="http://www.w3.org/1999/xlink" x="0px" y="0px"
	 viewBox="0 0 990 550" style="enable-background:new 0 0 990 550;" xml:space="preserve">
<style type="text/css">
	.st0{fill:url(#SVGID_1_);}
	.st1{opacity:0.8;fill:none;stroke:#FFFFFF;stroke-width:4;stroke-miterlimit:10;}
</style>
<linearGradient id="SVGID_1_" gradientUnits="userSpaceOnUse" x1="495" y1="550" x2="495" y2="-9.094947e-13">
	<stop  offset="0" style="stop-color:#6BB446"/>
	<stop  offset="1" style="stop-color:#2A4672"/>
</linearGradient>
<rect class="st0" width="990" height="550"/>
<circle class="st1" cx="415.5" cy="67.5" r="50"/>
<circle class="st1" cx="58.5" cy="67.5" r="50"/>
<circle class="st1" cx="177.5" cy="67.5" r="50"/>
<circle class="st1" cx="296.5" cy="67.5" r="50"/>
<circle class="st1" cx="891.5" cy="67.5" r="50"/>
<circle class="st1" cx="1010.5" cy="67.5" r="50"/>
<circle class="st1" cx="534.5" cy="67.5" r="50"/>
<circle class="st1" cx="653.5" cy="67.5" r="50"/>
<circle class="st1" cx="772.5" cy="67.5" r="50"/>
<circle class="st1" cx="353" cy="168" r="50"/>
<circle class="st1" cx="-4" cy="168" r="50"/>
<circle class="st1" cx="115" cy="168" r="50"/>
<circle class="st1" cx="234" cy="168" r="50"/>
<circle class="st1" cx="829" cy="168" r="50"/>
<circle class="st1" cx="948" cy="168" r="50"/>
<circle class="st1" cx="472" cy="168" r="50"/>
<circle class="st1" cx="591" cy="168" r="50"/>
<circle class="st1" cx="710" cy="168" r="50"/>
<circle class="st1" cx="416" cy="268" r="50"/>
<circle class="st1" cx="59" cy="268" r="50"/>
<circle class="st1" cx="178" cy="268" r="50"/>
<circle class="st1" cx="297" cy="268" r="50"/>
<circle class="st1" cx="892" cy="268" r="50"/>
<circle class="st1" cx="1011" cy="268" r="50"/>
<circle class="st1" cx="535" cy="268" r="50"/>
<circle class="st1" cx="654" cy="268" r="50"/>
<circle class="st1" cx="773" cy="268" r="50"/>
<circle class="st1" cx="353" cy="368" r="50"/>
<circle class="st1" cx="-4" cy="368" r="50"/>
<circle class="st1" cx="115" cy="368" r="50"/>
<circle class="st1" cx="234" cy="368" r="50"/>
<circle class="st1" cx="829" cy="368" r="50"/>
<circle class="st1" cx="948" cy="368" r="50"/>
<circle class="st1" cx="472" cy="368" r="50"/>
<circle class="st1" cx="591" cy="368" r="50"/>
<circle class="st1" cx="710" cy="368" r="50"/>
<circle class="st1" cx="416" cy="469" r="50"/>
<circle class="st1" cx="59" cy="469" r="50"/>
<circle class="st1" cx="178" cy="469" r="50"/>
<circle class="st1" cx="297" cy="469" r="50"/>
<circle class="st1" cx="892" cy="469" r="50"/>
<circle class="st1" cx="1011" cy="469" r="50"/>
<circle class="st1" cx="535" cy="469" r="50"/>
<circle class="st1" cx="654" cy="469" r="50"/>
<circle class="st1" cx="773" cy="469" r="50"/>
<circle class="st1" cx="353" cy="570" r="50"/>
<circle class="st1" cx="-4" cy="570" r="50"/>
<circle class="st1" cx="115" cy="570" r="50"/>
<circle class="st1" cx="234" cy="570" r="50"/>
<circle class="st1" cx="829" cy="570" r="50"/>
<circle class="st1" cx="948" cy="570" r="50"/>
<circle class="st1" cx="472" cy="570" r="50"/>
<circle class="st1" cx="591" cy="570" r="50"/>
<circle class="st1" cx="710" cy="570" r="50"/>
<circle class="st1" cx="353" cy="-33" r="50"/>
<circle class="st1" cx="-4" cy="-33" r="50"/>
<circle class="st1" cx="115" cy="-33" r="50"/>
<circle class="st1" cx="234" cy="-33" r="50"/>
<circle class="st1" cx="829" cy="-33" r="50"/>
<circle class="st1" cx="948" cy="-33" r="50"/>
<circle class="st1" cx="472" cy="-33" r="50"/>
<circle class="st1" cx="591" cy="-33" r="50"/>
<circle class="st1" cx="710" cy="-33" r="50"/>
</svg>
