<svg width="400" height="400" viewBox="0 0 400 400" fill="none" xmlns="http://www.w3.org/2000/svg">
<g clip-path="url(#clip0_2080_9680)">
<rect width="400" height="400" rx="80" fill="white"/>
<path d="M326.039 173.994C324.855 170.159 323.221 166.726 321.138 163.696C319.102 160.618 316.64 157.99 313.752 155.812C310.911 153.634 307.644 152.001 303.951 150.912C300.257 149.775 296.233 149.207 291.877 149.207C284.064 149.207 277.104 151.172 270.996 155.102C264.888 159.032 260.082 164.809 256.578 172.432C253.122 180.007 251.394 189.24 251.394 200.131C251.394 211.115 253.122 220.419 256.578 228.042C260.035 235.666 264.841 241.466 270.996 245.443C277.151 249.373 284.301 251.338 292.445 251.338C299.831 251.338 306.223 249.917 311.621 247.077C317.066 244.236 321.257 240.211 324.192 235.003C327.128 229.747 328.596 223.592 328.596 216.537L334.561 217.46H295.073V196.863H354.093V214.335C354.093 226.788 351.441 237.559 346.138 246.65C340.835 255.741 333.543 262.749 324.263 267.673C314.983 272.55 304.329 274.988 292.303 274.988C278.903 274.988 267.137 271.982 257.005 265.969C246.919 259.908 239.036 251.314 233.354 240.187C227.72 229.013 224.902 215.756 224.902 200.415C224.902 188.672 226.56 178.184 229.874 168.952C233.236 159.719 237.923 151.882 243.936 145.443C249.95 138.956 257.005 134.032 265.101 130.67C273.198 127.261 282.005 125.557 291.522 125.557C299.571 125.557 307.076 126.74 314.036 129.108C320.996 131.428 327.175 134.742 332.573 139.051C338.018 143.36 342.492 148.473 345.996 154.392C349.5 160.31 351.796 166.845 352.885 173.994H326.039Z" fill="#111827"/>
<path d="M47.3477 127.545H79.592L122.774 232.943H124.478L167.66 127.545H199.904V272.999H174.62V173.07H173.271L133.072 272.573H114.18L73.9812 172.857H72.6317V272.999H47.3477V127.545Z" fill="#111827"/>
</g>
<defs>
<clipPath id="clip0_2080_9680">
<rect width="400" height="400" fill="white"/>
</clipPath>
</defs>
</svg>
