<svg width="100" height="53" viewBox="0 0 100 53" fill="none" xmlns="http://www.w3.org/2000/svg">
<g clip-path="url(#clip0)">
<path d="M94.9454 27.5848C94.9454 39.8985 78.4824 49.8794 58.1761 49.8794C37.8699 49.8794 24.1972 46.1007 25.4363 27.7108C26.9474 5.29025 37.8699 5.29025 58.1761 5.29025C78.4824 5.29025 94.9454 15.2712 94.9454 27.5848Z" fill="white"/>
<path d="M58.6185 2.90363C42.7145 5.2666 10.7101 0.938681 1.2231 7.50362C-6.15595 12.61 21.7711 20.2204 21.7711 27.3571C21.7711 32.5164 7.07094 35.7258 11.1433 39.953C19.9578 49.0774 56.493 52.0575 56.493 52.0575C56.493 52.0575 89.5274 54.9621 96.8813 28.5739C106.331 -5.329 89.5602 -1.69636 58.6185 2.90363ZM53.6597 39.0057L50.9826 22.2533L42.7724 40.2804L34.794 22.2357L31.8122 39.0057H27.4804L33.3207 9.1713L42.843 30.7328L52.7077 9.16627L57.9537 39.0007L53.6597 39.0057ZM89.5602 25.4703C89.5896 27.344 89.341 29.2117 88.8223 31.0124C88.3108 32.555 87.485 33.9747 86.397 35.1817C83.8198 38.0821 80.5458 39.5323 76.5751 39.5323C72.695 39.5323 69.3715 38.1299 66.6045 35.3253C65.2652 34.0034 64.2072 32.4241 63.4943 30.6823C62.7814 28.9406 62.4285 27.0725 62.4566 25.1907C62.4566 21.16 63.8636 17.7457 66.6776 14.9477C69.4915 12.1498 72.9174 10.7416 76.9553 10.7231C79.054 10.7078 81.1295 11.1622 83.0298 12.0532C84.8247 12.94 86.5876 14.3776 88.3186 16.366L85.3367 19.2177C83.0601 16.1847 80.2898 14.669 77.0259 14.6706C74.0893 14.6706 71.628 15.6825 69.6418 17.7062C67.6472 19.6964 66.6498 22.1912 66.6498 25.1907C66.6498 28.2825 67.758 30.8286 69.9742 32.8288C72.0461 34.6879 74.2917 35.6166 76.7111 35.615C78.7499 35.6184 80.7199 34.8776 82.2516 33.5316C83.8937 32.1276 84.8104 30.4482 85.0018 28.4933H78.0962V24.5558H89.5602V25.4703Z" fill="#004EC7"/>
</g>
<defs>
<clipPath id="clip0">
<rect width="100" height="52.381" fill="white"/>
</clipPath>
</defs>
</svg>
