<?xml version="1.0" encoding="utf-8"?>
<!-- Generator: Adobe Illustrator 23.0.6, SVG Export Plug-In . SVG Version: 6.00 Build 0)  -->
<svg version="1.1" id="Layer_1" xmlns="http://www.w3.org/2000/svg" xmlns:xlink="http://www.w3.org/1999/xlink" x="0px" y="0px"
	 viewBox="0 0 1920 968" style="enable-background:new 0 0 1920 968;" xml:space="preserve">
<style type="text/css">
	.st0{fill:url(#SVGID_1_);}
	.st1{fill:url(#SVGID_2_);}
	.st2{fill:url(#SVGID_3_);}
	.st3{fill:#E8E8E8;}
</style>
<linearGradient id="SVGID_1_" gradientUnits="userSpaceOnUse" x1="283.618" y1="-495.2357" x2="594.9053" y2="-495.2357" gradientTransform="matrix(-0.9015 -0.4327 0.4327 -0.9015 1111.1959 414.6226)">
	<stop  offset="0" style="stop-color:#6BB446"/>
	<stop  offset="1" style="stop-color:#2A4672"/>
</linearGradient>
<path class="st0" d="M642.84,731.15c-45.15,56.63-82.15,17.3-121.32,24.83c-42,8.07-185.83,52.18-223.99-10.28
	c-16.83-27.55,195.65-250.97,318-201.98C662.15,562.38,679.55,685.1,642.84,731.15z"/>
<linearGradient id="SVGID_2_" gradientUnits="userSpaceOnUse" x1="779.069" y1="-306.3714" x2="1154.8348" y2="-306.3714" gradientTransform="matrix(0.2668 0.9638 -0.9638 0.2668 845.5404 -247.441)">
	<stop  offset="0" style="stop-color:#6BB446"/>
	<stop  offset="1" style="stop-color:#2A4672"/>
</linearGradient>
<path class="st1" d="M1418.51,787.01c-116.94,7.88-155.67-28.4-203.69-129.78c-57.15-120.65-24.03-204.47,105.22-225.9
	c115.78-19.2,242.21,23.72,272.13,131.83S1551.23,778.07,1418.51,787.01z"/>
<linearGradient id="SVGID_3_" gradientUnits="userSpaceOnUse" x1="691.5104" y1="708.2895" x2="1141.6254" y2="708.2895" gradientTransform="matrix(1.1023 -0.3257 0.2468 0.8353 -239.5581 211.2999)">
	<stop  offset="0" style="stop-color:#6BB446"/>
	<stop  offset="1" style="stop-color:#2A4672"/>
</linearGradient>
<path class="st2" d="M1119.85,472.68c12.77,182.26,171.33,260.22-8.21,313.27s-371.14,11.43-406.38-189.3
	c-31.57-179.81,123.22-388.31,302.76-441.36S1105.35,265.82,1119.85,472.68z"/>
<g>
	<path d="M1126.37,233.89h-341.6c-13.32,0-24.11,10.79-24.11,24.11v502.12c0,13.32,10.79,24.11,24.11,24.11h341.6
		c13.32,0,24.11-10.79,24.11-24.11V258C1150.48,244.68,1139.69,233.89,1126.37,233.89z M955.57,771.33
		c-6.73,0-12.18-5.45-12.18-12.18c0-6.73,5.45-12.18,12.18-12.18c6.73,0,12.18,5.45,12.18,12.18
		C967.76,765.87,962.3,771.33,955.57,771.33z M1124.69,731.2H786.46V282.62h338.23V731.2z"/>
	<rect x="802.22" y="496.16" class="st3" width="306.7" height="14.33"/>
	<rect x="802.22" y="521.95" class="st3" width="306.7" height="14.33"/>
	<rect x="802.22" y="470.36" class="st3" width="306.7" height="14.33"/>
	<rect x="802.22" y="299.81" class="st3" width="306.7" height="147.62"/>
</g>
</svg>
