<svg id="Layer_1" data-name="Layer 1" xmlns="http://www.w3.org/2000/svg" viewBox="0 0 1920 6924"><defs><style>.cls-1{fill:#005de5;}.cls-2{fill:#003c84;}.cls-3{fill:#99c7ff;}.cls-4{fill:#cae0ff;}.cls-5{fill:#fff;}.cls-6{fill:#2c8cff;}.cls-7{fill:#002760;}.cls-8{fill:#004ec7;}.cls-9{fill:#42210b;}</style></defs><rect class="cls-1" y="2078.51" width="1920" height="2099.49"/><path class="cls-2" d="M0,4230l1-243.56s-5-42.75,47-70.42,139.55-81.11,159.78,0S254,3981.15,270,4023.81s-61-135.2,31-133.07,108,34.13,170,44.8,63,21.32,101,8.53,16.36-5.52,59.68-20.89,40.32-43.1,98.32-19.64,56.37-1.32,61.18,34.53,3.19,42.8,0,57.46S686,4031.87,825,4036s134.74,6.57,196.37,0,63.63,6.62,86.63-10.64-1-27.93,57-49.26,58-33.44,90-10.32-15,53,62,50.85,74,36.77,98.5-14.68-19.5-6.65,24.5-51.44,36.89-105.63,86.45-57.08,41.55,34.32,49.55,68.09-38,42.31,14,50.84,34,66.12,94,0-11-53.32,70-72.52,71-23.46,91,0,16,21.33,24,36.26,10.87,30.36,27.43,28,24.57,6.38,24.57,6.38v198.25"/><polygon class="cls-3" points="709.31 4262 670.54 4233.44 857 2098 898.3 2098 709.31 4262"/><rect class="cls-3" x="938.04" y="2098" width="40" height="2062.29"/><polygon class="cls-3" points="1514.58 4082.5 1479.94 4144 1096 2098 1143 2098 1514.58 4082.5"/><polygon class="cls-3" points="403.58 4041.33 438.16 4103.12 818 2098 771 2098 403.58 4041.33"/><polygon class="cls-3" points="1197.68 4079.6 1236.48 4051.33 1069 2098 1027 2098 1197.68 4079.6"/><rect class="cls-3" y="2079" width="1920" height="18.89"/><rect class="cls-4" y="2079" width="1920" height="7"/><rect class="cls-5" width="1920" height="2079"/><circle id="sun" class="cls-6" cx="610.5" cy="551.5" r="160.5"/><path id="cloud3" class="cls-3" d="M375.5,1434H945.87s67.63-2,65.63-92-118.5-121-153-137C791,1173.68,761,1137,693,1095c-82.31-50.84-156,33-219,89-38.88,34.56-118,22.5-158,60.5-41,38.94-56.71,77.7-34,133C305,1433.5,375.5,1434,375.5,1434Z"/><path id="cloud2" class="cls-3" d="M1629.28,978h-480S1053,982,1053,939c0-40,46-28,113-54,58.27-22.61,119.07-53.49,119.07-53.49s52.61-49.21,120.61-53.51c110.81-7,184.46,57.81,184.46,57.81s59.57,4,93.23,29.19c34.49,25.81,43.71,38.89,24.59,75.55C1688.61,977.67,1629.28,978,1629.28,978Z"/><path id="cloud1" class="cls-3" d="M251.25,710H518.42S630,710.89,630,687c0-22.28-41.71-44.53-79-59-32.43-12.59-137.45-26.89-175.3-29.28-61.67-3.89-178.89,70.07-168.25,90.47C218.22,709.82,251.25,710,251.25,710Z"/><path class="cls-7" d="M1883,3828c-52-25.95-139.55-76-159.78,0S1696,3912,1680,3952s32,69-60,71q-18.13.39-34.38.3c.14-1.44-.21-3.36-2.53-5.24-3.95-3.18-4-.53-3.95-3.18s.54-1.05,0-2.65a42.17,42.17,0,0,1-1-4.86s7.09-2.34,5.26-7.06-2-8.73-6.32-6.85-5.63,5.28-5.74,6.41,1.43,3.93-.25,4.89-2.08.19-3.59,1.24c-.75.53-2.49-.24-4-.94a26.21,26.21,0,0,0,2.46-2.39c.3-.2,1.36-2.35.89-2.5s1.41-.06-.55-2.09c-1.26-1.31-3.11,2-3.22.51-.48-6.21-.35-3.13-1.27-3a14.47,14.47,0,0,1-3.56-.51s-2.62,3.44-5.36,4.09-5,.44-4.25,3a5.11,5.11,0,0,0,3.09,3.65c.62.15,2.28-.49,2.68.51s-.06,1.15.41,2.07a1.86,1.86,0,0,0,2.15,1.21,9.21,9.21,0,0,0,2.91-.95c.6-.46,0-.67.9-.91a1.08,1.08,0,0,0,.46-.28c0,1.08-.15,2.29-.2,3.38-2.57.57-4.25,1.65-5.14,1.44s-1.46,1.49-2.07,2.71c.07-.33.07-.57,0-.68-.45-.44.25-1.54.41-2.61s-1.69-3-1.63-4-3.55-2.1-4.53-2.4-2.86.88-3.62,1,3.4,4.53,2.54,4.31a20.18,20.18,0,0,0-5.8-.66,23.73,23.73,0,0,0-3.69.85c-.36,0-2.36,1.34-2,1.71a3.33,3.33,0,0,0,3.92,1.64c2.75-.63,1.6-1.55,2.75-.63s.27.6,1.14.93a24.35,24.35,0,0,1,2.47,1.25s-1.43,3.89,1.26,4.72c.64.2,1.22.42,1.75.61a18.4,18.4,0,0,0-3.19,1c-16.07-1.05-30-2.75-41.7-5.24,1.57-1.55,3.24-3.16,5-4.77,12-10.79-27.12-46.89-27.12-46.89s18.1-3.32,21.87-7.12,14.14,6.27,30,2.93c.65-.14,1.27-.29,1.87-.46q.15.51.33,1.05c1.45,4.21,5.59,9.61,6.84,11.13s-11.68-2.7-11.15-1.07-.07,6.57,1.46,8.27,7.12,8,9.14,6.91,7.66.84,9.66-.49,3.58-3.81,4.9-3.3,5.46-5,10-8.74.14-6.18-4.09-10.84-10.78,1.9-10.78,1.9a52.2,52.2,0,0,1-4.85-3.81c-1.49-1.46,0,0-3-1.45-2.32-1.13-1-.49-1-3.11.41-.31.8-.64,1.16-1a.56.56,0,0,0,.22.06c.8.07,3.75,1.58,8.17,2.21s5.47,2.65,7.4,2.23,1.06.58,2.76.84,4.5-.65,6.71-1.24,3-2.37,3-4.67-1.13-2.12-1.4-4.5,3.67-2.91,4.72-3.86,3.48-4.76,2.19-10.47-5.43-2.93-11.51-1.29-14.89-2.34-14.89-2.34-4.48,4.14-6.46,4.8c-1.6.54-3.9-3.45-1.67,1.86a40.77,40.77,0,0,0-4.91-.7,6.32,6.32,0,0,0,.22-.61c1.22-4.29-3.28-6.75-3.44-8.72s4.23-6.9,4.73-8.54-5.06-8.35-5.34-10.61-3.87,5.6-6.15,5.35-2.26.82-4.66.77-2.38-4-3.17-5.2-4.24-4.11-10.08-3.61-3.64,5-2.85,11.23,9.93,4.6,9.93,4.6a53.2,53.2,0,0,1,1.8,5.91c.38,2.05,0,0,1.6,2.88s0,0-2.43,5.81a9,9,0,0,0-.78,4.06c-1.2.33-2.45.71-3.73,1.14-10.85,3.67-8.62-9.67-12.56-6.48s-9-6.09-13.23-4.74-16.88-.28-21.27,3.63-20.67,18.18-17.89,23.39c1,1.83,1,4.83.72,8.15-12.12-20.5-28.47-37.86-37.73-18.8-1.53-1.62-3.35-2.75-5.09-2.31-8.55,2.19-12.61,7.68-15.09,7.76s-2.07,8.24-3.74,9-.67,4.58-2.29,5.21c-1.37-.52-2.19,2.6-2.63,1.35-2-5.54-1.1-2.77-1.89-2.39a13.83,13.83,0,0,1-3.38.41s-1.53,3.78-3.86,5-4.41,1.63-3.14,3.75a4.8,4.8,0,0,0,3.72,2.56c.37,0,1.06-.41,1.66-.5a3.43,3.43,0,0,1-.59.36,9,9,0,0,0-2.07,2.25,7,7,0,0,0-.34-.88,23,23,0,0,0-1.87-3c-.13-.32-1.91-1.71-2.14-1.31a3.13,3.13,0,0,0-.29,4c1.38,2.27,1.87,1,1.38,2.27s-.45.42-.48,1.3a22.29,22.29,0,0,1-.37,2.58s-3.92-.1-3.85,2.56-.56,4.66,1.91,4.5,5.33.3,5.59-.23,1.46-.25,2.46-.42,2.15-2.41,3.09-2.66c.66-.18.79-2,.8-3.38a10.39,10.39,0,0,0,3.12-1.34c.16-.11.33-.21.48-.32a4.15,4.15,0,0,0-.69,2.55c.1.59,1.27,1.79.55,2.51s-1,.38-1.65,1.12-4-.62-3.44.16.83,4.44,1.46,4.79,3.41.59,3.93,1.24-.13,2.71,1.49,3.66,4.36-.29,4.65-.1,3.53-1.88,3.49-2.33a3.13,3.13,0,0,0-2-3.45c-2.43-1.07-2.08.28-2.43-1.07s.13-.6-.35-1.34a21.92,21.92,0,0,1-1.17-2.33s3.27-2.16,1.69-4.3c-1.27-1.72-1.93-3.35-3.14-3.12,3.16-3.42,3.67-7.35,5.49-7.3,2.25.06,4.65,5.86,4.65,5.86s2.65,12.38,9.47,12.17c1.8-.06,3.49,0,5,0,4.79,8.23,12.93,16,22.15,29.92C1452,4053,1512,4055,1450,4065c-36.58,5.9-51.92,11.8-66.16,13.18-1.59-2,1.2-6.63,1.81-11.07.64-4.6-7.45-12.78-7.23-17.21s-15.45-8.87-19.68-10.11-12.33,3.95-15.6,4.38,14.91,19.41,11.2,18.5-16.55-3.58-25.09-2.57c-.89.11-1.75.23-2.58.37a10,10,0,0,0-4-1c2.07-7.31,6-18.89,5.19-19.6-1-.88.29-3.39.46-5.72s-2-9.24-5.6-9.25c-7.89,0-12.64,3.82-14.8,3.34s-3.65,6.66-5.27,7-1.61,4.33-3.5,4,1.3,3.66-2.95,4.44-7.05,2.37-7.83,2.47-4.88,3.29-4.13,4a12.29,12.29,0,0,0,2.28,2.28c-40.37-14.58-38.78-38.94-95.48-17.43-58,22-56.37-1.24-61.18,32.38s-3.19,40.13,0,53.87c.43,1.89,2.72,3.89,6,6-1.91,6.41-.44,11.36-1.55,13-1.21,1.82,4.84,5.7,4.56,7.31s3,2.82,2.58,4.31c-1.07.71.74,2.9-.39,2.58-5-1.42-2.54-.63-2.68.13A10.28,10.28,0,0,1,1137,4157c-10.44.93-23.9,1.65-41,2.12-68.74,1.9-102.44,3.43-126.4,3.74a19.82,19.82,0,0,0-1.76-3.95c-5.93-10.34-8.26-4.56-5.93-10.34s2.09-1.85,2.33-5.78a98.79,98.79,0,0,1,2-11.51s17.53.92,17.55-11,3.07-20.84-8-20.39-16.84,6.76-18,9.14-.23,9.83-4.73,10.5-4.7-1.37-8.92-.35c-2.09.51-5.25-2.66-7.91-5.46,4.05-1.23,6.64-3,7.42-3.13s5-4,4.1-4.72,3.14,1.06.58-5.05c-1.65-3.95-8.5,1.67-7.5-1.64,4.25-14,1.9-7.16-.25-7.6s-7.37-4.16-7.37-4.16-8.67,5.31-15.23,4.39-11.24-3.28-11.84,2.86,2.44,9.79,3.66,10.64,5.4.87,5.43,3.4-1.11,2.49-.87,4.89,1.31,4.16,3.69,4.49,5.43.91,7.16.41.7-1.43,2.77-1.24a2.49,2.49,0,0,0,1.25-.21c-1,2.33-2.28,4.88-3.33,7.22-6.12-.93-10.72,0-12.49-1.22-1.6-1.1-4.47,2-6.87,4.17.45-.67.65-1.19.51-1.52-.62-1.35,1.87-3.17,3.13-5.36s-1.16-8-.15-10.17-6-7.63-7.89-9.12-7-.52-8.77-1,3.58,12.85,1.89,11.64-7.63-5.19-12.16-6.42-8-1-8.81-1.27-6.32.92-5.92,2,.62,6,7.18,6.94,4.84-2,6.56,1,.08,1.55,1.72,3a55,55,0,0,1,4.33,4.83s-6.44,7.33-1.26,11.45c1.23,1,2.32,1.95,3.32,2.82-5.1-.87-8.87-.4-9.81-.65s-7.66,1.64-7.1,2.91,1.25,7.25,9.35,7.92,12.64-5,14.75-3.33.31,8.9.31,8.9a35.85,35.85,0,0,0-2.18,6.91c-7-.64-13.22-1-18.73-1.25a4.91,4.91,0,0,0,2.7-2.77c.92-2.17-1.09-2.24-3.46-3.13s-4.31-4.28-4.31-4.28a13.13,13.13,0,0,1-3.25,0c-.65-.2-.46-2.05-1,.22a15.31,15.31,0,0,0-1.44-1.39l.22-.15c1.41-1.11.52-3,.93-3.66s3-1.26,3.56-1.68.32-3.91.76-4.72-2.59.92-3.27.29-.93-.26-1.71-.84.18-1.88.2-2.45a4.63,4.63,0,0,0-2.44-3.56c-2-1.21-2.37.77-3.59,3s2.16,3.85,2.16,3.85a20.83,20.83,0,0,1-.81,2.35c-.35.76,0,0-.15,1.32s0,0-2.17,1.32a3.64,3.64,0,0,0-1.21,1.15c-.47-.18-1-.35-1.49-.51-4.41-1.37-.53-5.2-2.57-5.08s-1.52-4.13-3.21-4.68-5.45-4.07-7.8-3.83-11,1.06-11.37,3.42-5.38,5.89-5.49,8.37,1,5.32-.23,6.12c-1,.65.19,5.35.86,10.35-4.25-1.23-8.6-3.48-14.18-7.4-8.2-5.78-10.43-10.76-12.53-15.7,4.61,2.36,8,2.72,10.82-3.15,4.41-9.32,12-18.8,10.51-20.82s2.09-5.8,3.47-9.8-4.38-12.74-3.4-16.66-12.22-10.68-15.79-12.54-11.72,1.33-14.72,1.14,9.87,20,6.72,18.53-14.15-6.15-22-6.77c-.82-.06-1.61-.11-2.37-.13a9.1,9.1,0,0,0-3.43-1.62c3.15-6.16,8.77-15.81,8.13-16.6-.79-1,.85-3,1.42-5s-.15-8.62-3.35-9.27c-7.06-1.42-12,1.17-13.83.35s-4.44,5.31-5.95,5.31-2.21,3.58-3.84,2.95.51,3.5-3.43,3.45-6.72.86-7.43.81-5,2.07-4.41,2.86,1.76,4.73,7.3,4.15,7.88-5,9.51-4.12,1.34,5.95,1.34,5.95-2.25,9.23,2.07,12q-.42.45-.81.9c-2.31,1-4.72,2.4-5,3.38-1.92,2-4.75,6.06-7.85,9.2l-.19.2c-.29,0-.45-.15-.39-.69,1.08-10,.37-5.06-1.13-5.08s-5.5-1.86-5.5-1.86a26.57,26.57,0,0,1-5.13,3.5c-34.71-13.83-39.09-18.84-65.87-.69C634,4115,681,4143,604,4141s-74,34.48-98.5-13.76c-22.78-44.85,13.64-11.71-16.49-40.58,2.67-1.08,4.91-2.75,5.17-5.06,1.3-11.24-3.41-18.61-2.37-21.62s-8.91-6.25-9.11-8.62-5.19-2.9-5.2-5.13c1.25-1.4-2.11-3.81-.4-3.77,7.53.18,3.81,0,3.73-1.17a17.19,17.19,0,0,1,1-4.22s-3.82-3.57-4.27-6.94.08-6-3-5.48a6.15,6.15,0,0,0-4.77,3.28c-.17.46,0,1.46-.17,2.22a3.87,3.87,0,0,1-.16-.87,11.62,11.62,0,0,0-1.75-3.51c.42,0,.83,0,1.21,0a30.11,30.11,0,0,0,4.5-.85c.44,0,2.92-1.51,2.55-2a4,4,0,0,0-4.65-2.18c-3.36.62-2,1.8-3.36.62s-.3-.74-1.33-1.18a28.48,28.48,0,0,1-2.92-1.63s1.91-4.64-1.3-5.77-5.33-2.81-6.26.22-2.81,6.24-2.28,6.8-.38,1.85-.63,3.13,1.9,3.69,1.77,4.92c-.09.87,2,1.86,3.67,2.51a13.92,13.92,0,0,0,.18,4.34c.05.25.1.49.16.73a5.21,5.21,0,0,0-2.73-2c-.75-.16-2.73.69-3.26-.5s0-1.4-.59-2.49,2.58-4.52,1.39-4.18-5.69-1-6.41-.45a21.34,21.34,0,0,0-1.83,2.62c-11.65-20.06-20.82-29.4-47.86-5.84-.18-3.06-.61-7-1.58-8.38-1.67-2.37,4.67-6.94,4.38-15.7,0-.36,0-.7-.06-1l.58-.08a24.38,24.38,0,0,0,6.58-2.59c.93-.53-2.54,6-1.62,5.84s3.49.65,4.54,0,4.93-3,4.54-4.22,1.17-4,.65-5.19-1.69-2.27-1.3-2.92-2.14-3.38-3.71-6.14-3.28-.65-6.16,1.16,0,5.92,0,5.92a28.58,28.58,0,0,1-2.49,2.23c-.92.65,0,0-1.05,1.44-.82,1.13-.36.49-1.75.22-.13-.25-.26-.49-.4-.71l.05-.11a29.23,29.23,0,0,0,1.94-4.14c.75-2.3,1.93-2.67,1.89-3.74s.41-.51.71-1.39a11.44,11.44,0,0,0,0-3.69c-.11-1.23-1-1.82-2.21-2s-1.24.4-2.53.32-1.21-2.23-1.61-2.87a6.17,6.17,0,0,0-5.37-2.16c-3.17.15-2.08,2.62-1.78,6s-2.64,7.71-2.64,7.71a17.35,17.35,0,0,1,1.94,3.89c.14.91-2.2,1.76.84,1.07a22.87,22.87,0,0,0-.84,2.55l-.3-.17c-2.17-1.06-3.91,1.11-5,1s-3.28-2.9-4.11-3.32-4.92,1.91-6.15,1.85,2.62,2.59,2.27,3.78.23,1.28,0,2.55-2.37.89-3.07,1.2a6.19,6.19,0,0,0-2.87,5c-.28,3.15,2.31,2.41,5.71,2.58s3.39-4.86,3.39-4.86a27.9,27.9,0,0,1,3.32-.4c1.13,0,0,0,1.68-.58s0,0,2.87,1.84a4.75,4.75,0,0,0,2.09.79c.06.68.15,1.38.26,2.1.93,6.13-6,3.68-4.64,6.08s-4.1,4.24-3.77,6.6-1.74,9-.07,11.67c.51.82,1.42,2.32,2.53,4l-4.94,4.43c-1.24-1.29-4.4-2-3.86-3.8.66-2.23-4.59,1.07-5-4.16s-1.89-8.83-1.91-9.78-3.31-6.34-4.29-5.53-6.07,2.86-4.68,10.15,7.47,9.9,6.53,12.16-7.75,2.45-7.75,2.45-12.5-1.95-15.66,4.08c-.42-.33-.86-.65-1.28-1-1.6-3-3.71-6-5-6.22-2.9-2.33-8.57-5.63-13.09-9.39l-.29-.23c-.06-.38.16-.61.87-.59,13.36.31,6.76-.08,6.62-2.08s1.85-7.5,1.85-7.5-6.78-6.33-7.58-12.32.14-10.69-5.4-9.72-8,4.54-8.47,5.82.55,5-1.67,5.61-2.45-.37-4.51.43-3.33,2.16-3,4.34.53,5,1.39,6.4,1.43.27,1.76,2.13,2.54,2.06,4.72,5.73a30.48,30.48,0,0,0,3.57,4.78c-1.22,1.73-2.53,3.75-4.11,5.82-4.18,5.46,9.4,15.86,16.2,20.57.18,1.41.39,2.62.62,3.68-3,1.31-7.22,3.37-8.28,4.95-1.68,2.49-8.44-2-16.83,1.52s-7,10.08-7.21,11.63,7.56,1.28,8.54.66,5.68-1.49,11.28-4.64,5.76,4.43,7.6,2.25a1.58,1.58,0,0,1,.9-.55l-.25.51c-2.17,4.38-7.79,12.2-7.79,12.2s-19.58-9.47-25.31,4.12-13.51,22.33-.65,27.13,26.28,13.75,28.81,11.61,7.92,2.12,13.38,3.52a6.26,6.26,0,0,0,2.14.1l-.31.05c-52,8-34,62-94,0-54.92-56.75-.1-51.51-52.55-64-.09-.29,0-.46.46-.45,7.53.17,3.81,0,3.73-1.17a17.67,17.67,0,0,1,1-4.22s-3.82-3.57-4.27-7,.08-6-3-5.47a6.17,6.17,0,0,0-4.77,3.28c-.26.72.31,2.79-.94,3.16s-1.39-.21-2.54.24a2.24,2.24,0,0,0-1.72,2.44,11.5,11.5,0,0,0,.78,3.61c.49.79.81.15,1,1.2a1.28,1.28,0,0,0,.27.59c-1.29-.19-2.73-.45-4-.65-.39-3.16-1.48-5.31-1.12-6.36s-1.62-1.94-3-2.83c.39.13.68.16.82,0,.58-.49,1.83.49,3.09.81s3.79-1.67,5-1.47,2.95-4,3.43-5.16-.71-3.56-.73-4.49-5.87,3.55-5.5,2.54a24.09,24.09,0,0,0,1.5-6.9,28.15,28.15,0,0,0-.58-4.54c0-.44-1.33-3-1.8-2.67a4,4,0,0,0-2.45,4.52c.41,3.38,1.67,2.12.41,3.38s-.75.26-1.25,1.27a28.12,28.12,0,0,1-1.8,2.81s-4.52-2.18-5.84,1c-.31.74-.65,1.41-1,2a39.63,39.63,0,0,0-1-4.95c0-.54-1.86-3.58-2.41-3.12s-3.43,1.62-2.64,5.72,4.21,5.58,3.68,6.86-4.37,1.37-4.37,1.37-7.65-1.19-9,2.75c-.28.83-.6,1.6-.89,2.31-55.1-13.05-49.23-14-67,5.52-20,22-16,20-24,34s-10.87,28.47-27.43,26.23-24.57,6-24.57,6v45.89S20,4189,40,4193s83,4,89,10,20-8,52,8,32,46,82,18,48-29.85,82-31.93,50-18.07,72,5.93-2.68,38,49.66,37.49S586,4261,640,4227s40-40,70-38,33.09.08,54.54,22S756,4247.91,813,4246.46s54.18,35.65,102.59.1S935,4215.09,980,4209s87,2,101,16-.37,35.9,48.82,23.95S1179,4269,1217,4227s29.76-49.74,58.88-53.87S1354,4171,1374,4195s24,48,54,38,68-28,94-42,64.22-53.69,83.11-27.85S1606,4197,1644,4203s43.47,52.07,79.24,10,5.76-32,48.76-52,41-37.65,63-7.82,31.48,49.88,31.48,49.88,26.45,2.06,33.49,0,20-2,20-2V3919.73S1935,3853.9,1883,3828ZM338.78,4099.69c1.59-4.34,6.57-19.47,6.52-29.92,0-1.09,0-2.14-.1-3.16a11.94,11.94,0,0,0,1.76-4.73c1.8.74,3.81,1.6,5.88,2.49-3.88,5.52-4.22,10.64-7.84,25a30.1,30.1,0,0,0-.93,8.64C340.64,4100,338.26,4101.11,338.78,4099.69Zm-6.43,37.1c5.82-1.2,14.14-7,18.56-6.33,1.62.26,3.45-1.27,5.26-3.65C356.16,4130.93,350.66,4133.87,332.35,4136.79Zm122.83-95.27c2.64-.73,4.9-.77,5.18-2.33,2.64,5.34,7.11,7.76,6.22,9.91-.78,1.88-5,2.54-7.39,2.77-2.38-3.75-4.54-7.43-6.56-11A2.59,2.59,0,0,0,455.18,4041.52Zm-4.37-4s0,.14.1.35l-.2-.34Zm330.09,65.31a1.23,1.23,0,0,1-.35-.71l.36.22a90.82,90.82,0,0,1,8.63,6.6,28,28,0,0,0-2.94,7.74c-1.78-1.16-3.81-2.35-6.15-3.57a31.68,31.68,0,0,0-1.71-4.74C776.73,4104,782.41,4104.34,780.9,4102.83Zm-20.43,1.75a74,74,0,0,0,5.7-6.23c1.06,0,2-.12,2.79-.23.79,2.31,2.07,5.62,3.18,6.51.89.72.37,2.29-.1,4.5C768.66,4107.67,764.82,4106.16,760.47,4104.58Zm114.65,52.88-.83,0A2.13,2.13,0,0,1,875.12,4157.46Zm-11.89-4.28.61,0,.06.07a20.68,20.68,0,0,0,2.14,2.64,5.32,5.32,0,0,1,1.08,1.44h-3.23a15.82,15.82,0,0,1-.45-1.69c-.14-.82,0,0-.63-1.17C862.32,4153.51,862.6,4154,863.23,4153.18Zm-13.11-8.94c2.13-.35,3.14,5.39,9.1,8l.72.29c0,.13-.09.27-.14.42a15.94,15.94,0,0,0-.42,4.33l-1.08,0c-.94-1-2.15-2.48-2.28-2.08s-.9,1.37-1.27,2.18c-4.79.15-8.79.37-12.3.48.89-6.44-1.16-16.52-1.16-16.52S848,4144.59,850.12,4144.24Zm82,3.13c-.5-.93.27-2.15,1.27-3.55a6.69,6.69,0,0,1,1.21,2.92c.15,3.39-6.34,8.39-5,15.1-2.4-.17-4.87-.36-7.45-.57C927.43,4154.74,932.65,4148.29,932.15,4147.37Zm217,4.46c1.2-1.59,6.59-.34,6.59-.34a26.05,26.05,0,0,0,6,1.66,81.55,81.55,0,0,1-11.63,2.39C1149.3,4153.81,1148.56,4152.61,1149.15,4151.83Zm143.8-98.78c5.84-1.81,7.41-7,9.35-6.47s2.72,6.11,2.72,6.11a26.31,26.31,0,0,0,.58,6.16c-4.07-1.36-9.26-3.1-16.07-5.36A9.2,9.2,0,0,0,1293,4053.05ZM1567.16,4019c-.34-.3-.22-.9,0-1.6a2.71,2.71,0,0,1,.92,1c.43,1-.39,2.78-.29,4.65l-1.44,0C1567,4020.84,1567.39,4019.18,1567.16,4019Z"/><g id="fish2"><path class="cls-7" d="M483.06,2592.91c-3.71-3.73-4.47-6.68-8.26-9.37s-4.25-2.35-5.17-3.22c-.59-.57-1.43-6.33-4.29-12.37a23.64,23.64,0,0,0-2.91-5c-.32-.45-.66-.89-1-1.32a11.18,11.18,0,0,0-3-3.09c-8.79-7.56-35.14-28.84-50.68-27q-5.13.61-9.61,1.31h0l-1.1.18-.41.07-.72.12-.44.07-.72.13-.38.06-1,.19-.29.05-.77.15-.39.07-.67.13-.38.08-.77.15-.24,0-1,.21-.33.07-.65.15-.36.08-.64.15-.32.07-.9.22-.19,0-.73.18-.31.08-.6.16-.31.08-.67.19-.21.06-.83.24-.25.07-.6.18-.29.09-.57.18-.25.08-.79.26-.08,0-.7.24-.25.09-.53.19-.26.09-.57.22-.17.07-.73.28-.17.07-.54.23-.24.1-.49.21-.21.09-.68.31c-7.84,3.64-26.3,18.83-26.12,21.37s-1.09,10.19,1.37,14.13l.13.19.05.07.1.14.07.08a.64.64,0,0,0,.1.13l.07.09a1.34,1.34,0,0,1,.11.14l.09.09.12.14.09.1.13.13.1.11.13.14.11.11.14.15.11.1c.05.05.11.1.16.16a.57.57,0,0,1,.11.11l.17.15.12.11.18.17.11.1.19.18.12.1.21.19.11.09.23.2.1.09.26.23.08.06.32.28h0c5.37,4.5,13.66,10,13.66,10l-19.56-9.62h0l-1.06-.52-.21-.11-.12-.06-.1-.05-.53-.26-.1,0-.17-.08-.11-.06-.13-.06-.1,0-.15-.07-.07,0-.12-.06-.09-.05-.08,0-.09-.05-.07,0-.08,0-.07,0,0,0-.07,0h0l-.06,0c-1.13-.58-4.41,13.32-.85,20.66s11.26,13.48,11.93,14.39,3.63,4.77,3.63,4.77h0l0,0,0,0,.05-.06v0l.07-.08,0,0,.1-.11,0,0,.07-.09.1-.11.1-.12,0-.05.14-.16.07-.08.14-.16.07-.08.13-.16.12-.13.15-.17.08-.09.19-.22.07-.08.2-.23.08-.09c.07-.09.15-.17.22-.25l.06-.07.25-.29.05-.05.29-.33h0c2.85-3.21,6.84-7.56,7.9-7.9,1.38-.44-5,6.85-7.24,10.4h0l-.12.19v0l-.09.16,0,0a1.09,1.09,0,0,0-.08.15l0,0-.07.14,0,0-.06.12,0,0a.54.54,0,0,0-.05.11l0,0,0,.1v0a.32.32,0,0,0,0,.09s0,0,0,0,0,0,0,.07a.09.09,0,0,0,0,.05.13.13,0,0,0,0,.06.06.06,0,0,0,0,0v.09a.19.19,0,0,0,0,.07c.5,1.46,5.17,18.36,26.72,22.91l1.08.22.35.07.71.13.41.08.64.11.41.07.62.1.4.06.63.1.37,0,.69.09.28,0,.95.12.17,0,.76.08.33,0,.59.05.35,0,.55.05.35,0,.54,0,.33,0,.55,0,.3,0,.65,0h3.6l.48,0H405l.52,0h.19c.47,0,.93-.06,1.38-.09h.12l.55-.05.17,0,.47,0,.19,0,.45-.05.17,0,.47-.06h.13l.54-.08h.05l1.16-.19h0l.51-.1h.08l.45-.09.08,0,.44-.09h.06c4.19-.91,6.51-2,7.34-1.82,1.87.46,8.78,1.85,10.82,1.76s23.22-5.23,27.62-8a92.92,92.92,0,0,0,15.26-12.85c3.89-4.25,4.26-6.63,7.79-8.51s7.1-3.51,9.71-5.49a7.74,7.74,0,0,0,2.85-5.11S486.77,2596.64,483.06,2592.91Z"/><path class="cls-7" d="M641.26,2609.74c-1-2.5-.83-4-2.12-6.06s-1.56-1.94-1.83-2.54c-.18-.38.54-3.29.34-6.71a12.41,12.41,0,0,0-.41-2.95c-.07-.27-.14-.54-.23-.82a5.75,5.75,0,0,0-.83-2c-2.72-5.3-11.15-20.52-18.91-22.63-1.71-.47-3.31-.88-4.83-1.23h0l-.55-.13-.21,0-.37-.08-.22,0-.37-.08-.19,0-.53-.12-.15,0-.4-.08-.2,0-.34-.06-.2,0-.39-.07-.13,0-.5-.09-.17,0-.34-.05-.19,0-.33-.06-.16,0-.48-.07-.1,0-.38-.05-.16,0-.32,0-.16,0-.36,0h-.11l-.44-.05h-.13l-.32,0h-.16l-.3,0h-.14l-.43,0h0l-.38,0H602l-.29,0h-2.26c-4.44.22-16.16,3.88-16.56,5.12s-2.49,4.64-2.08,7c0,0,0,.07,0,.11v0a.19.19,0,0,1,0,.08l0,.05s0,.06,0,.09l0,0,0,.09,0,.06,0,.09,0,.06,0,.09,0,.07a.3.3,0,0,1,0,.1l0,.07,0,.09,0,.08.05.1,0,.07a1.17,1.17,0,0,0,0,.11l0,.08.06.11,0,.07.06.12,0,.07.06.13,0,.07.07.14,0,.06.09.16,0,0c0,.07.07.13.1.2h0c1.68,3.18,4.56,7.41,4.56,7.41l-7.45-8.36h0l-.4-.45-.08-.09,0-.06,0,0-.2-.23,0,0-.07-.07,0-.05,0,0,0-.05,0-.06,0,0,0-.05,0-.05,0,0,0,0,0,0,0,0,0,0v0l0,0h0l0,0c-.42-.49-4.67,5.49-4.4,9.67s2.76,8.6,2.9,9.16.81,3,.81,3h0l0,0h0l.05,0h0l.06,0h0l.06,0,.06,0,.07,0,0,0,.1-.05.05,0,.1,0,0,0,.09,0,.08,0,.11-.06.05,0,.13-.07,0,0,.14-.07.06,0,.15-.07,0,0,.18-.09,0,0,.2-.1h0c2-1,4.72-2.27,5.29-2.23.74.06-3.72,2.29-5.46,3.55h0l-.09.07h0l-.08.06h0l-.07.06h0l-.06.05,0,0,0,0,0,0,0,0,0,0,0,0h0l0,0,0,0,0,0v0l0,0h0a0,0,0,0,0,0,0h0v0c-.05.79-1.09,9.74,8.29,16.07l.47.32.15.1.31.2.18.11.29.18.18.11.27.17.18.11.28.16.17.1.31.18.13.07.43.24.07,0,.35.19.15.08.27.14.16.08.25.12.17.08a1.15,1.15,0,0,0,.25.12l.15.08.26.12.14.06.3.14.09,0,.38.16.09,0,.28.12.13,0,.24.1.14,0,.23.09.13.05.24.08.12,0,.25.08.09,0,.68.22.06,0,.27.08.08,0,.24.07.09,0,.22.06.09,0,.23.06.07,0,.27.07h0l.58.14h0l.26,0h0l.23,0h0l.23.05h0c2.17.38,3.49.3,3.84.56a38.25,38.25,0,0,0,4.81,2.92c1,.35,12.07,2,14.7,1.52a47.49,47.49,0,0,0,9.75-3.16c2.68-1.28,3.31-2.33,5.35-2.55a38.84,38.84,0,0,0,5.69-.74,3.9,3.9,0,0,0,2.34-1.87A48.27,48.27,0,0,1,641.26,2609.74Z"/><path class="cls-7" d="M585.7,2708.33c-2.24-3.18-2.43-5.43-4.86-7.86s-2.81-2.25-3.37-3c-.37-.48-.26-4.79-1.6-9.55a17.17,17.17,0,0,0-1.51-4c-.17-.37-.36-.73-.56-1.09a8.3,8.3,0,0,0-1.81-2.62c-5.48-6.61-22.07-25.4-33.63-26q-3.83-.18-7.18-.23h-5.5l-.57,0h-.19l-.72,0H524l-.5,0-.27,0-.49,0h-.24l-.69.05h-.14l-.55,0-.24,0-.46,0-.24,0-.51.05-.15,0-.65.07-.18,0-.46.06-.23,0-.43.06-.2,0-.61.09h-.06l-.54.09-.19,0-.41.08-.2,0-.45.09-.13,0c-.19,0-.38.07-.56.12l-.14,0-.42.09-.18,0-.39.09-.17,0-.53.14c-6.17,1.69-21.52,10.48-21.7,12.35s-2.06,7.3-.75,10.48a1.11,1.11,0,0,0,.07.16.14.14,0,0,1,0,.06l.06.11a.25.25,0,0,0,0,.07l.06.11a.25.25,0,0,0,0,.07l.06.11.05.08.07.11.06.09.07.12.06.09a.36.36,0,0,1,.08.12l.07.09.09.12.06.09a1.47,1.47,0,0,0,.1.13l.07.1a1.13,1.13,0,0,0,.1.13l.07.1.11.14.07.09.12.15.07.09c0,.06.09.11.13.16l.07.09.14.17.06.08c.06.06.11.13.17.2l.05,0,.2.24v0h0c3.36,3.94,8.72,9,8.72,9L488,2681.67h0l0,0-.7-.51-.14-.1-.08-.06-.07-.05-.35-.25-.07,0-.12-.08-.07-.06-.08-.06-.07,0-.1-.07-.05,0-.08-.06-.06,0-.05,0-.07,0,0,0-.05,0,0,0,0,0-.05,0h0l-.05,0c-.75-.56-4.86,9.17-3.18,15s6.55,11.23,6.93,12,2.05,3.93,2.05,3.93h0l0,0,0,0,0,0h0l.06,0,0,0,.09-.06,0,0,.07-.06.08-.06.09-.08,0,0,.11-.1.07,0,.12-.1.06-.05.12-.09.1-.09.13-.11.07-.05.16-.14.06-.05.18-.14.07-.06.19-.15.05,0,.22-.18,0,0,.26-.21h0c2.47-2,5.92-4.67,6.74-4.78,1.06-.16-4.52,4.37-6.57,6.68h0l-.11.12h0l-.09.11,0,0-.08.1v0l-.07.09,0,0-.06.09,0,0-.05.08,0,0a.21.21,0,0,1,0,.06l0,0,0,.06v0s0,0,0,0l0,0s0,0,0,.05v0a.09.09,0,0,1,0,0v.08c.19,1.12,1.5,14,16.66,20l.76.29.25.1.5.18.29.11.45.16.29.1.44.15.29.1.44.14.27.09.49.15.2.07.68.2.12,0,.54.16.24.06.42.11.26.07.39.1.25.06.39.09.24.06.4.08.22,0,.47.1.13,0,.59.11.13,0,.44.08.2,0,.37.07.21,0,.35,0,.2,0,.35.05.19,0,.38,0h.14l1,.1h.09l.4,0h.13l.35,0h.14l.34,0h.13l.34,0h2.27l.34,0h0c3.17-.14,5-.66,5.58-.41a53.28,53.28,0,0,0,7.67,2.62c1.5.19,17.59-.93,21.15-2.43a68.92,68.92,0,0,0,12.72-7.49c3.37-2.62,3.93-4.3,6.74-5.24a56.91,56.91,0,0,0,7.77-2.8,5.72,5.72,0,0,0,2.71-3.37A69.11,69.11,0,0,1,585.7,2708.33Z"/></g><g id="island"><path class="cls-7" d="M1920,2286.46S1764,2231,1758,2205s-2-26-30-46-36-26-44-30-60,0-70-12-30-38-30-38,25-30,51-34,234-19,251-17a159,159,0,0,0,34-.18Z"/><path class="cls-8" d="M1874.42,2016.66c-8,.87-17.28,2-27.36,3.27-10.23-7.75-20.59-16.43-28.06-25.93-22-28-41.67-51.74-47-93-3.59-27.77,3.62-72.26,8.06-103.13,11.25,4.05,23.87,8.49,33.75,13.13,26,12.25,23.55,18.06,34.9,38.09s7.75,38.79,10.4,43,6.4-4.47,7.27-26.48-5.25-44.6-8.48-53.91c-1.34-3.86-7.8-10.58-17-17.51,14.65,3.34,17.4,9.73,31.32,21.41,17.64,14.79,20.84,33.62,24.81,36.67s4.43-6.43-2.47-27.35-20.52-40-26.8-47.54c-4.53-5.47-26.54-13.6-49.23-15.87,1-.36,2.07-.71,3.08-1,27.41-8.81,29.54-2.86,51.5,4.06s32.12,23.09,36.95,24.38,1.63-7.63-12.74-24.32-34.25-29.05-43-33.65-50.43-1.09-75.1,14.47c0,0-7.29,9.56-13.52,19.61-7-6-13.19-10.7-13.19-10.7-27.94-8.33-69.07-.47-76.21,6.31s-23,24-32.3,44-10,29.4-5.72,26.85,9.73-20.86,29-33.44,19.74-18.88,48.51-17.79c1.06,0,2.14.1,3.24.16-21.24,8.3-40.25,22.07-43.13,28.56-4,9-12,31-13,53s2,31,5,27,1-23,14-42c9.82-14.36,11.09-21.29,22.76-28.13-3.53,5.61-5.64,10.33-5.81,13.11-.6,9.83-.39,33.24,6.37,54.2s12.72,28.34,14.13,23.54-7.11-21.89-1.58-44.24,1.56-27.27,23.35-46.09c6.71-5.79,15.21-12,23.39-17.78l-7,32.52S1746,1910,1767,1950c19.58,37.29,28.73,60.67,41.22,75-30.23,4.08-60.41,8.34-77.46,10.71C1700,2040,1672,2038,1647,2041s-37,8-37,8-8.75,3.45-2.81,8.7A140.54,140.54,0,0,0,1584,2079h336v-62.34S1913.83,2012.31,1874.42,2016.66Z"/></g><path id="shark" class="cls-7" d="M847,3497h0c0-22.28-41.71-44.53-79-59-32.43-12.59-109.45-24.89-147.3-27.28-1.06-.07-2.16-.11-3.29-.13-2.73-12-6.58-25.31-10.14-31-6.75-10.7-17.13-22.68-27.52-22.68-11.17,0-10.75,32-10.75,32v28.91c-30.31,7.83-65,21-94.38,34.77a21.6,21.6,0,0,0-1.84-4.62c-2.08-3.3-5.27-7-8.47-7-3.44,0-3.31,9.85-3.31,9.85v8.38c-17.91,9.06-32.91,18.07-42.34,25.74-6.13-13.12-14.8-28.45-17.11-34.41-4.15-10.7-10.54-22.68-16.94-22.68-6.87,0-6.61,32-6.61,32l12,47s-11.95,39.14-6,42.23c4.74,2.47,29.32-17.67,38-34.84,1.06.59,2.13,1.14,3.22,1.64s2.46,1.07,3.69,1.53a67.27,67.27,0,0,0,9,2.63,76.15,76.15,0,0,0,14.34,1.81l23.17-.16a4.12,4.12,0,0,0-1.64,3.56c.11,3.07,13.48,9.51,18.4,7.12,3-1.47,11.05-6.57,13.12-9.24.41-.53.81-1.08,1.2-1.66l89.17-.63-9.45,10.14s-22,23.26-17,27.94c4.68,4.36,17.51,0,27.85-5,9-4.35,32.55-23.61,40.46-31.09a24,24,0,0,0,2.07-2.26l95.82-.68s15.69.13,35.3-1l5-.3c7.57-.5,15.55-1.18,23.33-2.13,2.47-.3,4.92-.63,7.33-1h0l.35-.05c.84-.13,1.67-.25,2.5-.39,4.15-.66,8.15-1.41,11.9-2.26a89.85,89.85,0,0,0,13.94-4.23c7.34-3,11.94-6.86,11.94-11.72Z"/><g id="fish_1" data-name="fish 1"><path class="cls-7" d="M1760.42,2345.12a26.06,26.06,0,0,0-5.57-.59,34.29,34.29,0,0,0-.66-8.57c4.08-.53,8.41-1.95,9.16-2.5,1.18-.86-10.88-8.43-14.18-9.94h0c-5-3.94-27-7.29-29.47-3.27l-.06,0c-2.55,1-3,16.27-.19,21.41a3.33,3.33,0,0,0,0,.55,30.78,30.78,0,0,0,1.78,7.31c.86,1.84,2.17,3.88,3.4,3.84.67,0,1.57-2,2.26-4.47a15.33,15.33,0,0,0,3.8,2.4c3.28,2.84,8.2,6.5,9.66,7.59,2.37,1.76,3.8,2.32,5.5.08.75-1,.65-3.53.06-6.45a6.35,6.35,0,0,0,2.17-.42,11.59,11.59,0,0,0,.38,4.33,21.41,21.41,0,0,0,3.75,5.87c1.36,1.18,3.22,2.26,4.44,1.38.85-.63,1.2-4.73,1-8.44,3.4.3,7.94-.27,8.86-1.2C1767.62,2352.9,1763.17,2345.79,1760.42,2345.12Z"/><path class="cls-7" d="M1714.39,2406.55c1.36-1.56,2.7-4,2.57-4.79-.16-1-5.25-1.3-6.57-.19a16.36,16.36,0,0,0-2.28,2.54,20.57,20.57,0,0,0-4.45-2.73,19.16,19.16,0,0,0,2-5.41c0-.89-8,2.35-10,3.44h0c-3.72,1.05-13.23,10.69-12.12,13.35l0,0c-.39,1.64,6.93,7.28,10.46,7.72l.3.21a19.13,19.13,0,0,0,4.23,1.73c1.21.23,2.68.31,3.1-.31.23-.34-.44-1.49-1.4-2.71a9.1,9.1,0,0,0,2.54-1c2.57-.6,6.13-1.72,7.19-2.05,1.71-.54,2.49-1,2-2.68-.22-.72-1.51-1.58-3.16-2.33a3.49,3.49,0,0,0,.56-1.23,7.16,7.16,0,0,0,2.28,1.37,13,13,0,0,0,4.22.24c1.07-.24,2.27-.77,2.27-1.69C1718.19,2409.41,1716.29,2407.77,1714.39,2406.55Z"/><path class="cls-7" d="M1677.4,2359.11c.2-1.28-6.12-3.88-8.27-3a21.7,21.7,0,0,0-4,2.26,27.68,27.68,0,0,0-4.51-5.36,25.89,25.89,0,0,0,4.88-6c.37-1.13-11.22-.41-14.12.16h0c-5.18-.24-21.36,8-21.08,11.85l0,0c-1.19,1.91,5.74,12.21,10,14.27a2.64,2.64,0,0,0,.28.36,25.62,25.62,0,0,0,4.65,4c1.45.8,3.28,1.53,4.07.92.43-.34.08-2.09-.63-4a12.38,12.38,0,0,0,3.66-.21c3.53.32,8.52.41,10,.43,2.41,0,3.62-.27,3.68-2.56,0-1-1.24-2.65-3-4.3a5.35,5.35,0,0,0,1.24-1.31,9.7,9.7,0,0,0,2.31,2.69,17.59,17.59,0,0,0,5.27,2.1c1.47.13,3.21,0,3.6-1.2.27-.82-1.45-3.7-3.36-6.06C1674.5,2362.71,1677.24,2360.17,1677.4,2359.11Z"/></g><path class="cls-3" d="M1920,4123.52s-77-79.52-90.52-76-41.37,5.05-66.92,35.27-17.09,48.28-63.83,40.75-50.36-43-124-18.77-85.1,34.93-114.4,54.59-2.4-11.76-63.85-16.05-61.86-3.29-91.15,6.71S1207,4180,1186,4185s32.75-5-39.63,0S980,4184,980,4184s-54,18.09-89,12-55.52-16.45-103.75-27.25-63.28-26.11-103.75-9.45-63.67,26.1-109.08,39.38S451,4222,435,4185s-1.24-43-60.12-35,18.3.23-87.79,24.11-79.42-.52-103.76-5.32S108.52,4144,74.26,4162,0,4168.11,0,4168.11V6643.84s2,15.84,53,0,61-9.84,85-44.84-5-35,35-51,141-35,186-35,58-10,82,14,24,32,40,53-53,7,16,21,10,30,69,14,69-32.84,100-.42S676,6627,705,6662s16,48,29,35,68-55.92,79-66.46,0-29.48,63-66.51,15-53.13,104-34.58S1099,6542,1144,6577s-35,19,74,56,66,72,133,35,38-27,99-75-13-51,61-48,122.61,21.95,151.8,43,16.2,21.18,46.7,26.6,45.15,5.22,83.83,5.32S1920,6718.33,1920,6718.33"/><path class="cls-7" d="M1793.33,6578.9c-38.68-.1-53.33.1-83.83-5.32s-17.5-5.58-46.7-26.6-77.8-40-151.8-43,0,0-61,48-32,38-99,75-24,2-133-35-29-21-74-56-75-29-164-47.55S939,6486,876,6523s-52,56-63,66.51S747,6643,734,6656s0,0-29-35-8-15-39-47.42S625,6558,566,6574s0,0-69-14,0,0-16-21-16-29-40-53-37-14-82-14-146,19-186,35-11,16-35,51-34,29-85,44.84-53,0-53,0v41s2,15.84,53,0,61-9.84,85-44.84-5-35,35-51,141-35,186-35,58-10,82,14,24,32,40,53-53,7,16,21,10,30,69,14,69-32.84,100-.42S676,6627,705,6662s16,48,29,35,68-55.92,79-66.46,0-29.48,63-66.51,15-53.13,104-34.58S1099,6542,1144,6577s-35,19,74,56,66,72,133,35,38-27,99-75-13-51,61-48,122.61,21.95,151.8,43,16.2,21.18,46.7,26.6,45.15,5.22,83.83,5.32S1920,6718.33,1920,6718.33v-41S1832,6579,1793.33,6578.9Z"/><path class="cls-9" d="M468.72,6595.05l-1.08-1.72C465.17,6593.69,464.62,6594,468.72,6595.05Z"/><path class="cls-2" d="M1829.48,4047.5c-13.48,3.5-41.37,5.05-66.92,35.27s-17.09,48.28-63.83,40.75-50.36-43-124-18.77-85.11,34.93-114.4,54.59-2.4-11.76-63.85-16.05-61.86-3.29-91.15,6.71S1207,4180,1186,4185l-.93.22c2.59-1.31-.35-2.87-38.7-.22-72.37,5-166.37-1-166.37-1s-54,18.09-89,12-55.52-16.45-103.75-27.25-63.28-26.11-103.75-9.45-63.67,26.1-109.08,39.38S451,4222,435,4185s-1.24-43-60.12-35,18.3.23-87.79,24.11-79.42-.52-103.76-5.32S108.52,4144,74.26,4162,0,4168.11,0,4168.11v33S40,4213,74.26,4195s84.74,2,109.07,6.79S181,4231,287.09,4207.11,316,4191,374.88,4183s44.12-2,60.12,35,94,27,139.4,13.72S643,4209,683.48,4192.34s55.52-1.34,103.75,9.45S856,4223,891,4229s89-12.08,89-12,94,6,166.37,1c38.35-2.65,41.29-1.09,38.7.22l.93-.22c21-5,90-25,119.29-35s29.71-11,91.15-6.71,34.56,35.71,63.85,16.05,40.71-30.34,114.4-54.59,77.31,11.25,124,18.77,38.27-10.52,63.83-40.75,53.44-31.77,66.92-35.27,90.52,76,90.52,76v-33S1843,4044,1829.48,4047.5Z"/><g id="trex"><path class="cls-7" d="M1466.53,4760c-24.31-9.32-44.64-4-62.33,9.72,6.87-34,4.85-65.7,3.17-70.74-13.93-41.81-89-68-159.81-32.21-65.86,33.34-147.79,129.07-184.89,162-32.26,28.62-119.55,107.16-89.51,145.87a40.64,40.64,0,0,0,9.88,9.08c5.4,7.06,13,13.89,16.11,18.08,3.4,4.63,17.37,16.23,20.08,13.36,3.32-3.51-6.82-14.3-15.52-23.6.72.14,1.44.26,2.17.37a80.81,80.81,0,0,1,5.91,6.72c4.18,5.68,21.34,19.93,24.67,16.41s-4.09-12.66-12.65-22.06a167.07,167.07,0,0,0,21.14-1.9c4.41,4.68,8.59,8.85,10.82,11.88,4.18,5.69,21.33,19.94,24.67,16.42,4.31-4.57-9.88-19.14-20.9-30.95,9.19-2,18.79-4.47,28.68-7.47,1.12,1.25,2.11,2.41,2.85,3.42,4.19,5.69,21.34,19.93,24.68,16.41,3.49-3.69-5.16-14-14.44-24q13.56-4.54,27.6-10c.43.52.84,1,1.19,1.51,4.18,5.68,21.33,19.93,24.67,16.41s-4.54-13.21-13.41-22.9c3.17-1.3,6.36-2.63,9.54-4,6.75,6.27,17.15,13.74,19.66,11.08s-1.51-9.1-7.58-16.31l2-.88a55.52,55.52,0,0,1,3.83,4.5c4.18,5.69,21.34,19.93,24.67,16.41,3.76-4-6.55-15.57-16.56-26.3l8.2-3.8c6.72,6.35,17.55,14.24,20.13,11.52s-1.83-9.6-8.29-17.15c59.07-28.44,114.39-60.66,145.1-78.56-15.2,29-29.25,57.27-44.32,74.18-17.69,19.85-56,46.68-94.19,74.75-4-6.1-9.65-14.08-11.42-12.1s.44,9.05,3.88,17.66l-6.38,4.74c-2.42-3-4.58-4.91-5.55-3.81s-.67,3.86.39,7.68c-19.71,14.83-38.47,29.74-53.31,43.91-4-6.19-10.25-15.3-12.12-13.19s.9,10.54,5,20.3q-2.92,3-5.56,6c-2-3-3.76-5.62-4.94-7.52-3.72-6-13.87-22.16-16.5-19.2-3,3.37,4.67,21.92,12.27,38.21-9.32,13.35-12.61,25.39-6.64,35.22,15.06,24.78,120-28.65,151.57-56.6,36.33-32.14,132.23-103.55,179.64-160.13C1484.78,4847.61,1503.69,4774.24,1466.53,4760ZM991.27,4915.67c12-15.6,18.07-7.42,17.53-4-.69,4.3-10.32,19.93-11.57,21.74-5.43,7.81-16,20.32-20.52,15.51C972.42,4944.43,984.87,4924,991.27,4915.67Zm159.21-138.59c19.78-15.46,52.75-25.92,61.43-13.63,5.7,8.08,2.38,27.45-.31,42.23-3-3.87-5.9-7-8.2-8.07-5.67-2.57-32.13,3.09-23.24,29.82,2.75,8.25,9.69,21.71,18.2,30.73a49.18,49.18,0,0,1-15.3,14.78c-44.24,27.17-66.86-29.36-72.57-41S1145.92,4780.65,1150.48,4777.08Zm-60.85,86c28.07-2.37,27.37,24.68,23.54,29.58-4.78,6.12-30.24,13.44-33.34,14-13.42,2.35-37,2.33-37.67-15.61C1041.51,4874.12,1074.64,4864.3,1089.63,4863Zm179.69-63.62c-11.42,2.71-27.22-27.78-32.19-42-9.3-26.57,9.49-29.25,13.91-26.19,5.5,3.81,17.5,27.28,18.72,30.18C1275,4774,1281.47,4796.54,1269.32,4799.42Z"/><path class="cls-7" d="M1631.29,4768.47c3.57-6.75,7-12.44,6.35-12.8-4-2-16.69-.37-24.19,5.75-6.78-2.1-14-3.87-21.07-5.43,2.22-4.78,3.66-8,3.25-8.29-2.88-1.78-11.07.05-18.64,5.16-11.86-2.28-22.53-4.21-29.64-6.45,3.63-7.84,6.68-14,6.14-14.38-3.55-2.19-16,1.66-23.84,10.82-20.79-2.64-49.41-2.66-50.55,5.53-1.32,9.4,18.29,16.21,42.18,21.88-.85,11.68-.42,23.68-1.42,30.28-1.35,8.82,1.25,36.88,7.38,36.71,10.5-.29,7.68-45.25,10.06-63.44,8.15,1.71,16.37,3.33,24.09,4.92-2.62,15.7-1.4,35.08-2.83,44.49-1.49,9.73,1.38,40.66,8.13,40.47,12.65-.35,7.77-59.48,12-74.68.52-1.89,1.19-3.93,1.95-6a93.16,93.16,0,0,1,15.94,5c3.56,1.65,7.41,3.72,11.39,6a73.59,73.59,0,0,1,.63,11.26c-.55,6.69,5.08,28.67,11.63,29.17,7.49.56,6.59-14.92,5.38-29.38,17,11.27,32.19,22.62,33.14,21.54C1665.16,4819.28,1658,4782.29,1631.29,4768.47Z"/></g><g id="golem"><path class="cls-7" d="M654,5870c-70.57,0-134.71,21.51-182.21,53-.87-57.27-.05-151.15-12.35-211.85-8-39.55-23.75-74.64-41.79-96.92a53.86,53.86,0,0,0-6.78-7.66c-8.91-9.13-18.2-15.06-27.28-16.86-100.77-42.84-348.82-10.46-383.59-7.1v110.28c40.81-5.63,221-14.15,333.53-29.14,7.32,55.53,52.28,124.51,59.87,168.82,6.7,39.15-3.06,123.92-1.38,188.65a93.34,93.34,0,0,0-3.06,23.3c0,82,118.64,148.5,265,148.5S822,6126,822,6044,800.35,5870,654,5870Z"/><path class="cls-4" d="M628.48,6125.84c-82,4.3-149.52-4.29-153.8-85.91s58.67-151.28,140.62-155.58,177.83,57,182.12,138.67S710.43,6121.54,628.48,6125.84Z"/><path class="cls-7" d="M712.7,6030.27l.36-20.05.45-1.72-20.41-5.37a22,22,0,0,0-10.22-6l-3.22-13.23a12.42,12.42,0,0,0,10.11-12.21,13.18,13.18,0,0,0-.21-2.29c16-3.66,27.61-14.85,27.61-28.09,0-16.21-17.45-29.35-39-29.35s-39,13.14-39,29.35c0,12.81,10.88,23.69,26.06,27.7a12.45,12.45,0,0,0,9.67,14.87l3.07,12.57h-.64a21.87,21.87,0,0,0-14,5.08l-20.87-5.49,0-.06-.1,0-.12,0,0,.08-19.49,6.09a2.54,2.54,0,0,0-2.07-.4l-3.07.75a2.56,2.56,0,0,0-1.88,3.1l.5,2.06a2.55,2.55,0,0,0,3.09,1.88l3.08-.75a2.54,2.54,0,0,0,1.94-2.36l18.15-5.67,17.31,4.55a22,22,0,0,0,2.7,29.31l-11.65,7-1.7.53,5.32,17-4.51.24a3.34,3.34,0,0,0-3.16,3.51l0,.57a3.35,3.35,0,0,0,3.51,3.16l7.2-.38a3.35,3.35,0,0,0,3.16-3.51l0-.57a3.3,3.3,0,0,0-1.22-2.39l-4.74-15.18,11.77-7.09a21.83,21.83,0,0,0,18.4,1.61l11.27,6.79-5.41,17.33.42.13a3.32,3.32,0,0,0-.65,2.14l0,.57a3.34,3.34,0,0,0,3.51,3.16l7.19-.38a3.34,3.34,0,0,0,3.16-3.51l0-.57a3.34,3.34,0,0,0-3.51-3.16l-4.91.26,5.76-18.45L700,6043l-10.34-6.22a22.07,22.07,0,0,0,7.5-27.83l11.31,3-.31,17.58c-.06.06-.12.11-.17.17l-1.37,1.62a2.56,2.56,0,0,0,.3,3.61l2.41,2a2.56,2.56,0,0,0,3.61-.3l1.38-1.62a2.56,2.56,0,0,0-.3-3.61Z"/><path class="cls-7" d="M593.65,5929.44c-7.62,2.65-13.07,20.46-9.13,31.77l4,11.33,35.88-12.49-3.94-11.34C616.45,5937.36,601.17,5926.82,593.65,5929.44Z"/><rect class="cls-7" x="618.06" y="5963.99" width="4" height="83" transform="translate(-1940.3 537.86) rotate(-19.2)"/><rect class="cls-7" x="631.54" y="6036.66" width="4.5" height="16.5" rx="2.25" transform="translate(-4866.56 8631.2) rotate(-109.2)"/></g></svg>