<svg width="40" height="58" viewBox="0 0 40 58" fill="none" xmlns="http://www.w3.org/2000/svg">
<path opacity="0.3" d="M11.8355 9.72223C15.1341 9.72223 16.7441 12.6247 17.1368 14.0759C17.1368 14.0759 17 18.8039 16.5 19.3137C16.1368 19.8235 17.1368 20.7514 17.1368 20.7514L18.9039 21.1495V3.62714C19.493 2.66205 20.7299 2.93056 20.9656 3.62714C21.2012 4.32372 20.4747 15.9141 20.082 21.3319C20.8674 21.5254 23.2039 21.3319 26.2669 21.3319C30.0956 21.3319 30.3038 22.5598 29.8011 22.979C25.9724 26.1717 21.2601 25.1051 20.082 26.5563C18.9039 28.0075 18.5468 34.632 18.9039 36.0399C19.1985 37.2009 18.6094 42.7155 18.3149 46.4886C18.1215 48.9664 18.9039 54.521 18.0204 54.9056L13.3081 55C13 51.9412 13.7793 53.5488 14.4862 52.3878C15.1878 51.2354 13.626 43.3198 14.179 37.618C13.975 39.0268 11.389 49.3628 11.8355 52.0032C12.13 53.7447 11.8355 55 11.2465 55H5.94517C3 52.451 8.89035 53.1935 8.89035 47.9398V40.6838C8.89035 38.9423 9.47938 34.2984 8.89035 32.557C8.30131 30.8155 5.94517 25.0107 5.94517 22.979C5.94517 21.3536 8.39949 20.9473 8.89035 20.9473C10.2648 20.8506 10.304 20.3451 8.89035 19.8807C7.47666 19.4163 7.69634 16.7848 7.5 15.5271H3L6.53421 14.0759C6.9269 12.6247 8.53693 9.72223 11.8355 9.72223Z" fill="#084298"/>
</svg>
