<svg width="40" height="58" viewBox="0 0 40 58" fill="none" xmlns="http://www.w3.org/2000/svg">
<path d="M1.97884 6.06693L2.9683 7.83332C3.46302 8.32804 3.43272 9.64988 3.67314 11.0838C3.95764 12.7805 5.02627 13.4174 6.32738 15.9377C6.68775 16.6357 6.9259 17.233 8.90478 17.7278C10.9008 18.2268 12.7809 18.6444 12.7809 18.0144C12.7809 17.4171 11.0267 18.2355 10.8445 13.49H9.54173C8.84932 13.5171 8.13927 13.5456 8.13802 13.49C8.1343 13.3251 10.89 11.8646 10.89 11.687C10.89 9.16675 12.7809 8.25148 16.359 8.24851C18.3885 8.24682 19.4724 9.46157 19.6725 10.7419C19.7409 11.1793 19.9717 13.082 19.9649 13.49C19.9565 13.997 19.4631 15.5229 19.2941 15.7756C18.0957 17.568 17.9854 16.8593 17.3348 18.0144C17.8769 17.8044 19.2442 18.3917 20.5876 18.0144C22.6265 17.4418 24.6421 16.91 24.5502 15.4315C23.2848 11.7911 18.7291 7.8439 21.0069 8.5979C22.3835 9.97445 23.791 8.59787 24.2971 9.61025C24.5993 10.2147 24.2971 11.3819 27.0812 15.9377C28.9194 18.9457 21.3341 19.888 19.9649 23.0243C17.8659 27.8321 20.0436 36.5117 19.9649 36.9446C19.4587 39.7286 17.7649 42.0598 19.9649 44.5374C22.4369 47.3215 22.7786 44.5374 23.2848 49.0931C23.4389 50.4799 23.0317 52.3834 21.0069 52.3834C19.9649 45.5498 17.841 48.84 15.6919 46.056C14.4455 44.4413 13.9202 41.2472 13.9202 36.9446C8.60524 43.5251 12.1486 49.415 12.1486 52.3834C12.1486 54.155 8.60524 54.155 4.45246 53.8424C5.42829 53.6324 8.88857 51.3233 8.60524 50.6117C5.6505 43.1909 8.12082 40.0972 9.61762 34.1605C9.9873 32.6943 8.11861 27.7803 7.90176 22.4248C7.2512 21.4797 4.02231 18.404 3.67314 17.7278C1.72122 13.9474 2.27786 14.3671 1.97884 12.9005C1.84463 12.2423 1.83562 11.9669 1.48399 11.7911C0.494418 11.2964 -0.000106155 10.3069 1.93631e-08 9.31749C5.31323e-05 8.82277 0.690607 8.49409 1.48399 8.2485C2.37311 7.97328 0.989493 5.57221 1.97884 6.06693Z" fill="#0F5132" fill-opacity="0.3"/>
</svg>
